M48
;GenerationSoftware,Autodesk,EAGLE,9.6.2*%
;CreationDate,2023-12-15T19:44:19Z*%
FMAT,2
ICI,OFF
METRIC,TZ,000.000
T6C0.305
T5C0.350
T4C0.889
T3C1.000
T2C2.500
T1C3.175
%
G90
M71
T1
X60198Y38608
X3302Y38862
X3302Y3048
X59944Y3048
T2
X10890Y3270
X10890Y19770
X40890Y19770
X40890Y3270
T3
X24620Y3524
X27160Y3524
X29700Y3524
X32240Y3524
X22080Y3524
X19540Y3524
T4
X9720Y32030
X12260Y34570
X12260Y32030
X14800Y34570
X14800Y32030
X17340Y34570
X17340Y32030
X19880Y34570
X19880Y32030
X22420Y34570
X22420Y32030
X24960Y32030
X27500Y34570
X27500Y32030
X30040Y34570
X30040Y32030
X32580Y34570
X32580Y32030
X35120Y34570
X35120Y32030
X37660Y34570
X37660Y32030
X40200Y34570
X40200Y32030
X42740Y34570
X42740Y32030
X45280Y34570
X45280Y32030
X47820Y34570
X47820Y32030
X50360Y34570
X50360Y32030
X7180Y9170
X7180Y6630
X9720Y9170
X9720Y6630
X12260Y9170
X24960Y34570
X14800Y9170
X14800Y6630
X17340Y9170
X17340Y6630
X19880Y9170
X19880Y6630
X22420Y9170
X22420Y6630
X24960Y9170
X24960Y6630
X27500Y9170
X27500Y6630
X30040Y9170
X30040Y6630
X32580Y9170
X32580Y6630
X35120Y9170
X35120Y6630
X37660Y9170
X37660Y6630
X40200Y9170
X40200Y6630
X42740Y9170
X42740Y6630
X45280Y9170
X47820Y9170
X47820Y6630
X50360Y9170
X50360Y6630
X14224Y29210
X16764Y29210
X12260Y6630
X9720Y34570
X22860Y29210
X25400Y29210
X31496Y29210
X34036Y29210
X40640Y29210
X43180Y29210
X49276Y29210
X51816Y29210
X7180Y34570
X7180Y32030
X45280Y6630
T5
X5842Y11684
X12954Y26162
T6
X48260Y26162
X39624Y26162
X30480Y26162
X21971Y26162
M30