G04 EAGLE Gerber RS-274X export*
G75*
%MOMM*%
%FSLAX34Y34*%
%LPD*%
%INCopper Layer 15*%
%IPPOS*%
%AMOC8*
5,1,8,0,0,1.08239X$1,22.5*%
G01*
%ADD10C,1.244600*%
%ADD11C,4.191000*%
%ADD12C,1.400000*%
%ADD13C,0.654800*%
%ADD14C,0.609600*%

G36*
X23906Y2539D02*
X23906Y2539D01*
X23970Y2541D01*
X25234Y2541D01*
X25255Y2543D01*
X25344Y2546D01*
X26318Y2631D01*
X26318Y2630D01*
X26430Y2602D01*
X26540Y2565D01*
X26584Y2562D01*
X26626Y2551D01*
X26787Y2541D01*
X607822Y2541D01*
X607920Y2553D01*
X608019Y2556D01*
X608077Y2573D01*
X608137Y2581D01*
X608229Y2617D01*
X608325Y2645D01*
X608377Y2675D01*
X608433Y2698D01*
X608513Y2756D01*
X608589Y2801D01*
X608613Y2805D01*
X608669Y2832D01*
X609656Y2746D01*
X609677Y2746D01*
X609766Y2741D01*
X611015Y2741D01*
X611032Y2736D01*
X611131Y2730D01*
X611151Y2727D01*
X611164Y2728D01*
X611193Y2726D01*
X613323Y2726D01*
X613408Y2737D01*
X613493Y2738D01*
X613627Y2765D01*
X613638Y2766D01*
X613642Y2768D01*
X613651Y2769D01*
X620176Y4518D01*
X620307Y4571D01*
X620438Y4620D01*
X620460Y4634D01*
X620471Y4638D01*
X620487Y4650D01*
X620576Y4704D01*
X626109Y8579D01*
X626214Y8674D01*
X626321Y8765D01*
X626337Y8785D01*
X626345Y8793D01*
X626356Y8809D01*
X626421Y8891D01*
X630296Y14424D01*
X630362Y14549D01*
X630431Y14671D01*
X630439Y14696D01*
X630444Y14706D01*
X630449Y14725D01*
X630482Y14824D01*
X632231Y21349D01*
X632242Y21434D01*
X632264Y21517D01*
X632272Y21653D01*
X632274Y21664D01*
X632273Y21668D01*
X632274Y21677D01*
X632274Y23809D01*
X632261Y23907D01*
X632259Y24001D01*
X632259Y25234D01*
X632257Y25255D01*
X632254Y25345D01*
X632169Y26317D01*
X632170Y26318D01*
X632199Y26431D01*
X632236Y26541D01*
X632239Y26584D01*
X632250Y26626D01*
X632260Y26787D01*
X632459Y392314D01*
X632453Y392357D01*
X632456Y392402D01*
X632433Y392515D01*
X632419Y392629D01*
X632403Y392670D01*
X632394Y392714D01*
X632368Y392768D01*
X632455Y393757D01*
X632454Y393778D01*
X632459Y393866D01*
X632460Y395120D01*
X632464Y395133D01*
X632470Y395232D01*
X632473Y395252D01*
X632472Y395265D01*
X632474Y395294D01*
X632474Y397423D01*
X632463Y397508D01*
X632462Y397593D01*
X632435Y397727D01*
X632434Y397738D01*
X632432Y397742D01*
X632431Y397751D01*
X630682Y404276D01*
X630629Y404407D01*
X630580Y404538D01*
X630566Y404560D01*
X630562Y404571D01*
X630550Y404587D01*
X630496Y404676D01*
X626621Y410209D01*
X626526Y410314D01*
X626435Y410421D01*
X626415Y410437D01*
X626407Y410445D01*
X626391Y410456D01*
X626309Y410521D01*
X620776Y414396D01*
X620651Y414462D01*
X620529Y414531D01*
X620504Y414539D01*
X620494Y414544D01*
X620475Y414549D01*
X620376Y414582D01*
X613851Y416331D01*
X613766Y416342D01*
X613683Y416364D01*
X613547Y416372D01*
X613536Y416374D01*
X613532Y416373D01*
X613523Y416374D01*
X611393Y416374D01*
X611294Y416361D01*
X611225Y416359D01*
X609966Y416359D01*
X609945Y416357D01*
X609856Y416354D01*
X608882Y416269D01*
X608882Y416270D01*
X608770Y416298D01*
X608660Y416335D01*
X608616Y416338D01*
X608574Y416349D01*
X608413Y416359D01*
X601777Y416359D01*
X601773Y416359D01*
X600160Y416359D01*
X600159Y416359D01*
X598630Y416359D01*
X598622Y416360D01*
X26787Y416559D01*
X26743Y416553D01*
X26699Y416556D01*
X26586Y416534D01*
X26471Y416519D01*
X26430Y416503D01*
X26387Y416494D01*
X26332Y416468D01*
X25344Y416555D01*
X25322Y416554D01*
X25233Y416559D01*
X23982Y416560D01*
X23967Y416564D01*
X23869Y416570D01*
X23848Y416573D01*
X23836Y416572D01*
X23807Y416574D01*
X21645Y416574D01*
X21560Y416563D01*
X21475Y416562D01*
X21340Y416535D01*
X21330Y416534D01*
X21326Y416532D01*
X21317Y416531D01*
X14730Y414766D01*
X14599Y414712D01*
X14468Y414663D01*
X14446Y414650D01*
X14435Y414645D01*
X14419Y414634D01*
X14330Y414579D01*
X8744Y410668D01*
X8640Y410573D01*
X8533Y410482D01*
X8517Y410462D01*
X8508Y410454D01*
X8497Y410438D01*
X8432Y410356D01*
X4521Y404770D01*
X4455Y404645D01*
X4386Y404523D01*
X4378Y404499D01*
X4372Y404489D01*
X4368Y404469D01*
X4334Y404370D01*
X2569Y397783D01*
X2558Y397698D01*
X2536Y397615D01*
X2528Y397479D01*
X2526Y397468D01*
X2527Y397464D01*
X2526Y397455D01*
X2526Y395293D01*
X2539Y395194D01*
X2541Y395125D01*
X2541Y393866D01*
X2543Y393845D01*
X2546Y393756D01*
X2631Y392782D01*
X2630Y392782D01*
X2602Y392670D01*
X2565Y392560D01*
X2562Y392516D01*
X2551Y392474D01*
X2541Y392313D01*
X2541Y26787D01*
X2546Y26743D01*
X2544Y26700D01*
X2566Y26586D01*
X2581Y26471D01*
X2597Y26431D01*
X2605Y26387D01*
X2632Y26331D01*
X2546Y25344D01*
X2546Y25323D01*
X2541Y25234D01*
X2541Y23985D01*
X2536Y23968D01*
X2530Y23868D01*
X2527Y23848D01*
X2528Y23835D01*
X2526Y23807D01*
X2526Y21645D01*
X2537Y21560D01*
X2538Y21475D01*
X2565Y21340D01*
X2566Y21330D01*
X2568Y21326D01*
X2569Y21317D01*
X4334Y14730D01*
X4388Y14599D01*
X4437Y14468D01*
X4450Y14446D01*
X4455Y14435D01*
X4466Y14419D01*
X4521Y14330D01*
X8432Y8744D01*
X8527Y8640D01*
X8618Y8533D01*
X8638Y8517D01*
X8646Y8508D01*
X8662Y8497D01*
X8744Y8432D01*
X14330Y4521D01*
X14455Y4455D01*
X14577Y4386D01*
X14601Y4378D01*
X14611Y4372D01*
X14631Y4368D01*
X14730Y4334D01*
X21317Y2569D01*
X21402Y2558D01*
X21485Y2536D01*
X21621Y2528D01*
X21632Y2526D01*
X21636Y2527D01*
X21645Y2526D01*
X23807Y2526D01*
X23906Y2539D01*
G37*
%LPC*%
G36*
X28346Y365124D02*
X28346Y365124D01*
X19711Y368701D01*
X13101Y375311D01*
X9524Y383946D01*
X9524Y393294D01*
X13101Y401929D01*
X19711Y408539D01*
X28346Y412116D01*
X37694Y412116D01*
X46329Y408539D01*
X52939Y401929D01*
X56516Y393294D01*
X56516Y383946D01*
X52939Y375311D01*
X46329Y368701D01*
X37694Y365124D01*
X28346Y365124D01*
G37*
%LPD*%
%LPC*%
G36*
X597306Y362584D02*
X597306Y362584D01*
X588671Y366161D01*
X582061Y372771D01*
X578484Y381406D01*
X578484Y390754D01*
X582061Y399389D01*
X588671Y405999D01*
X597306Y409576D01*
X606654Y409576D01*
X615289Y405999D01*
X621899Y399389D01*
X625476Y390754D01*
X625476Y381406D01*
X621899Y372771D01*
X615289Y366161D01*
X606654Y362584D01*
X597306Y362584D01*
G37*
%LPD*%
%LPC*%
G36*
X28346Y6984D02*
X28346Y6984D01*
X19711Y10561D01*
X13101Y17171D01*
X9524Y25806D01*
X9524Y35154D01*
X13101Y43789D01*
X19711Y50399D01*
X28346Y53976D01*
X37694Y53976D01*
X46329Y50399D01*
X52939Y43789D01*
X56516Y35154D01*
X56516Y25806D01*
X52939Y17171D01*
X46329Y10561D01*
X37694Y6984D01*
X28346Y6984D01*
G37*
%LPD*%
%LPC*%
G36*
X594766Y6984D02*
X594766Y6984D01*
X586131Y10561D01*
X579521Y17171D01*
X575944Y25806D01*
X575944Y35154D01*
X579521Y43789D01*
X586131Y50399D01*
X594766Y53976D01*
X604114Y53976D01*
X612749Y50399D01*
X619359Y43789D01*
X622936Y35154D01*
X622936Y25806D01*
X619359Y17171D01*
X612749Y10561D01*
X604114Y6984D01*
X594766Y6984D01*
G37*
%LPD*%
%LPC*%
G36*
X105908Y17659D02*
X105908Y17659D01*
X100380Y19949D01*
X96149Y24180D01*
X93859Y29708D01*
X93859Y35692D01*
X96149Y41220D01*
X100380Y45451D01*
X105908Y47741D01*
X111892Y47741D01*
X117420Y45451D01*
X121651Y41220D01*
X123941Y35692D01*
X123941Y29708D01*
X121651Y24180D01*
X117420Y19949D01*
X111892Y17659D01*
X105908Y17659D01*
G37*
%LPD*%
%LPC*%
G36*
X405908Y17659D02*
X405908Y17659D01*
X400380Y19949D01*
X396149Y24180D01*
X393859Y29708D01*
X393859Y35692D01*
X396149Y41220D01*
X400380Y45451D01*
X405908Y47741D01*
X411892Y47741D01*
X417420Y45451D01*
X421651Y41220D01*
X423941Y35692D01*
X423941Y29708D01*
X421651Y24180D01*
X417420Y19949D01*
X411892Y17659D01*
X405908Y17659D01*
G37*
%LPD*%
%LPC*%
G36*
X105908Y182659D02*
X105908Y182659D01*
X100380Y184949D01*
X96149Y189180D01*
X93859Y194708D01*
X93859Y200692D01*
X96149Y206220D01*
X100380Y210451D01*
X105908Y212741D01*
X111892Y212741D01*
X117420Y210451D01*
X121651Y206220D01*
X123941Y200692D01*
X123941Y194708D01*
X121651Y189180D01*
X117420Y184949D01*
X111892Y182659D01*
X105908Y182659D01*
G37*
%LPD*%
%LPC*%
G36*
X405908Y182659D02*
X405908Y182659D01*
X400380Y184949D01*
X396149Y189180D01*
X393859Y194708D01*
X393859Y200692D01*
X396149Y206220D01*
X400380Y210451D01*
X405908Y212741D01*
X411892Y212741D01*
X417420Y210451D01*
X421651Y206220D01*
X423941Y200692D01*
X423941Y194708D01*
X421651Y189180D01*
X417420Y184949D01*
X411892Y182659D01*
X405908Y182659D01*
G37*
%LPD*%
%LPC*%
G36*
X193502Y25699D02*
X193502Y25699D01*
X189996Y27152D01*
X187312Y29836D01*
X185859Y33342D01*
X185859Y37138D01*
X187312Y40644D01*
X189996Y43328D01*
X193502Y44781D01*
X197298Y44781D01*
X200804Y43328D01*
X203488Y40644D01*
X204941Y37138D01*
X204941Y33342D01*
X203488Y29836D01*
X200804Y27152D01*
X197298Y25699D01*
X193502Y25699D01*
G37*
%LPD*%
%LPC*%
G36*
X218902Y25699D02*
X218902Y25699D01*
X215396Y27152D01*
X212712Y29836D01*
X211259Y33342D01*
X211259Y37138D01*
X212712Y40644D01*
X215396Y43328D01*
X218902Y44781D01*
X222698Y44781D01*
X226204Y43328D01*
X228888Y40644D01*
X230341Y37138D01*
X230341Y33342D01*
X228888Y29836D01*
X226204Y27152D01*
X222698Y25699D01*
X218902Y25699D01*
G37*
%LPD*%
%LPC*%
G36*
X244302Y25699D02*
X244302Y25699D01*
X240796Y27152D01*
X238112Y29836D01*
X236659Y33342D01*
X236659Y37138D01*
X238112Y40644D01*
X240796Y43328D01*
X244302Y44781D01*
X248098Y44781D01*
X251604Y43328D01*
X254288Y40644D01*
X255741Y37138D01*
X255741Y33342D01*
X254288Y29836D01*
X251604Y27152D01*
X248098Y25699D01*
X244302Y25699D01*
G37*
%LPD*%
%LPC*%
G36*
X269702Y25699D02*
X269702Y25699D01*
X266196Y27152D01*
X263512Y29836D01*
X262059Y33342D01*
X262059Y37138D01*
X263512Y40644D01*
X266196Y43328D01*
X269702Y44781D01*
X273498Y44781D01*
X277004Y43328D01*
X279688Y40644D01*
X281141Y37138D01*
X281141Y33342D01*
X279688Y29836D01*
X277004Y27152D01*
X273498Y25699D01*
X269702Y25699D01*
G37*
%LPD*%
%LPC*%
G36*
X295102Y25699D02*
X295102Y25699D01*
X291596Y27152D01*
X288912Y29836D01*
X287459Y33342D01*
X287459Y37138D01*
X288912Y40644D01*
X291596Y43328D01*
X295102Y44781D01*
X298898Y44781D01*
X302404Y43328D01*
X305088Y40644D01*
X306541Y37138D01*
X306541Y33342D01*
X305088Y29836D01*
X302404Y27152D01*
X298898Y25699D01*
X295102Y25699D01*
G37*
%LPD*%
%LPC*%
G36*
X320502Y25699D02*
X320502Y25699D01*
X316996Y27152D01*
X314312Y29836D01*
X312859Y33342D01*
X312859Y37138D01*
X314312Y40644D01*
X316996Y43328D01*
X320502Y44781D01*
X324298Y44781D01*
X327804Y43328D01*
X330488Y40644D01*
X331941Y37138D01*
X331941Y33342D01*
X330488Y29836D01*
X327804Y27152D01*
X324298Y25699D01*
X320502Y25699D01*
G37*
%LPD*%
%LPC*%
G36*
X298657Y336936D02*
X298657Y336936D01*
X295436Y338270D01*
X292970Y340736D01*
X291636Y343957D01*
X291636Y347443D01*
X292970Y350664D01*
X295436Y353130D01*
X298657Y354464D01*
X302143Y354464D01*
X305364Y353130D01*
X307830Y350664D01*
X309164Y347443D01*
X309164Y343957D01*
X307830Y340736D01*
X305364Y338270D01*
X302143Y336936D01*
X298657Y336936D01*
G37*
%LPD*%
%LPC*%
G36*
X273257Y336936D02*
X273257Y336936D01*
X270036Y338270D01*
X267570Y340736D01*
X266236Y343957D01*
X266236Y347443D01*
X267570Y350664D01*
X270036Y353130D01*
X273257Y354464D01*
X276743Y354464D01*
X279964Y353130D01*
X282430Y350664D01*
X283764Y347443D01*
X283764Y343957D01*
X282430Y340736D01*
X279964Y338270D01*
X276743Y336936D01*
X273257Y336936D01*
G37*
%LPD*%
%LPC*%
G36*
X247857Y336936D02*
X247857Y336936D01*
X244636Y338270D01*
X242170Y340736D01*
X240836Y343957D01*
X240836Y347443D01*
X242170Y350664D01*
X244636Y353130D01*
X247857Y354464D01*
X251343Y354464D01*
X254564Y353130D01*
X257030Y350664D01*
X258364Y347443D01*
X258364Y343957D01*
X257030Y340736D01*
X254564Y338270D01*
X251343Y336936D01*
X247857Y336936D01*
G37*
%LPD*%
%LPC*%
G36*
X171657Y336936D02*
X171657Y336936D01*
X168436Y338270D01*
X165970Y340736D01*
X164636Y343957D01*
X164636Y347443D01*
X165970Y350664D01*
X168436Y353130D01*
X171657Y354464D01*
X175143Y354464D01*
X178364Y353130D01*
X180830Y350664D01*
X182164Y347443D01*
X182164Y343957D01*
X180830Y340736D01*
X178364Y338270D01*
X175143Y336936D01*
X171657Y336936D01*
G37*
%LPD*%
%LPC*%
G36*
X197057Y336936D02*
X197057Y336936D01*
X193836Y338270D01*
X191370Y340736D01*
X190036Y343957D01*
X190036Y347443D01*
X191370Y350664D01*
X193836Y353130D01*
X197057Y354464D01*
X200543Y354464D01*
X203764Y353130D01*
X206230Y350664D01*
X207564Y347443D01*
X207564Y343957D01*
X206230Y340736D01*
X203764Y338270D01*
X200543Y336936D01*
X197057Y336936D01*
G37*
%LPD*%
%LPC*%
G36*
X222457Y336936D02*
X222457Y336936D01*
X219236Y338270D01*
X216770Y340736D01*
X215436Y343957D01*
X215436Y347443D01*
X216770Y350664D01*
X219236Y353130D01*
X222457Y354464D01*
X225943Y354464D01*
X229164Y353130D01*
X231630Y350664D01*
X232964Y347443D01*
X232964Y343957D01*
X231630Y340736D01*
X229164Y338270D01*
X225943Y336936D01*
X222457Y336936D01*
G37*
%LPD*%
%LPC*%
G36*
X146257Y336936D02*
X146257Y336936D01*
X143036Y338270D01*
X140570Y340736D01*
X139236Y343957D01*
X139236Y347443D01*
X140570Y350664D01*
X143036Y353130D01*
X146257Y354464D01*
X149743Y354464D01*
X152964Y353130D01*
X155430Y350664D01*
X156764Y347443D01*
X156764Y343957D01*
X155430Y340736D01*
X152964Y338270D01*
X149743Y336936D01*
X146257Y336936D01*
G37*
%LPD*%
%LPC*%
G36*
X120857Y336936D02*
X120857Y336936D01*
X117636Y338270D01*
X115170Y340736D01*
X113836Y343957D01*
X113836Y347443D01*
X115170Y350664D01*
X117636Y353130D01*
X120857Y354464D01*
X124343Y354464D01*
X127564Y353130D01*
X130030Y350664D01*
X131364Y347443D01*
X131364Y343957D01*
X130030Y340736D01*
X127564Y338270D01*
X124343Y336936D01*
X120857Y336936D01*
G37*
%LPD*%
%LPC*%
G36*
X501857Y336936D02*
X501857Y336936D01*
X498636Y338270D01*
X496170Y340736D01*
X494836Y343957D01*
X494836Y347443D01*
X496170Y350664D01*
X498636Y353130D01*
X501857Y354464D01*
X505343Y354464D01*
X508564Y353130D01*
X511030Y350664D01*
X512364Y347443D01*
X512364Y343957D01*
X511030Y340736D01*
X508564Y338270D01*
X505343Y336936D01*
X501857Y336936D01*
G37*
%LPD*%
%LPC*%
G36*
X70057Y336936D02*
X70057Y336936D01*
X66836Y338270D01*
X64370Y340736D01*
X63036Y343957D01*
X63036Y347443D01*
X64370Y350664D01*
X66836Y353130D01*
X70057Y354464D01*
X73543Y354464D01*
X76764Y353130D01*
X79230Y350664D01*
X80564Y347443D01*
X80564Y343957D01*
X79230Y340736D01*
X76764Y338270D01*
X73543Y336936D01*
X70057Y336936D01*
G37*
%LPD*%
%LPC*%
G36*
X95457Y336936D02*
X95457Y336936D01*
X92236Y338270D01*
X89770Y340736D01*
X88436Y343957D01*
X88436Y347443D01*
X89770Y350664D01*
X92236Y353130D01*
X95457Y354464D01*
X98943Y354464D01*
X102164Y353130D01*
X104630Y350664D01*
X105964Y347443D01*
X105964Y343957D01*
X104630Y340736D01*
X102164Y338270D01*
X98943Y336936D01*
X95457Y336936D01*
G37*
%LPD*%
%LPC*%
G36*
X476457Y336936D02*
X476457Y336936D01*
X473236Y338270D01*
X470770Y340736D01*
X469436Y343957D01*
X469436Y347443D01*
X470770Y350664D01*
X473236Y353130D01*
X476457Y354464D01*
X479943Y354464D01*
X483164Y353130D01*
X485630Y350664D01*
X486964Y347443D01*
X486964Y343957D01*
X485630Y340736D01*
X483164Y338270D01*
X479943Y336936D01*
X476457Y336936D01*
G37*
%LPD*%
%LPC*%
G36*
X451057Y336936D02*
X451057Y336936D01*
X447836Y338270D01*
X445370Y340736D01*
X444036Y343957D01*
X444036Y347443D01*
X445370Y350664D01*
X447836Y353130D01*
X451057Y354464D01*
X454543Y354464D01*
X457764Y353130D01*
X460230Y350664D01*
X461564Y347443D01*
X461564Y343957D01*
X460230Y340736D01*
X457764Y338270D01*
X454543Y336936D01*
X451057Y336936D01*
G37*
%LPD*%
%LPC*%
G36*
X425657Y336936D02*
X425657Y336936D01*
X422436Y338270D01*
X419970Y340736D01*
X418636Y343957D01*
X418636Y347443D01*
X419970Y350664D01*
X422436Y353130D01*
X425657Y354464D01*
X429143Y354464D01*
X432364Y353130D01*
X434830Y350664D01*
X436164Y347443D01*
X436164Y343957D01*
X434830Y340736D01*
X432364Y338270D01*
X429143Y336936D01*
X425657Y336936D01*
G37*
%LPD*%
%LPC*%
G36*
X400257Y336936D02*
X400257Y336936D01*
X397036Y338270D01*
X394570Y340736D01*
X393236Y343957D01*
X393236Y347443D01*
X394570Y350664D01*
X397036Y353130D01*
X400257Y354464D01*
X403743Y354464D01*
X406964Y353130D01*
X409430Y350664D01*
X410764Y347443D01*
X410764Y343957D01*
X409430Y340736D01*
X406964Y338270D01*
X403743Y336936D01*
X400257Y336936D01*
G37*
%LPD*%
%LPC*%
G36*
X374857Y336936D02*
X374857Y336936D01*
X371636Y338270D01*
X369170Y340736D01*
X367836Y343957D01*
X367836Y347443D01*
X369170Y350664D01*
X371636Y353130D01*
X374857Y354464D01*
X378343Y354464D01*
X381564Y353130D01*
X384030Y350664D01*
X385364Y347443D01*
X385364Y343957D01*
X384030Y340736D01*
X381564Y338270D01*
X378343Y336936D01*
X374857Y336936D01*
G37*
%LPD*%
%LPC*%
G36*
X349457Y336936D02*
X349457Y336936D01*
X346236Y338270D01*
X343770Y340736D01*
X342436Y343957D01*
X342436Y347443D01*
X343770Y350664D01*
X346236Y353130D01*
X349457Y354464D01*
X352943Y354464D01*
X356164Y353130D01*
X358630Y350664D01*
X359964Y347443D01*
X359964Y343957D01*
X358630Y340736D01*
X356164Y338270D01*
X352943Y336936D01*
X349457Y336936D01*
G37*
%LPD*%
%LPC*%
G36*
X324057Y336936D02*
X324057Y336936D01*
X320836Y338270D01*
X318370Y340736D01*
X317036Y343957D01*
X317036Y347443D01*
X318370Y350664D01*
X320836Y353130D01*
X324057Y354464D01*
X327543Y354464D01*
X330764Y353130D01*
X333230Y350664D01*
X334564Y347443D01*
X334564Y343957D01*
X333230Y340736D01*
X330764Y338270D01*
X327543Y336936D01*
X324057Y336936D01*
G37*
%LPD*%
%LPC*%
G36*
X501857Y311536D02*
X501857Y311536D01*
X498636Y312870D01*
X496170Y315336D01*
X494836Y318557D01*
X494836Y322043D01*
X496170Y325264D01*
X498636Y327730D01*
X501857Y329064D01*
X505343Y329064D01*
X508564Y327730D01*
X511030Y325264D01*
X512364Y322043D01*
X512364Y318557D01*
X511030Y315336D01*
X508564Y312870D01*
X505343Y311536D01*
X501857Y311536D01*
G37*
%LPD*%
%LPC*%
G36*
X476457Y311536D02*
X476457Y311536D01*
X473236Y312870D01*
X470770Y315336D01*
X469436Y318557D01*
X469436Y322043D01*
X470770Y325264D01*
X473236Y327730D01*
X476457Y329064D01*
X479943Y329064D01*
X483164Y327730D01*
X485630Y325264D01*
X486964Y322043D01*
X486964Y318557D01*
X485630Y315336D01*
X483164Y312870D01*
X479943Y311536D01*
X476457Y311536D01*
G37*
%LPD*%
%LPC*%
G36*
X451057Y311536D02*
X451057Y311536D01*
X447836Y312870D01*
X445370Y315336D01*
X444036Y318557D01*
X444036Y322043D01*
X445370Y325264D01*
X447836Y327730D01*
X451057Y329064D01*
X454543Y329064D01*
X457764Y327730D01*
X460230Y325264D01*
X461564Y322043D01*
X461564Y318557D01*
X460230Y315336D01*
X457764Y312870D01*
X454543Y311536D01*
X451057Y311536D01*
G37*
%LPD*%
%LPC*%
G36*
X425657Y311536D02*
X425657Y311536D01*
X422436Y312870D01*
X419970Y315336D01*
X418636Y318557D01*
X418636Y322043D01*
X419970Y325264D01*
X422436Y327730D01*
X425657Y329064D01*
X429143Y329064D01*
X432364Y327730D01*
X434830Y325264D01*
X436164Y322043D01*
X436164Y318557D01*
X434830Y315336D01*
X432364Y312870D01*
X429143Y311536D01*
X425657Y311536D01*
G37*
%LPD*%
%LPC*%
G36*
X400257Y311536D02*
X400257Y311536D01*
X397036Y312870D01*
X394570Y315336D01*
X393236Y318557D01*
X393236Y322043D01*
X394570Y325264D01*
X397036Y327730D01*
X400257Y329064D01*
X403743Y329064D01*
X406964Y327730D01*
X409430Y325264D01*
X410764Y322043D01*
X410764Y318557D01*
X409430Y315336D01*
X406964Y312870D01*
X403743Y311536D01*
X400257Y311536D01*
G37*
%LPD*%
%LPC*%
G36*
X374857Y311536D02*
X374857Y311536D01*
X371636Y312870D01*
X369170Y315336D01*
X367836Y318557D01*
X367836Y322043D01*
X369170Y325264D01*
X371636Y327730D01*
X374857Y329064D01*
X378343Y329064D01*
X381564Y327730D01*
X384030Y325264D01*
X385364Y322043D01*
X385364Y318557D01*
X384030Y315336D01*
X381564Y312870D01*
X378343Y311536D01*
X374857Y311536D01*
G37*
%LPD*%
%LPC*%
G36*
X349457Y311536D02*
X349457Y311536D01*
X346236Y312870D01*
X343770Y315336D01*
X342436Y318557D01*
X342436Y322043D01*
X343770Y325264D01*
X346236Y327730D01*
X349457Y329064D01*
X352943Y329064D01*
X356164Y327730D01*
X358630Y325264D01*
X359964Y322043D01*
X359964Y318557D01*
X358630Y315336D01*
X356164Y312870D01*
X352943Y311536D01*
X349457Y311536D01*
G37*
%LPD*%
%LPC*%
G36*
X324057Y311536D02*
X324057Y311536D01*
X320836Y312870D01*
X318370Y315336D01*
X317036Y318557D01*
X317036Y322043D01*
X318370Y325264D01*
X320836Y327730D01*
X324057Y329064D01*
X327543Y329064D01*
X330764Y327730D01*
X333230Y325264D01*
X334564Y322043D01*
X334564Y318557D01*
X333230Y315336D01*
X330764Y312870D01*
X327543Y311536D01*
X324057Y311536D01*
G37*
%LPD*%
%LPC*%
G36*
X298657Y311536D02*
X298657Y311536D01*
X295436Y312870D01*
X292970Y315336D01*
X291636Y318557D01*
X291636Y322043D01*
X292970Y325264D01*
X295436Y327730D01*
X298657Y329064D01*
X302143Y329064D01*
X305364Y327730D01*
X307830Y325264D01*
X309164Y322043D01*
X309164Y318557D01*
X307830Y315336D01*
X305364Y312870D01*
X302143Y311536D01*
X298657Y311536D01*
G37*
%LPD*%
%LPC*%
G36*
X247857Y311536D02*
X247857Y311536D01*
X244636Y312870D01*
X242170Y315336D01*
X240836Y318557D01*
X240836Y322043D01*
X242170Y325264D01*
X244636Y327730D01*
X247857Y329064D01*
X251343Y329064D01*
X254564Y327730D01*
X257030Y325264D01*
X258364Y322043D01*
X258364Y318557D01*
X257030Y315336D01*
X254564Y312870D01*
X251343Y311536D01*
X247857Y311536D01*
G37*
%LPD*%
%LPC*%
G36*
X222457Y311536D02*
X222457Y311536D01*
X219236Y312870D01*
X216770Y315336D01*
X215436Y318557D01*
X215436Y322043D01*
X216770Y325264D01*
X219236Y327730D01*
X222457Y329064D01*
X225943Y329064D01*
X229164Y327730D01*
X231630Y325264D01*
X232964Y322043D01*
X232964Y318557D01*
X231630Y315336D01*
X229164Y312870D01*
X225943Y311536D01*
X222457Y311536D01*
G37*
%LPD*%
%LPC*%
G36*
X197057Y311536D02*
X197057Y311536D01*
X193836Y312870D01*
X191370Y315336D01*
X190036Y318557D01*
X190036Y322043D01*
X191370Y325264D01*
X193836Y327730D01*
X197057Y329064D01*
X200543Y329064D01*
X203764Y327730D01*
X206230Y325264D01*
X207564Y322043D01*
X207564Y318557D01*
X206230Y315336D01*
X203764Y312870D01*
X200543Y311536D01*
X197057Y311536D01*
G37*
%LPD*%
%LPC*%
G36*
X171657Y311536D02*
X171657Y311536D01*
X168436Y312870D01*
X165970Y315336D01*
X164636Y318557D01*
X164636Y322043D01*
X165970Y325264D01*
X168436Y327730D01*
X171657Y329064D01*
X175143Y329064D01*
X178364Y327730D01*
X180830Y325264D01*
X182164Y322043D01*
X182164Y318557D01*
X180830Y315336D01*
X178364Y312870D01*
X175143Y311536D01*
X171657Y311536D01*
G37*
%LPD*%
%LPC*%
G36*
X146257Y311536D02*
X146257Y311536D01*
X143036Y312870D01*
X140570Y315336D01*
X139236Y318557D01*
X139236Y322043D01*
X140570Y325264D01*
X143036Y327730D01*
X146257Y329064D01*
X149743Y329064D01*
X152964Y327730D01*
X155430Y325264D01*
X156764Y322043D01*
X156764Y318557D01*
X155430Y315336D01*
X152964Y312870D01*
X149743Y311536D01*
X146257Y311536D01*
G37*
%LPD*%
%LPC*%
G36*
X120857Y311536D02*
X120857Y311536D01*
X117636Y312870D01*
X115170Y315336D01*
X113836Y318557D01*
X113836Y322043D01*
X115170Y325264D01*
X117636Y327730D01*
X120857Y329064D01*
X124343Y329064D01*
X127564Y327730D01*
X130030Y325264D01*
X131364Y322043D01*
X131364Y318557D01*
X130030Y315336D01*
X127564Y312870D01*
X124343Y311536D01*
X120857Y311536D01*
G37*
%LPD*%
%LPC*%
G36*
X95457Y311536D02*
X95457Y311536D01*
X92236Y312870D01*
X89770Y315336D01*
X88436Y318557D01*
X88436Y322043D01*
X89770Y325264D01*
X92236Y327730D01*
X95457Y329064D01*
X98943Y329064D01*
X102164Y327730D01*
X104630Y325264D01*
X105964Y322043D01*
X105964Y318557D01*
X104630Y315336D01*
X102164Y312870D01*
X98943Y311536D01*
X95457Y311536D01*
G37*
%LPD*%
%LPC*%
G36*
X70057Y311536D02*
X70057Y311536D01*
X66836Y312870D01*
X64370Y315336D01*
X63036Y318557D01*
X63036Y322043D01*
X64370Y325264D01*
X66836Y327730D01*
X70057Y329064D01*
X73543Y329064D01*
X76764Y327730D01*
X79230Y325264D01*
X80564Y322043D01*
X80564Y318557D01*
X79230Y315336D01*
X76764Y312870D01*
X73543Y311536D01*
X70057Y311536D01*
G37*
%LPD*%
%LPC*%
G36*
X400257Y57536D02*
X400257Y57536D01*
X397036Y58870D01*
X394570Y61336D01*
X393236Y64557D01*
X393236Y68043D01*
X394570Y71264D01*
X397036Y73730D01*
X400257Y75064D01*
X403743Y75064D01*
X406964Y73730D01*
X409430Y71264D01*
X410764Y68043D01*
X410764Y64557D01*
X409430Y61336D01*
X406964Y58870D01*
X403743Y57536D01*
X400257Y57536D01*
G37*
%LPD*%
%LPC*%
G36*
X374857Y57536D02*
X374857Y57536D01*
X371636Y58870D01*
X369170Y61336D01*
X367836Y64557D01*
X367836Y68043D01*
X369170Y71264D01*
X371636Y73730D01*
X374857Y75064D01*
X378343Y75064D01*
X381564Y73730D01*
X384030Y71264D01*
X385364Y68043D01*
X385364Y64557D01*
X384030Y61336D01*
X381564Y58870D01*
X378343Y57536D01*
X374857Y57536D01*
G37*
%LPD*%
%LPC*%
G36*
X95457Y57536D02*
X95457Y57536D01*
X92236Y58870D01*
X89770Y61336D01*
X88436Y64557D01*
X88436Y68043D01*
X89770Y71264D01*
X92236Y73730D01*
X95457Y75064D01*
X98943Y75064D01*
X102164Y73730D01*
X104630Y71264D01*
X105964Y68043D01*
X105964Y64557D01*
X104630Y61336D01*
X102164Y58870D01*
X98943Y57536D01*
X95457Y57536D01*
G37*
%LPD*%
%LPC*%
G36*
X70057Y57536D02*
X70057Y57536D01*
X66836Y58870D01*
X64370Y61336D01*
X63036Y64557D01*
X63036Y68043D01*
X64370Y71264D01*
X66836Y73730D01*
X70057Y75064D01*
X73543Y75064D01*
X76764Y73730D01*
X79230Y71264D01*
X80564Y68043D01*
X80564Y64557D01*
X79230Y61336D01*
X76764Y58870D01*
X73543Y57536D01*
X70057Y57536D01*
G37*
%LPD*%
%LPC*%
G36*
X516417Y283336D02*
X516417Y283336D01*
X513196Y284670D01*
X510730Y287136D01*
X509396Y290357D01*
X509396Y293843D01*
X510730Y297064D01*
X513196Y299530D01*
X516417Y300864D01*
X519903Y300864D01*
X523124Y299530D01*
X525590Y297064D01*
X526924Y293843D01*
X526924Y290357D01*
X525590Y287136D01*
X523124Y284670D01*
X519903Y283336D01*
X516417Y283336D01*
G37*
%LPD*%
%LPC*%
G36*
X430057Y283336D02*
X430057Y283336D01*
X426836Y284670D01*
X424370Y287136D01*
X423036Y290357D01*
X423036Y293843D01*
X424370Y297064D01*
X426836Y299530D01*
X430057Y300864D01*
X433543Y300864D01*
X436764Y299530D01*
X439230Y297064D01*
X440564Y293843D01*
X440564Y290357D01*
X439230Y287136D01*
X436764Y284670D01*
X433543Y283336D01*
X430057Y283336D01*
G37*
%LPD*%
%LPC*%
G36*
X338617Y283336D02*
X338617Y283336D01*
X335396Y284670D01*
X332930Y287136D01*
X331596Y290357D01*
X331596Y293843D01*
X332930Y297064D01*
X335396Y299530D01*
X338617Y300864D01*
X342103Y300864D01*
X345324Y299530D01*
X347790Y297064D01*
X349124Y293843D01*
X349124Y290357D01*
X347790Y287136D01*
X345324Y284670D01*
X342103Y283336D01*
X338617Y283336D01*
G37*
%LPD*%
%LPC*%
G36*
X252257Y283336D02*
X252257Y283336D01*
X249036Y284670D01*
X246570Y287136D01*
X245236Y290357D01*
X245236Y293843D01*
X246570Y297064D01*
X249036Y299530D01*
X252257Y300864D01*
X255743Y300864D01*
X258964Y299530D01*
X261430Y297064D01*
X262764Y293843D01*
X262764Y290357D01*
X261430Y287136D01*
X258964Y284670D01*
X255743Y283336D01*
X252257Y283336D01*
G37*
%LPD*%
%LPC*%
G36*
X165897Y283336D02*
X165897Y283336D01*
X162676Y284670D01*
X160210Y287136D01*
X158876Y290357D01*
X158876Y293843D01*
X160210Y297064D01*
X162676Y299530D01*
X165897Y300864D01*
X169383Y300864D01*
X172604Y299530D01*
X175070Y297064D01*
X176404Y293843D01*
X176404Y290357D01*
X175070Y287136D01*
X172604Y284670D01*
X169383Y283336D01*
X165897Y283336D01*
G37*
%LPD*%
%LPC*%
G36*
X451057Y57536D02*
X451057Y57536D01*
X447836Y58870D01*
X445370Y61336D01*
X444036Y64557D01*
X444036Y68043D01*
X445370Y71264D01*
X447836Y73730D01*
X451057Y75064D01*
X454543Y75064D01*
X457764Y73730D01*
X460230Y71264D01*
X461564Y68043D01*
X461564Y64557D01*
X460230Y61336D01*
X457764Y58870D01*
X454543Y57536D01*
X451057Y57536D01*
G37*
%LPD*%
%LPC*%
G36*
X298657Y82936D02*
X298657Y82936D01*
X295436Y84270D01*
X292970Y86736D01*
X291636Y89957D01*
X291636Y93443D01*
X292970Y96664D01*
X295436Y99130D01*
X298657Y100464D01*
X302143Y100464D01*
X305364Y99130D01*
X307830Y96664D01*
X309164Y93443D01*
X309164Y89957D01*
X307830Y86736D01*
X305364Y84270D01*
X302143Y82936D01*
X298657Y82936D01*
G37*
%LPD*%
%LPC*%
G36*
X273257Y82936D02*
X273257Y82936D01*
X270036Y84270D01*
X267570Y86736D01*
X266236Y89957D01*
X266236Y93443D01*
X267570Y96664D01*
X270036Y99130D01*
X273257Y100464D01*
X276743Y100464D01*
X279964Y99130D01*
X282430Y96664D01*
X283764Y93443D01*
X283764Y89957D01*
X282430Y86736D01*
X279964Y84270D01*
X276743Y82936D01*
X273257Y82936D01*
G37*
%LPD*%
%LPC*%
G36*
X247857Y82936D02*
X247857Y82936D01*
X244636Y84270D01*
X242170Y86736D01*
X240836Y89957D01*
X240836Y93443D01*
X242170Y96664D01*
X244636Y99130D01*
X247857Y100464D01*
X251343Y100464D01*
X254564Y99130D01*
X257030Y96664D01*
X258364Y93443D01*
X258364Y89957D01*
X257030Y86736D01*
X254564Y84270D01*
X251343Y82936D01*
X247857Y82936D01*
G37*
%LPD*%
%LPC*%
G36*
X222457Y82936D02*
X222457Y82936D01*
X219236Y84270D01*
X216770Y86736D01*
X215436Y89957D01*
X215436Y93443D01*
X216770Y96664D01*
X219236Y99130D01*
X222457Y100464D01*
X225943Y100464D01*
X229164Y99130D01*
X231630Y96664D01*
X232964Y93443D01*
X232964Y89957D01*
X231630Y86736D01*
X229164Y84270D01*
X225943Y82936D01*
X222457Y82936D01*
G37*
%LPD*%
%LPC*%
G36*
X197057Y82936D02*
X197057Y82936D01*
X193836Y84270D01*
X191370Y86736D01*
X190036Y89957D01*
X190036Y93443D01*
X191370Y96664D01*
X193836Y99130D01*
X197057Y100464D01*
X200543Y100464D01*
X203764Y99130D01*
X206230Y96664D01*
X207564Y93443D01*
X207564Y89957D01*
X206230Y86736D01*
X203764Y84270D01*
X200543Y82936D01*
X197057Y82936D01*
G37*
%LPD*%
%LPC*%
G36*
X171657Y82936D02*
X171657Y82936D01*
X168436Y84270D01*
X165970Y86736D01*
X164636Y89957D01*
X164636Y93443D01*
X165970Y96664D01*
X168436Y99130D01*
X171657Y100464D01*
X175143Y100464D01*
X178364Y99130D01*
X180830Y96664D01*
X182164Y93443D01*
X182164Y89957D01*
X180830Y86736D01*
X178364Y84270D01*
X175143Y82936D01*
X171657Y82936D01*
G37*
%LPD*%
%LPC*%
G36*
X146257Y82936D02*
X146257Y82936D01*
X143036Y84270D01*
X140570Y86736D01*
X139236Y89957D01*
X139236Y93443D01*
X140570Y96664D01*
X143036Y99130D01*
X146257Y100464D01*
X149743Y100464D01*
X152964Y99130D01*
X155430Y96664D01*
X156764Y93443D01*
X156764Y89957D01*
X155430Y86736D01*
X152964Y84270D01*
X149743Y82936D01*
X146257Y82936D01*
G37*
%LPD*%
%LPC*%
G36*
X120857Y82936D02*
X120857Y82936D01*
X117636Y84270D01*
X115170Y86736D01*
X113836Y89957D01*
X113836Y93443D01*
X115170Y96664D01*
X117636Y99130D01*
X120857Y100464D01*
X124343Y100464D01*
X127564Y99130D01*
X130030Y96664D01*
X131364Y93443D01*
X131364Y89957D01*
X130030Y86736D01*
X127564Y84270D01*
X124343Y82936D01*
X120857Y82936D01*
G37*
%LPD*%
%LPC*%
G36*
X95457Y82936D02*
X95457Y82936D01*
X92236Y84270D01*
X89770Y86736D01*
X88436Y89957D01*
X88436Y93443D01*
X89770Y96664D01*
X92236Y99130D01*
X95457Y100464D01*
X98943Y100464D01*
X102164Y99130D01*
X104630Y96664D01*
X105964Y93443D01*
X105964Y89957D01*
X104630Y86736D01*
X102164Y84270D01*
X98943Y82936D01*
X95457Y82936D01*
G37*
%LPD*%
%LPC*%
G36*
X70057Y82936D02*
X70057Y82936D01*
X66836Y84270D01*
X64370Y86736D01*
X63036Y89957D01*
X63036Y93443D01*
X64370Y96664D01*
X66836Y99130D01*
X70057Y100464D01*
X73543Y100464D01*
X76764Y99130D01*
X79230Y96664D01*
X80564Y93443D01*
X80564Y89957D01*
X79230Y86736D01*
X76764Y84270D01*
X73543Y82936D01*
X70057Y82936D01*
G37*
%LPD*%
%LPC*%
G36*
X501857Y82936D02*
X501857Y82936D01*
X498636Y84270D01*
X496170Y86736D01*
X494836Y89957D01*
X494836Y93443D01*
X496170Y96664D01*
X498636Y99130D01*
X501857Y100464D01*
X505343Y100464D01*
X508564Y99130D01*
X511030Y96664D01*
X512364Y93443D01*
X512364Y89957D01*
X511030Y86736D01*
X508564Y84270D01*
X505343Y82936D01*
X501857Y82936D01*
G37*
%LPD*%
%LPC*%
G36*
X476457Y82936D02*
X476457Y82936D01*
X473236Y84270D01*
X470770Y86736D01*
X469436Y89957D01*
X469436Y93443D01*
X470770Y96664D01*
X473236Y99130D01*
X476457Y100464D01*
X479943Y100464D01*
X483164Y99130D01*
X485630Y96664D01*
X486964Y93443D01*
X486964Y89957D01*
X485630Y86736D01*
X483164Y84270D01*
X479943Y82936D01*
X476457Y82936D01*
G37*
%LPD*%
%LPC*%
G36*
X451057Y82936D02*
X451057Y82936D01*
X447836Y84270D01*
X445370Y86736D01*
X444036Y89957D01*
X444036Y93443D01*
X445370Y96664D01*
X447836Y99130D01*
X451057Y100464D01*
X454543Y100464D01*
X457764Y99130D01*
X460230Y96664D01*
X461564Y93443D01*
X461564Y89957D01*
X460230Y86736D01*
X457764Y84270D01*
X454543Y82936D01*
X451057Y82936D01*
G37*
%LPD*%
%LPC*%
G36*
X425657Y82936D02*
X425657Y82936D01*
X422436Y84270D01*
X419970Y86736D01*
X418636Y89957D01*
X418636Y93443D01*
X419970Y96664D01*
X422436Y99130D01*
X425657Y100464D01*
X429143Y100464D01*
X432364Y99130D01*
X434830Y96664D01*
X436164Y93443D01*
X436164Y89957D01*
X434830Y86736D01*
X432364Y84270D01*
X429143Y82936D01*
X425657Y82936D01*
G37*
%LPD*%
%LPC*%
G36*
X400257Y82936D02*
X400257Y82936D01*
X397036Y84270D01*
X394570Y86736D01*
X393236Y89957D01*
X393236Y93443D01*
X394570Y96664D01*
X397036Y99130D01*
X400257Y100464D01*
X403743Y100464D01*
X406964Y99130D01*
X409430Y96664D01*
X410764Y93443D01*
X410764Y89957D01*
X409430Y86736D01*
X406964Y84270D01*
X403743Y82936D01*
X400257Y82936D01*
G37*
%LPD*%
%LPC*%
G36*
X349457Y82936D02*
X349457Y82936D01*
X346236Y84270D01*
X343770Y86736D01*
X342436Y89957D01*
X342436Y93443D01*
X343770Y96664D01*
X346236Y99130D01*
X349457Y100464D01*
X352943Y100464D01*
X356164Y99130D01*
X358630Y96664D01*
X359964Y93443D01*
X359964Y89957D01*
X358630Y86736D01*
X356164Y84270D01*
X352943Y82936D01*
X349457Y82936D01*
G37*
%LPD*%
%LPC*%
G36*
X324057Y82936D02*
X324057Y82936D01*
X320836Y84270D01*
X318370Y86736D01*
X317036Y89957D01*
X317036Y93443D01*
X318370Y96664D01*
X320836Y99130D01*
X324057Y100464D01*
X327543Y100464D01*
X330764Y99130D01*
X333230Y96664D01*
X334564Y93443D01*
X334564Y89957D01*
X333230Y86736D01*
X330764Y84270D01*
X327543Y82936D01*
X324057Y82936D01*
G37*
%LPD*%
%LPC*%
G36*
X349457Y57536D02*
X349457Y57536D01*
X346236Y58870D01*
X343770Y61336D01*
X342436Y64557D01*
X342436Y68043D01*
X343770Y71264D01*
X346236Y73730D01*
X349457Y75064D01*
X352943Y75064D01*
X356164Y73730D01*
X358630Y71264D01*
X359964Y68043D01*
X359964Y64557D01*
X358630Y61336D01*
X356164Y58870D01*
X352943Y57536D01*
X349457Y57536D01*
G37*
%LPD*%
%LPC*%
G36*
X247857Y57536D02*
X247857Y57536D01*
X244636Y58870D01*
X242170Y61336D01*
X240836Y64557D01*
X240836Y68043D01*
X242170Y71264D01*
X244636Y73730D01*
X247857Y75064D01*
X251343Y75064D01*
X254564Y73730D01*
X257030Y71264D01*
X258364Y68043D01*
X258364Y64557D01*
X257030Y61336D01*
X254564Y58870D01*
X251343Y57536D01*
X247857Y57536D01*
G37*
%LPD*%
%LPC*%
G36*
X273257Y57536D02*
X273257Y57536D01*
X270036Y58870D01*
X267570Y61336D01*
X266236Y64557D01*
X266236Y68043D01*
X267570Y71264D01*
X270036Y73730D01*
X273257Y75064D01*
X276743Y75064D01*
X279964Y73730D01*
X282430Y71264D01*
X283764Y68043D01*
X283764Y64557D01*
X282430Y61336D01*
X279964Y58870D01*
X276743Y57536D01*
X273257Y57536D01*
G37*
%LPD*%
%LPC*%
G36*
X298657Y57536D02*
X298657Y57536D01*
X295436Y58870D01*
X292970Y61336D01*
X291636Y64557D01*
X291636Y68043D01*
X292970Y71264D01*
X295436Y73730D01*
X298657Y75064D01*
X302143Y75064D01*
X305364Y73730D01*
X307830Y71264D01*
X309164Y68043D01*
X309164Y64557D01*
X307830Y61336D01*
X305364Y58870D01*
X302143Y57536D01*
X298657Y57536D01*
G37*
%LPD*%
%LPC*%
G36*
X324057Y57536D02*
X324057Y57536D01*
X320836Y58870D01*
X318370Y61336D01*
X317036Y64557D01*
X317036Y68043D01*
X318370Y71264D01*
X320836Y73730D01*
X324057Y75064D01*
X327543Y75064D01*
X330764Y73730D01*
X333230Y71264D01*
X334564Y68043D01*
X334564Y64557D01*
X333230Y61336D01*
X330764Y58870D01*
X327543Y57536D01*
X324057Y57536D01*
G37*
%LPD*%
%LPC*%
G36*
X222457Y57536D02*
X222457Y57536D01*
X219236Y58870D01*
X216770Y61336D01*
X215436Y64557D01*
X215436Y68043D01*
X216770Y71264D01*
X219236Y73730D01*
X222457Y75064D01*
X225943Y75064D01*
X229164Y73730D01*
X231630Y71264D01*
X232964Y68043D01*
X232964Y64557D01*
X231630Y61336D01*
X229164Y58870D01*
X225943Y57536D01*
X222457Y57536D01*
G37*
%LPD*%
%LPC*%
G36*
X120857Y57536D02*
X120857Y57536D01*
X117636Y58870D01*
X115170Y61336D01*
X113836Y64557D01*
X113836Y68043D01*
X115170Y71264D01*
X117636Y73730D01*
X120857Y75064D01*
X124343Y75064D01*
X127564Y73730D01*
X130030Y71264D01*
X131364Y68043D01*
X131364Y64557D01*
X130030Y61336D01*
X127564Y58870D01*
X124343Y57536D01*
X120857Y57536D01*
G37*
%LPD*%
%LPC*%
G36*
X146257Y57536D02*
X146257Y57536D01*
X143036Y58870D01*
X140570Y61336D01*
X139236Y64557D01*
X139236Y68043D01*
X140570Y71264D01*
X143036Y73730D01*
X146257Y75064D01*
X149743Y75064D01*
X152964Y73730D01*
X155430Y71264D01*
X156764Y68043D01*
X156764Y64557D01*
X155430Y61336D01*
X152964Y58870D01*
X149743Y57536D01*
X146257Y57536D01*
G37*
%LPD*%
%LPC*%
G36*
X171657Y57536D02*
X171657Y57536D01*
X168436Y58870D01*
X165970Y61336D01*
X164636Y64557D01*
X164636Y68043D01*
X165970Y71264D01*
X168436Y73730D01*
X171657Y75064D01*
X175143Y75064D01*
X178364Y73730D01*
X180830Y71264D01*
X182164Y68043D01*
X182164Y64557D01*
X180830Y61336D01*
X178364Y58870D01*
X175143Y57536D01*
X171657Y57536D01*
G37*
%LPD*%
%LPC*%
G36*
X197057Y57536D02*
X197057Y57536D01*
X193836Y58870D01*
X191370Y61336D01*
X190036Y64557D01*
X190036Y68043D01*
X191370Y71264D01*
X193836Y73730D01*
X197057Y75064D01*
X200543Y75064D01*
X203764Y73730D01*
X206230Y71264D01*
X207564Y68043D01*
X207564Y64557D01*
X206230Y61336D01*
X203764Y58870D01*
X200543Y57536D01*
X197057Y57536D01*
G37*
%LPD*%
%LPC*%
G36*
X501857Y57536D02*
X501857Y57536D01*
X498636Y58870D01*
X496170Y61336D01*
X494836Y64557D01*
X494836Y68043D01*
X496170Y71264D01*
X498636Y73730D01*
X501857Y75064D01*
X505343Y75064D01*
X508564Y73730D01*
X511030Y71264D01*
X512364Y68043D01*
X512364Y64557D01*
X511030Y61336D01*
X508564Y58870D01*
X505343Y57536D01*
X501857Y57536D01*
G37*
%LPD*%
%LPC*%
G36*
X476457Y57536D02*
X476457Y57536D01*
X473236Y58870D01*
X470770Y61336D01*
X469436Y64557D01*
X469436Y68043D01*
X470770Y71264D01*
X473236Y73730D01*
X476457Y75064D01*
X479943Y75064D01*
X483164Y73730D01*
X485630Y71264D01*
X486964Y68043D01*
X486964Y64557D01*
X485630Y61336D01*
X483164Y58870D01*
X479943Y57536D01*
X476457Y57536D01*
G37*
%LPD*%
%LPC*%
G36*
X374857Y82936D02*
X374857Y82936D01*
X371636Y84270D01*
X369170Y86736D01*
X367836Y89957D01*
X367836Y93443D01*
X369170Y96664D01*
X371636Y99130D01*
X374857Y100464D01*
X378343Y100464D01*
X381564Y99130D01*
X384030Y96664D01*
X385364Y93443D01*
X385364Y89957D01*
X384030Y86736D01*
X381564Y84270D01*
X378343Y82936D01*
X374857Y82936D01*
G37*
%LPD*%
%LPC*%
G36*
X425657Y57536D02*
X425657Y57536D01*
X422436Y58870D01*
X419970Y61336D01*
X418636Y64557D01*
X418636Y68043D01*
X419970Y71264D01*
X422436Y73730D01*
X425657Y75064D01*
X429143Y75064D01*
X432364Y73730D01*
X434830Y71264D01*
X436164Y68043D01*
X436164Y64557D01*
X434830Y61336D01*
X432364Y58870D01*
X429143Y57536D01*
X425657Y57536D01*
G37*
%LPD*%
%LPC*%
G36*
X128383Y255805D02*
X128383Y255805D01*
X126246Y256690D01*
X124610Y258326D01*
X123725Y260463D01*
X123725Y262777D01*
X124610Y264914D01*
X126246Y266550D01*
X128383Y267435D01*
X130697Y267435D01*
X132834Y266550D01*
X134470Y264914D01*
X135355Y262777D01*
X135355Y260463D01*
X134470Y258326D01*
X132834Y256690D01*
X130697Y255805D01*
X128383Y255805D01*
G37*
%LPD*%
%LPC*%
G36*
X57263Y111025D02*
X57263Y111025D01*
X55126Y111910D01*
X53490Y113546D01*
X52605Y115683D01*
X52605Y117997D01*
X53490Y120134D01*
X55126Y121770D01*
X57263Y122655D01*
X59577Y122655D01*
X61714Y121770D01*
X63350Y120134D01*
X64235Y117997D01*
X64235Y115683D01*
X63350Y113546D01*
X61714Y111910D01*
X59577Y111025D01*
X57263Y111025D01*
G37*
%LPD*%
%LPC*%
G36*
X481488Y256031D02*
X481488Y256031D01*
X479434Y256882D01*
X477862Y258454D01*
X477011Y260508D01*
X477011Y262732D01*
X477862Y264786D01*
X479434Y266358D01*
X481488Y267209D01*
X483712Y267209D01*
X485766Y266358D01*
X487338Y264786D01*
X488189Y262732D01*
X488189Y260508D01*
X487338Y258454D01*
X485766Y256882D01*
X483712Y256031D01*
X481488Y256031D01*
G37*
%LPD*%
%LPC*%
G36*
X395128Y256031D02*
X395128Y256031D01*
X393074Y256882D01*
X391502Y258454D01*
X390651Y260508D01*
X390651Y262732D01*
X391502Y264786D01*
X393074Y266358D01*
X395128Y267209D01*
X397352Y267209D01*
X399406Y266358D01*
X400978Y264786D01*
X401829Y262732D01*
X401829Y260508D01*
X400978Y258454D01*
X399406Y256882D01*
X397352Y256031D01*
X395128Y256031D01*
G37*
%LPD*%
%LPC*%
G36*
X303688Y256031D02*
X303688Y256031D01*
X301634Y256882D01*
X300062Y258454D01*
X299211Y260508D01*
X299211Y262732D01*
X300062Y264786D01*
X301634Y266358D01*
X303688Y267209D01*
X305912Y267209D01*
X307966Y266358D01*
X309538Y264786D01*
X310389Y262732D01*
X310389Y260508D01*
X309538Y258454D01*
X307966Y256882D01*
X305912Y256031D01*
X303688Y256031D01*
G37*
%LPD*%
%LPC*%
G36*
X218598Y256031D02*
X218598Y256031D01*
X216544Y256882D01*
X214972Y258454D01*
X214121Y260508D01*
X214121Y262732D01*
X214972Y264786D01*
X216544Y266358D01*
X218598Y267209D01*
X220822Y267209D01*
X222876Y266358D01*
X224448Y264786D01*
X225299Y262732D01*
X225299Y260508D01*
X224448Y258454D01*
X222876Y256882D01*
X220822Y256031D01*
X218598Y256031D01*
G37*
%LPD*%
%LPC*%
G36*
X277222Y322522D02*
X277222Y322522D01*
X277222Y328793D01*
X277556Y328727D01*
X279151Y328066D01*
X280587Y327107D01*
X281807Y325887D01*
X282766Y324451D01*
X283427Y322856D01*
X283493Y322522D01*
X277222Y322522D01*
G37*
%LPD*%
%LPC*%
G36*
X494982Y294322D02*
X494982Y294322D01*
X494982Y300593D01*
X495316Y300527D01*
X496911Y299866D01*
X498347Y298907D01*
X499567Y297687D01*
X500526Y296251D01*
X501187Y294656D01*
X501253Y294322D01*
X494982Y294322D01*
G37*
%LPD*%
%LPC*%
G36*
X408622Y294322D02*
X408622Y294322D01*
X408622Y300593D01*
X408956Y300527D01*
X410551Y299866D01*
X411987Y298907D01*
X413207Y297687D01*
X414166Y296251D01*
X414827Y294656D01*
X414893Y294322D01*
X408622Y294322D01*
G37*
%LPD*%
%LPC*%
G36*
X317182Y294322D02*
X317182Y294322D01*
X317182Y300593D01*
X317516Y300527D01*
X319111Y299866D01*
X320547Y298907D01*
X321767Y297687D01*
X322726Y296251D01*
X323387Y294656D01*
X323453Y294322D01*
X317182Y294322D01*
G37*
%LPD*%
%LPC*%
G36*
X230822Y294322D02*
X230822Y294322D01*
X230822Y300593D01*
X231156Y300527D01*
X232751Y299866D01*
X234187Y298907D01*
X235407Y297687D01*
X236366Y296251D01*
X237027Y294656D01*
X237093Y294322D01*
X230822Y294322D01*
G37*
%LPD*%
%LPC*%
G36*
X144462Y294322D02*
X144462Y294322D01*
X144462Y300593D01*
X144796Y300527D01*
X146391Y299866D01*
X147827Y298907D01*
X149047Y297687D01*
X150006Y296251D01*
X150667Y294656D01*
X150733Y294322D01*
X144462Y294322D01*
G37*
%LPD*%
%LPC*%
G36*
X266507Y322522D02*
X266507Y322522D01*
X266573Y322856D01*
X267234Y324451D01*
X268193Y325887D01*
X269413Y327107D01*
X270849Y328066D01*
X272444Y328727D01*
X272778Y328793D01*
X272778Y322522D01*
X266507Y322522D01*
G37*
%LPD*%
%LPC*%
G36*
X277222Y318078D02*
X277222Y318078D01*
X283493Y318078D01*
X283427Y317744D01*
X282766Y316149D01*
X281807Y314713D01*
X280587Y313493D01*
X279151Y312534D01*
X277556Y311873D01*
X277222Y311807D01*
X277222Y318078D01*
G37*
%LPD*%
%LPC*%
G36*
X133747Y294322D02*
X133747Y294322D01*
X133813Y294656D01*
X134474Y296251D01*
X135433Y297687D01*
X136653Y298907D01*
X138089Y299866D01*
X139684Y300527D01*
X140018Y300593D01*
X140018Y294322D01*
X133747Y294322D01*
G37*
%LPD*%
%LPC*%
G36*
X144462Y289878D02*
X144462Y289878D01*
X150733Y289878D01*
X150667Y289544D01*
X150006Y287949D01*
X149047Y286513D01*
X147827Y285293D01*
X146391Y284334D01*
X144796Y283673D01*
X144462Y283607D01*
X144462Y289878D01*
G37*
%LPD*%
%LPC*%
G36*
X494982Y289878D02*
X494982Y289878D01*
X501253Y289878D01*
X501187Y289544D01*
X500526Y287949D01*
X499567Y286513D01*
X498347Y285293D01*
X496911Y284334D01*
X495316Y283673D01*
X494982Y283607D01*
X494982Y289878D01*
G37*
%LPD*%
%LPC*%
G36*
X408622Y289878D02*
X408622Y289878D01*
X414893Y289878D01*
X414827Y289544D01*
X414166Y287949D01*
X413207Y286513D01*
X411987Y285293D01*
X410551Y284334D01*
X408956Y283673D01*
X408622Y283607D01*
X408622Y289878D01*
G37*
%LPD*%
%LPC*%
G36*
X317182Y289878D02*
X317182Y289878D01*
X323453Y289878D01*
X323387Y289544D01*
X322726Y287949D01*
X321767Y286513D01*
X320547Y285293D01*
X319111Y284334D01*
X317516Y283673D01*
X317182Y283607D01*
X317182Y289878D01*
G37*
%LPD*%
%LPC*%
G36*
X230822Y289878D02*
X230822Y289878D01*
X237093Y289878D01*
X237027Y289544D01*
X236366Y287949D01*
X235407Y286513D01*
X234187Y285293D01*
X232751Y284334D01*
X231156Y283673D01*
X230822Y283607D01*
X230822Y289878D01*
G37*
%LPD*%
%LPC*%
G36*
X484267Y294322D02*
X484267Y294322D01*
X484333Y294656D01*
X484994Y296251D01*
X485953Y297687D01*
X487173Y298907D01*
X488609Y299866D01*
X490204Y300527D01*
X490538Y300593D01*
X490538Y294322D01*
X484267Y294322D01*
G37*
%LPD*%
%LPC*%
G36*
X397907Y294322D02*
X397907Y294322D01*
X397973Y294656D01*
X398634Y296251D01*
X399593Y297687D01*
X400813Y298907D01*
X402249Y299866D01*
X403844Y300527D01*
X404178Y300593D01*
X404178Y294322D01*
X397907Y294322D01*
G37*
%LPD*%
%LPC*%
G36*
X306467Y294322D02*
X306467Y294322D01*
X306533Y294656D01*
X307194Y296251D01*
X308153Y297687D01*
X309373Y298907D01*
X310809Y299866D01*
X312404Y300527D01*
X312738Y300593D01*
X312738Y294322D01*
X306467Y294322D01*
G37*
%LPD*%
%LPC*%
G36*
X220107Y294322D02*
X220107Y294322D01*
X220173Y294656D01*
X220834Y296251D01*
X221793Y297687D01*
X223013Y298907D01*
X224449Y299866D01*
X226044Y300527D01*
X226378Y300593D01*
X226378Y294322D01*
X220107Y294322D01*
G37*
%LPD*%
%LPC*%
G36*
X272444Y311873D02*
X272444Y311873D01*
X270849Y312534D01*
X269413Y313493D01*
X268193Y314713D01*
X267234Y316149D01*
X266573Y317744D01*
X266507Y318078D01*
X272778Y318078D01*
X272778Y311807D01*
X272444Y311873D01*
G37*
%LPD*%
%LPC*%
G36*
X139684Y283673D02*
X139684Y283673D01*
X138089Y284334D01*
X136653Y285293D01*
X135433Y286513D01*
X134474Y287949D01*
X133813Y289544D01*
X133747Y289878D01*
X140018Y289878D01*
X140018Y283607D01*
X139684Y283673D01*
G37*
%LPD*%
%LPC*%
G36*
X403844Y283673D02*
X403844Y283673D01*
X402249Y284334D01*
X400813Y285293D01*
X399593Y286513D01*
X398634Y287949D01*
X397973Y289544D01*
X397907Y289878D01*
X404178Y289878D01*
X404178Y283607D01*
X403844Y283673D01*
G37*
%LPD*%
%LPC*%
G36*
X490204Y283673D02*
X490204Y283673D01*
X488609Y284334D01*
X487173Y285293D01*
X485953Y286513D01*
X484994Y287949D01*
X484333Y289544D01*
X484267Y289878D01*
X490538Y289878D01*
X490538Y283607D01*
X490204Y283673D01*
G37*
%LPD*%
%LPC*%
G36*
X312404Y283673D02*
X312404Y283673D01*
X310809Y284334D01*
X309373Y285293D01*
X308153Y286513D01*
X307194Y287949D01*
X306533Y289544D01*
X306467Y289878D01*
X312738Y289878D01*
X312738Y283607D01*
X312404Y283673D01*
G37*
%LPD*%
%LPC*%
G36*
X226044Y283673D02*
X226044Y283673D01*
X224449Y284334D01*
X223013Y285293D01*
X221793Y286513D01*
X220834Y287949D01*
X220173Y289544D01*
X220107Y289878D01*
X226378Y289878D01*
X226378Y283607D01*
X226044Y283673D01*
G37*
%LPD*%
D10*
X71800Y345700D03*
X71800Y320300D03*
X97200Y345700D03*
X97200Y320300D03*
X122600Y345700D03*
X122600Y320300D03*
X148000Y345700D03*
X148000Y320300D03*
X173400Y345700D03*
X173400Y320300D03*
X198800Y345700D03*
X198800Y320300D03*
X224200Y345700D03*
X224200Y320300D03*
X249600Y345700D03*
X249600Y320300D03*
X275000Y345700D03*
X275000Y320300D03*
X300400Y345700D03*
X300400Y320300D03*
X325800Y345700D03*
X325800Y320300D03*
X351200Y345700D03*
X351200Y320300D03*
X376600Y345700D03*
X376600Y320300D03*
X402000Y345700D03*
X402000Y320300D03*
X427400Y345700D03*
X427400Y320300D03*
X452800Y345700D03*
X452800Y320300D03*
X478200Y345700D03*
X478200Y320300D03*
X503600Y345700D03*
X503600Y320300D03*
X71800Y91700D03*
X71800Y66300D03*
X97200Y91700D03*
X97200Y66300D03*
X122600Y91700D03*
X122600Y66300D03*
X148000Y91700D03*
X148000Y66300D03*
X173400Y91700D03*
X173400Y66300D03*
X198800Y91700D03*
X198800Y66300D03*
X224200Y91700D03*
X224200Y66300D03*
X249600Y91700D03*
X249600Y66300D03*
X275000Y91700D03*
X275000Y66300D03*
X300400Y91700D03*
X300400Y66300D03*
X325800Y91700D03*
X325800Y66300D03*
X351200Y91700D03*
X351200Y66300D03*
X376600Y91700D03*
X376600Y66300D03*
X402000Y91700D03*
X402000Y66300D03*
X427400Y91700D03*
X427400Y66300D03*
X452800Y91700D03*
X452800Y66300D03*
X478200Y91700D03*
X478200Y66300D03*
X503600Y91700D03*
X503600Y66300D03*
X142240Y292100D03*
X167640Y292100D03*
D11*
X33020Y388620D03*
D12*
X322400Y35240D03*
X297000Y35240D03*
X271600Y35240D03*
X246200Y35240D03*
X220800Y35240D03*
X195400Y35240D03*
D10*
X228600Y292100D03*
X254000Y292100D03*
X314960Y292100D03*
X340360Y292100D03*
X406400Y292100D03*
X431800Y292100D03*
X492760Y292100D03*
X518160Y292100D03*
D11*
X33020Y30480D03*
X599440Y30480D03*
X601980Y386080D03*
D13*
X129540Y261620D03*
X58420Y116840D03*
D14*
X219710Y261620D03*
X304800Y261620D03*
X396240Y261620D03*
X482600Y261620D03*
M02*
