G04 EAGLE Gerber RS-274X export*
G75*
%MOMM*%
%FSLAX34Y34*%
%LPD*%
%INBottom Copper*%
%IPPOS*%
%AMOC8*
5,1,8,0,0,1.08239X$1,22.5*%
G01*
%ADD10R,1.524000X1.524000*%
%ADD11P,1.649562X8X22.500000*%
%ADD12R,1.651000X1.651000*%
%ADD13C,1.651000*%
%ADD14C,4.445000*%
%ADD15C,1.778000*%
%ADD16C,1.016000*%
%ADD17C,0.654800*%
%ADD18C,0.609600*%
%ADD19C,0.508000*%
%ADD20C,0.254000*%


D10*
X71800Y345700D03*
D11*
X71800Y320300D03*
X97200Y345700D03*
X97200Y320300D03*
X122600Y345700D03*
X122600Y320300D03*
X148000Y345700D03*
X148000Y320300D03*
X173400Y345700D03*
X173400Y320300D03*
X198800Y345700D03*
X198800Y320300D03*
X224200Y345700D03*
X224200Y320300D03*
X249600Y345700D03*
X249600Y320300D03*
X275000Y345700D03*
X275000Y320300D03*
X300400Y345700D03*
X300400Y320300D03*
X325800Y345700D03*
X325800Y320300D03*
X351200Y345700D03*
X351200Y320300D03*
X376600Y345700D03*
X376600Y320300D03*
X402000Y345700D03*
X402000Y320300D03*
X427400Y345700D03*
X427400Y320300D03*
X452800Y345700D03*
X452800Y320300D03*
X478200Y345700D03*
X478200Y320300D03*
X503600Y345700D03*
X503600Y320300D03*
D10*
X71800Y91700D03*
D11*
X71800Y66300D03*
X97200Y91700D03*
X97200Y66300D03*
X122600Y91700D03*
X122600Y66300D03*
X148000Y91700D03*
X148000Y66300D03*
X173400Y91700D03*
X173400Y66300D03*
X198800Y91700D03*
X198800Y66300D03*
X224200Y91700D03*
X224200Y66300D03*
X249600Y91700D03*
X249600Y66300D03*
X275000Y91700D03*
X275000Y66300D03*
X300400Y91700D03*
X300400Y66300D03*
X325800Y91700D03*
X325800Y66300D03*
X351200Y91700D03*
X351200Y66300D03*
X376600Y91700D03*
X376600Y66300D03*
X402000Y91700D03*
X402000Y66300D03*
X427400Y91700D03*
X427400Y66300D03*
X452800Y91700D03*
X452800Y66300D03*
X478200Y91700D03*
X478200Y66300D03*
X503600Y91700D03*
X503600Y66300D03*
D12*
X142240Y292100D03*
D13*
X167640Y292100D03*
D14*
X33020Y388620D03*
D15*
X322400Y35240D03*
X297000Y35240D03*
X271600Y35240D03*
X246200Y35240D03*
X220800Y35240D03*
X195400Y35240D03*
D12*
X228600Y292100D03*
D13*
X254000Y292100D03*
D12*
X314960Y292100D03*
D13*
X340360Y292100D03*
D12*
X406400Y292100D03*
D13*
X431800Y292100D03*
D12*
X492760Y292100D03*
D13*
X518160Y292100D03*
D14*
X33020Y30480D03*
X599440Y30480D03*
X601980Y386080D03*
D16*
X25400Y66040D03*
X25400Y347980D03*
X609600Y71120D03*
D17*
X129540Y261620D03*
X58420Y116840D03*
D18*
X219710Y261620D03*
X304800Y261620D03*
X396240Y261620D03*
X482600Y261620D03*
D19*
X358140Y313360D02*
X351200Y320300D01*
X358140Y225640D02*
X224200Y91700D01*
X358140Y225640D02*
X358140Y313360D01*
D20*
X220800Y50980D02*
X220800Y35240D01*
X210820Y60960D02*
X210820Y78740D01*
X209290Y80270D01*
X182636Y91700D02*
X173400Y91700D01*
X194066Y80270D02*
X209290Y80270D01*
X194066Y80270D02*
X182636Y91700D01*
X210820Y60960D02*
X220800Y50980D01*
M02*
