G04 EAGLE Gerber RS-274X export*
G75*
%MOMM*%
%FSLAX34Y34*%
%LPD*%
%INTop Copper*%
%IPPOS*%
%AMOC8*
5,1,8,0,0,1.08239X$1,22.5*%
G01*
%ADD10R,1.524000X1.524000*%
%ADD11P,1.649562X8X22.500000*%
%ADD12R,1.651000X1.651000*%
%ADD13C,1.651000*%
%ADD14R,0.949959X1.031241*%
%ADD15C,4.445000*%
%ADD16C,1.016000*%
%ADD17C,1.778000*%
%ADD18C,0.254000*%
%ADD19C,0.654800*%
%ADD20C,0.609600*%

G36*
X2546Y26743D02*
X2546Y26743D01*
X2544Y26700D01*
X2566Y26586D01*
X2581Y26471D01*
X2597Y26431D01*
X2605Y26387D01*
X2632Y26331D01*
X2546Y25344D01*
X2546Y25323D01*
X2541Y25234D01*
X2541Y23985D01*
X2536Y23968D01*
X2530Y23868D01*
X2527Y23848D01*
X2528Y23835D01*
X2526Y23807D01*
X2526Y21645D01*
X2537Y21560D01*
X2538Y21475D01*
X2565Y21340D01*
X2566Y21330D01*
X2568Y21326D01*
X2569Y21317D01*
X4334Y14730D01*
X4388Y14599D01*
X4437Y14468D01*
X4450Y14446D01*
X4455Y14435D01*
X4466Y14419D01*
X4521Y14330D01*
X8432Y8744D01*
X8527Y8640D01*
X8618Y8533D01*
X8638Y8517D01*
X8646Y8508D01*
X8662Y8497D01*
X8744Y8432D01*
X14330Y4521D01*
X14455Y4455D01*
X14577Y4386D01*
X14601Y4378D01*
X14611Y4372D01*
X14631Y4368D01*
X14730Y4334D01*
X21317Y2569D01*
X21402Y2558D01*
X21485Y2536D01*
X21621Y2528D01*
X21632Y2526D01*
X21636Y2527D01*
X21645Y2526D01*
X23807Y2526D01*
X23906Y2539D01*
X23970Y2541D01*
X25234Y2541D01*
X25255Y2543D01*
X25344Y2546D01*
X26318Y2631D01*
X26318Y2630D01*
X26430Y2602D01*
X26540Y2565D01*
X26584Y2562D01*
X26626Y2551D01*
X26787Y2541D01*
X607822Y2541D01*
X607920Y2553D01*
X608019Y2556D01*
X608077Y2573D01*
X608137Y2581D01*
X608229Y2617D01*
X608325Y2645D01*
X608377Y2675D01*
X608433Y2698D01*
X608513Y2756D01*
X608589Y2801D01*
X608613Y2805D01*
X608669Y2832D01*
X609656Y2746D01*
X609677Y2746D01*
X609766Y2741D01*
X611015Y2741D01*
X611032Y2736D01*
X611131Y2730D01*
X611151Y2727D01*
X611164Y2728D01*
X611193Y2726D01*
X613323Y2726D01*
X613408Y2737D01*
X613493Y2738D01*
X613627Y2765D01*
X613638Y2766D01*
X613642Y2768D01*
X613651Y2769D01*
X620176Y4518D01*
X620307Y4571D01*
X620438Y4620D01*
X620460Y4634D01*
X620471Y4638D01*
X620487Y4650D01*
X620576Y4704D01*
X626109Y8579D01*
X626214Y8674D01*
X626321Y8765D01*
X626337Y8785D01*
X626345Y8793D01*
X626356Y8809D01*
X626421Y8891D01*
X630296Y14424D01*
X630362Y14549D01*
X630431Y14671D01*
X630439Y14696D01*
X630444Y14706D01*
X630449Y14725D01*
X630482Y14824D01*
X632231Y21349D01*
X632242Y21434D01*
X632264Y21517D01*
X632272Y21653D01*
X632274Y21664D01*
X632273Y21668D01*
X632274Y21677D01*
X632274Y23809D01*
X632261Y23907D01*
X632259Y24001D01*
X632259Y25234D01*
X632257Y25255D01*
X632254Y25345D01*
X632169Y26317D01*
X632170Y26318D01*
X632199Y26431D01*
X632236Y26541D01*
X632239Y26584D01*
X632250Y26626D01*
X632260Y26787D01*
X632370Y228599D01*
X632459Y392314D01*
X632453Y392357D01*
X632456Y392402D01*
X632433Y392515D01*
X632419Y392629D01*
X632403Y392670D01*
X632394Y392714D01*
X632368Y392768D01*
X632455Y393757D01*
X632454Y393778D01*
X632459Y393866D01*
X632460Y395120D01*
X632464Y395133D01*
X632470Y395232D01*
X632473Y395252D01*
X632472Y395265D01*
X632474Y395294D01*
X632474Y397423D01*
X632463Y397508D01*
X632462Y397593D01*
X632451Y397647D01*
X632451Y397648D01*
X632435Y397727D01*
X632434Y397738D01*
X632432Y397742D01*
X632431Y397751D01*
X630682Y404276D01*
X630629Y404407D01*
X630580Y404538D01*
X630566Y404560D01*
X630562Y404571D01*
X630550Y404587D01*
X630496Y404676D01*
X626621Y410209D01*
X626526Y410314D01*
X626435Y410421D01*
X626415Y410437D01*
X626407Y410445D01*
X626391Y410456D01*
X626309Y410521D01*
X620776Y414396D01*
X620651Y414462D01*
X620529Y414531D01*
X620504Y414539D01*
X620494Y414544D01*
X620475Y414549D01*
X620376Y414582D01*
X613851Y416331D01*
X613766Y416342D01*
X613683Y416364D01*
X613547Y416372D01*
X613536Y416374D01*
X613532Y416373D01*
X613523Y416374D01*
X611393Y416374D01*
X611294Y416361D01*
X611225Y416359D01*
X609966Y416359D01*
X609945Y416357D01*
X609856Y416354D01*
X608882Y416269D01*
X608882Y416270D01*
X608770Y416298D01*
X608660Y416335D01*
X608616Y416338D01*
X608574Y416349D01*
X608413Y416359D01*
X601777Y416359D01*
X601773Y416359D01*
X600160Y416359D01*
X600159Y416359D01*
X598630Y416359D01*
X598622Y416360D01*
X26787Y416559D01*
X26743Y416553D01*
X26699Y416556D01*
X26586Y416534D01*
X26471Y416519D01*
X26430Y416503D01*
X26387Y416494D01*
X26332Y416468D01*
X25344Y416555D01*
X25322Y416554D01*
X25233Y416559D01*
X23982Y416560D01*
X23967Y416564D01*
X23869Y416570D01*
X23848Y416573D01*
X23836Y416572D01*
X23807Y416574D01*
X21645Y416574D01*
X21560Y416563D01*
X21475Y416562D01*
X21340Y416535D01*
X21330Y416534D01*
X21326Y416532D01*
X21317Y416531D01*
X14730Y414766D01*
X14599Y414712D01*
X14468Y414663D01*
X14446Y414650D01*
X14435Y414645D01*
X14419Y414634D01*
X14330Y414579D01*
X8744Y410668D01*
X8640Y410573D01*
X8533Y410482D01*
X8517Y410462D01*
X8508Y410454D01*
X8497Y410438D01*
X8432Y410356D01*
X4521Y404770D01*
X4455Y404645D01*
X4386Y404523D01*
X4378Y404499D01*
X4372Y404489D01*
X4368Y404469D01*
X4334Y404370D01*
X2569Y397783D01*
X2558Y397698D01*
X2536Y397615D01*
X2528Y397479D01*
X2526Y397468D01*
X2527Y397464D01*
X2526Y397455D01*
X2526Y395293D01*
X2539Y395194D01*
X2541Y395125D01*
X2541Y393866D01*
X2543Y393845D01*
X2546Y393756D01*
X2631Y392782D01*
X2630Y392782D01*
X2602Y392670D01*
X2565Y392560D01*
X2562Y392516D01*
X2551Y392474D01*
X2541Y392313D01*
X2541Y26787D01*
X2546Y26743D01*
G37*
%LPC*%
G36*
X63500Y359411D02*
X63500Y359411D01*
X63618Y359426D01*
X63737Y359433D01*
X63775Y359446D01*
X63816Y359451D01*
X63926Y359494D01*
X64039Y359531D01*
X64074Y359553D01*
X64111Y359568D01*
X64207Y359638D01*
X64308Y359701D01*
X64336Y359731D01*
X64369Y359754D01*
X64445Y359846D01*
X64526Y359933D01*
X64546Y359968D01*
X64571Y359999D01*
X64622Y360107D01*
X64680Y360211D01*
X64690Y360251D01*
X64707Y360287D01*
X64729Y360404D01*
X64759Y360519D01*
X64763Y360580D01*
X64767Y360600D01*
X64765Y360620D01*
X64769Y360680D01*
X64769Y405131D01*
X570231Y405131D01*
X570231Y358140D01*
X570246Y358022D01*
X570253Y357903D01*
X570266Y357865D01*
X570271Y357824D01*
X570314Y357714D01*
X570351Y357601D01*
X570373Y357566D01*
X570388Y357529D01*
X570458Y357433D01*
X570521Y357332D01*
X570551Y357304D01*
X570574Y357271D01*
X570666Y357196D01*
X570753Y357114D01*
X570788Y357094D01*
X570819Y357069D01*
X570927Y357018D01*
X571031Y356960D01*
X571071Y356950D01*
X571107Y356933D01*
X571224Y356911D01*
X571339Y356881D01*
X571400Y356877D01*
X571420Y356873D01*
X571440Y356875D01*
X571500Y356871D01*
X621031Y356871D01*
X621031Y59689D01*
X571500Y59689D01*
X571382Y59674D01*
X571263Y59667D01*
X571225Y59654D01*
X571184Y59649D01*
X571074Y59606D01*
X570961Y59569D01*
X570926Y59547D01*
X570889Y59532D01*
X570793Y59463D01*
X570692Y59399D01*
X570664Y59369D01*
X570631Y59346D01*
X570556Y59254D01*
X570474Y59167D01*
X570454Y59132D01*
X570429Y59101D01*
X570378Y58993D01*
X570320Y58889D01*
X570310Y58849D01*
X570293Y58813D01*
X570271Y58696D01*
X570241Y58581D01*
X570237Y58521D01*
X570233Y58501D01*
X570235Y58480D01*
X570231Y58420D01*
X570231Y13969D01*
X64769Y13969D01*
X64769Y55880D01*
X64754Y55998D01*
X64747Y56117D01*
X64734Y56155D01*
X64729Y56196D01*
X64686Y56306D01*
X64649Y56419D01*
X64627Y56454D01*
X64612Y56491D01*
X64543Y56587D01*
X64479Y56688D01*
X64449Y56716D01*
X64426Y56749D01*
X64334Y56825D01*
X64247Y56906D01*
X64212Y56926D01*
X64181Y56951D01*
X64073Y57002D01*
X63969Y57060D01*
X63929Y57070D01*
X63893Y57087D01*
X63776Y57109D01*
X63661Y57139D01*
X63601Y57143D01*
X63581Y57147D01*
X63560Y57145D01*
X63500Y57149D01*
X38735Y57149D01*
X38718Y57147D01*
X38701Y57149D01*
X38561Y57127D01*
X38420Y57109D01*
X38404Y57103D01*
X38387Y57101D01*
X38256Y57045D01*
X38124Y56992D01*
X38110Y56982D01*
X38095Y56976D01*
X37982Y56889D01*
X37867Y56806D01*
X37856Y56792D01*
X37842Y56782D01*
X37755Y56670D01*
X37664Y56561D01*
X37657Y56545D01*
X37646Y56532D01*
X37589Y56401D01*
X37529Y56273D01*
X37525Y56256D01*
X37518Y56240D01*
X37495Y56099D01*
X37469Y55961D01*
X37470Y55943D01*
X37467Y55927D01*
X37480Y55784D01*
X37489Y55643D01*
X37494Y55627D01*
X37495Y55610D01*
X37543Y55475D01*
X37587Y55341D01*
X37596Y55326D01*
X37601Y55310D01*
X37681Y55192D01*
X37757Y55072D01*
X37769Y55060D01*
X37779Y55046D01*
X37884Y54952D01*
X37988Y54854D01*
X38003Y54846D01*
X38016Y54834D01*
X38142Y54769D01*
X38267Y54700D01*
X38283Y54696D01*
X38299Y54688D01*
X38453Y54643D01*
X39887Y54315D01*
X42512Y53397D01*
X45019Y52190D01*
X47374Y50710D01*
X49549Y48975D01*
X51515Y47009D01*
X53250Y44834D01*
X54730Y42479D01*
X55937Y39972D01*
X56855Y37347D01*
X57474Y34635D01*
X57656Y33019D01*
X34290Y33019D01*
X34172Y33004D01*
X34053Y32997D01*
X34015Y32984D01*
X33975Y32979D01*
X33864Y32936D01*
X33751Y32899D01*
X33717Y32877D01*
X33679Y32862D01*
X33583Y32792D01*
X33482Y32729D01*
X33454Y32699D01*
X33422Y32675D01*
X33346Y32584D01*
X33264Y32497D01*
X33245Y32462D01*
X33219Y32431D01*
X33168Y32323D01*
X33111Y32219D01*
X33100Y32179D01*
X33083Y32143D01*
X33061Y32026D01*
X33031Y31911D01*
X33027Y31850D01*
X33023Y31830D01*
X33025Y31810D01*
X33024Y31804D01*
X33023Y31799D01*
X33024Y31795D01*
X33021Y31750D01*
X33021Y30479D01*
X33019Y30479D01*
X33019Y31750D01*
X33004Y31868D01*
X32997Y31987D01*
X32984Y32025D01*
X32979Y32065D01*
X32935Y32176D01*
X32899Y32289D01*
X32877Y32324D01*
X32862Y32361D01*
X32792Y32457D01*
X32729Y32558D01*
X32699Y32586D01*
X32675Y32619D01*
X32584Y32694D01*
X32497Y32776D01*
X32462Y32796D01*
X32430Y32821D01*
X32323Y32872D01*
X32218Y32930D01*
X32179Y32940D01*
X32143Y32957D01*
X32026Y32979D01*
X31911Y33009D01*
X31850Y33013D01*
X31830Y33017D01*
X31810Y33015D01*
X31750Y33019D01*
X8384Y33019D01*
X8566Y34635D01*
X9185Y37347D01*
X10103Y39972D01*
X11310Y42479D01*
X12790Y44834D01*
X14525Y47009D01*
X16491Y48975D01*
X18666Y50710D01*
X21022Y52190D01*
X23223Y53250D01*
X23246Y53265D01*
X23271Y53275D01*
X23379Y53351D01*
X23490Y53423D01*
X23508Y53443D01*
X23531Y53459D01*
X23616Y53559D01*
X23705Y53656D01*
X23718Y53680D01*
X23736Y53701D01*
X23793Y53820D01*
X23856Y53936D01*
X23863Y53963D01*
X23875Y53988D01*
X23901Y54117D01*
X23933Y54245D01*
X23932Y54272D01*
X23938Y54299D01*
X23931Y54431D01*
X23930Y54563D01*
X23923Y54590D01*
X23921Y54617D01*
X23882Y54743D01*
X23848Y54870D01*
X23835Y54894D01*
X23827Y54921D01*
X23757Y55033D01*
X23693Y55148D01*
X23674Y55168D01*
X23659Y55191D01*
X23564Y55282D01*
X23473Y55378D01*
X23450Y55392D01*
X23430Y55411D01*
X23315Y55476D01*
X23203Y55546D01*
X23177Y55554D01*
X23153Y55568D01*
X23001Y55619D01*
X19868Y56459D01*
X19549Y56777D01*
X19471Y56838D01*
X19399Y56906D01*
X19346Y56935D01*
X19298Y56972D01*
X19207Y57012D01*
X19120Y57060D01*
X19062Y57075D01*
X19006Y57099D01*
X18908Y57114D01*
X18812Y57139D01*
X18712Y57145D01*
X18692Y57149D01*
X18680Y57147D01*
X18652Y57149D01*
X13969Y57149D01*
X13969Y359411D01*
X63500Y359411D01*
G37*
%LPD*%
%LPC*%
G36*
X35559Y391159D02*
X35559Y391159D01*
X35559Y413256D01*
X37175Y413074D01*
X39887Y412455D01*
X42512Y411537D01*
X45019Y410330D01*
X47374Y408850D01*
X49549Y407115D01*
X51515Y405149D01*
X53250Y402974D01*
X54730Y400619D01*
X55937Y398112D01*
X56855Y395487D01*
X57474Y392775D01*
X57656Y391159D01*
X35559Y391159D01*
G37*
%LPD*%
%LPC*%
G36*
X604519Y388619D02*
X604519Y388619D01*
X604519Y410716D01*
X606135Y410534D01*
X608847Y409915D01*
X611472Y408997D01*
X613979Y407790D01*
X616334Y406310D01*
X618509Y404575D01*
X620475Y402609D01*
X622210Y400434D01*
X623690Y398079D01*
X624897Y395572D01*
X625815Y392947D01*
X626434Y390235D01*
X626616Y388619D01*
X604519Y388619D01*
G37*
%LPD*%
%LPC*%
G36*
X601979Y33019D02*
X601979Y33019D01*
X601979Y55116D01*
X603595Y54934D01*
X606307Y54315D01*
X608932Y53397D01*
X611439Y52190D01*
X613794Y50710D01*
X615969Y48975D01*
X617935Y47009D01*
X619670Y44834D01*
X621150Y42479D01*
X622357Y39972D01*
X623275Y37347D01*
X623894Y34635D01*
X624076Y33019D01*
X601979Y33019D01*
G37*
%LPD*%
%LPC*%
G36*
X8384Y391159D02*
X8384Y391159D01*
X8566Y392775D01*
X9185Y395487D01*
X10103Y398112D01*
X11310Y400619D01*
X12790Y402974D01*
X14525Y405149D01*
X16491Y407115D01*
X18666Y408850D01*
X21021Y410330D01*
X23528Y411537D01*
X26153Y412455D01*
X28865Y413074D01*
X30481Y413256D01*
X30481Y391159D01*
X8384Y391159D01*
G37*
%LPD*%
%LPC*%
G36*
X577344Y388619D02*
X577344Y388619D01*
X577526Y390235D01*
X578145Y392947D01*
X579063Y395572D01*
X580270Y398079D01*
X581750Y400434D01*
X583485Y402609D01*
X585451Y404575D01*
X587626Y406310D01*
X589981Y407790D01*
X592488Y408997D01*
X595113Y409915D01*
X597825Y410534D01*
X599441Y410716D01*
X599441Y388619D01*
X577344Y388619D01*
G37*
%LPD*%
%LPC*%
G36*
X35559Y386081D02*
X35559Y386081D01*
X57656Y386081D01*
X57474Y384465D01*
X56855Y381753D01*
X55937Y379128D01*
X54730Y376621D01*
X53250Y374266D01*
X51515Y372091D01*
X49549Y370125D01*
X47374Y368390D01*
X45019Y366910D01*
X42512Y365703D01*
X39887Y364785D01*
X37175Y364166D01*
X35559Y363984D01*
X35559Y386081D01*
G37*
%LPD*%
%LPC*%
G36*
X604519Y383541D02*
X604519Y383541D01*
X626616Y383541D01*
X626434Y381925D01*
X625815Y379213D01*
X624897Y376588D01*
X623690Y374081D01*
X622210Y371726D01*
X620475Y369551D01*
X618509Y367585D01*
X616334Y365850D01*
X613979Y364370D01*
X611472Y363163D01*
X608847Y362245D01*
X606135Y361626D01*
X604519Y361444D01*
X604519Y383541D01*
G37*
%LPD*%
%LPC*%
G36*
X574804Y33019D02*
X574804Y33019D01*
X574986Y34635D01*
X575605Y37347D01*
X576523Y39972D01*
X577730Y42479D01*
X579210Y44834D01*
X580945Y47009D01*
X582911Y48975D01*
X585086Y50710D01*
X587441Y52190D01*
X589948Y53397D01*
X592573Y54315D01*
X595285Y54934D01*
X596901Y55116D01*
X596901Y33019D01*
X574804Y33019D01*
G37*
%LPD*%
%LPC*%
G36*
X601979Y27941D02*
X601979Y27941D01*
X624076Y27941D01*
X623894Y26325D01*
X623275Y23613D01*
X622357Y20988D01*
X621150Y18481D01*
X619670Y16126D01*
X617935Y13951D01*
X615969Y11985D01*
X613794Y10250D01*
X611439Y8770D01*
X608932Y7563D01*
X606307Y6645D01*
X603595Y6026D01*
X601979Y5844D01*
X601979Y27941D01*
G37*
%LPD*%
%LPC*%
G36*
X35559Y27941D02*
X35559Y27941D01*
X57656Y27941D01*
X57474Y26325D01*
X56855Y23613D01*
X55937Y20988D01*
X54730Y18481D01*
X53250Y16126D01*
X51515Y13951D01*
X49549Y11985D01*
X47374Y10250D01*
X45019Y8770D01*
X42512Y7563D01*
X39887Y6645D01*
X37175Y6026D01*
X35559Y5844D01*
X35559Y27941D01*
G37*
%LPD*%
%LPC*%
G36*
X28865Y364166D02*
X28865Y364166D01*
X26153Y364785D01*
X23528Y365703D01*
X21021Y366910D01*
X18666Y368390D01*
X16491Y370125D01*
X14525Y372091D01*
X12790Y374266D01*
X11310Y376621D01*
X10103Y379128D01*
X9185Y381753D01*
X8566Y384465D01*
X8384Y386081D01*
X30481Y386081D01*
X30481Y363984D01*
X28865Y364166D01*
G37*
%LPD*%
%LPC*%
G36*
X597825Y361626D02*
X597825Y361626D01*
X595113Y362245D01*
X592488Y363163D01*
X589981Y364370D01*
X587626Y365850D01*
X585451Y367585D01*
X583485Y369551D01*
X581750Y371726D01*
X580270Y374081D01*
X579063Y376588D01*
X578145Y379213D01*
X577526Y381925D01*
X577344Y383541D01*
X599441Y383541D01*
X599441Y361444D01*
X597825Y361626D01*
G37*
%LPD*%
%LPC*%
G36*
X595285Y6026D02*
X595285Y6026D01*
X592573Y6645D01*
X589948Y7563D01*
X587441Y8770D01*
X585086Y10250D01*
X582911Y11985D01*
X580945Y13951D01*
X579210Y16126D01*
X577730Y18481D01*
X576523Y20988D01*
X575605Y23613D01*
X574986Y26325D01*
X574804Y27941D01*
X596901Y27941D01*
X596901Y5844D01*
X595285Y6026D01*
G37*
%LPD*%
%LPC*%
G36*
X28865Y6026D02*
X28865Y6026D01*
X26153Y6645D01*
X23528Y7563D01*
X21021Y8770D01*
X18666Y10250D01*
X16491Y11985D01*
X14525Y13951D01*
X12790Y16126D01*
X11310Y18481D01*
X10103Y20988D01*
X9185Y23613D01*
X8566Y26325D01*
X8384Y27941D01*
X30481Y27941D01*
X30481Y5844D01*
X28865Y6026D01*
G37*
%LPD*%
%LPC*%
G36*
X33019Y388619D02*
X33019Y388619D01*
X33019Y388621D01*
X33021Y388621D01*
X33021Y388619D01*
X33019Y388619D01*
G37*
%LPD*%
%LPC*%
G36*
X601979Y386079D02*
X601979Y386079D01*
X601979Y386081D01*
X601981Y386081D01*
X601981Y386079D01*
X601979Y386079D01*
G37*
%LPD*%
%LPC*%
G36*
X599439Y30479D02*
X599439Y30479D01*
X599439Y30481D01*
X599441Y30481D01*
X599441Y30479D01*
X599439Y30479D01*
G37*
%LPD*%
D10*
X71800Y345700D03*
D11*
X71800Y320300D03*
X97200Y345700D03*
X97200Y320300D03*
X122600Y345700D03*
X122600Y320300D03*
X148000Y345700D03*
X148000Y320300D03*
X173400Y345700D03*
X173400Y320300D03*
X198800Y345700D03*
X198800Y320300D03*
X224200Y345700D03*
X224200Y320300D03*
X249600Y345700D03*
X249600Y320300D03*
X275000Y345700D03*
X275000Y320300D03*
X300400Y345700D03*
X300400Y320300D03*
X325800Y345700D03*
X325800Y320300D03*
X351200Y345700D03*
X351200Y320300D03*
X376600Y345700D03*
X376600Y320300D03*
X402000Y345700D03*
X402000Y320300D03*
X427400Y345700D03*
X427400Y320300D03*
X452800Y345700D03*
X452800Y320300D03*
X478200Y345700D03*
X478200Y320300D03*
X503600Y345700D03*
X503600Y320300D03*
D10*
X71800Y91700D03*
D11*
X71800Y66300D03*
X97200Y91700D03*
X97200Y66300D03*
X122600Y91700D03*
X122600Y66300D03*
X148000Y91700D03*
X148000Y66300D03*
X173400Y91700D03*
X173400Y66300D03*
X198800Y91700D03*
X198800Y66300D03*
X224200Y91700D03*
X224200Y66300D03*
X249600Y91700D03*
X249600Y66300D03*
X275000Y91700D03*
X275000Y66300D03*
X300400Y91700D03*
X300400Y66300D03*
X325800Y91700D03*
X325800Y66300D03*
X351200Y91700D03*
X351200Y66300D03*
X376600Y91700D03*
X376600Y66300D03*
X402000Y91700D03*
X402000Y66300D03*
X427400Y91700D03*
X427400Y66300D03*
X452800Y91700D03*
X452800Y66300D03*
X478200Y91700D03*
X478200Y66300D03*
X503600Y91700D03*
X503600Y66300D03*
D12*
X142240Y292100D03*
D13*
X167640Y292100D03*
D14*
X146939Y261620D03*
X162941Y261620D03*
D15*
X33020Y388620D03*
D16*
X25400Y347980D03*
D17*
X322400Y35240D03*
X297000Y35240D03*
X271600Y35240D03*
X246200Y35240D03*
X220800Y35240D03*
X195400Y35240D03*
D12*
X228600Y292100D03*
D13*
X254000Y292100D03*
D14*
X233299Y261620D03*
X249301Y261620D03*
D12*
X314960Y292100D03*
D13*
X340360Y292100D03*
D14*
X319659Y261620D03*
X335661Y261620D03*
D12*
X406400Y292100D03*
D13*
X431800Y292100D03*
D14*
X411099Y261620D03*
X427101Y261620D03*
D12*
X492760Y292100D03*
D13*
X518160Y292100D03*
D14*
X497459Y261620D03*
X513461Y261620D03*
D15*
X33020Y30480D03*
X599440Y30480D03*
X601980Y386080D03*
D16*
X25400Y66040D03*
X609600Y71120D03*
D14*
X41021Y116840D03*
X25019Y116840D03*
D18*
X129540Y261620D02*
X146939Y261620D01*
D19*
X129540Y261620D03*
D18*
X58420Y116840D02*
X41021Y116840D01*
D19*
X58420Y116840D03*
D18*
X219710Y261620D02*
X233299Y261620D01*
D20*
X219710Y261620D03*
D18*
X304800Y261620D02*
X319659Y261620D01*
D20*
X304800Y261620D03*
D18*
X396240Y261620D02*
X411099Y261620D01*
D20*
X396240Y261620D03*
D18*
X482600Y261620D02*
X497459Y261620D01*
D20*
X482600Y261620D03*
D18*
X351200Y91700D02*
X337230Y77730D01*
X322400Y46736D02*
X322400Y35240D01*
X337230Y61566D02*
X337230Y77730D01*
X337230Y61566D02*
X322400Y46736D01*
X287440Y332740D02*
X300400Y345700D01*
X287440Y332740D02*
X213360Y332740D01*
X210820Y330200D01*
X210820Y292100D01*
X167640Y292100D01*
X167640Y276860D01*
X162560Y271780D01*
X162560Y262001D01*
X162941Y261620D01*
X337230Y331730D02*
X351200Y345700D01*
X337230Y331730D02*
X321066Y331730D01*
X312420Y323085D02*
X312420Y309880D01*
X309880Y307340D01*
X276860Y307340D01*
X276860Y292100D01*
X254000Y292100D01*
X312420Y323085D02*
X321066Y331730D01*
X254000Y276860D02*
X248920Y271780D01*
X248920Y262001D01*
X249301Y261620D01*
X254000Y276860D02*
X254000Y292100D01*
X363640Y332740D02*
X376600Y345700D01*
X363640Y332740D02*
X363220Y332740D01*
X363220Y292100D01*
X340360Y292100D01*
X340360Y279400D01*
X335280Y274320D01*
X335280Y262001D01*
X335661Y261620D01*
X414020Y333680D02*
X402000Y345700D01*
X414020Y309880D02*
X431800Y292100D01*
X414020Y309880D02*
X414020Y333680D01*
X431800Y292100D02*
X431800Y279400D01*
X426720Y274320D01*
X426720Y262001D01*
X427101Y261620D01*
X518160Y281940D02*
X518160Y292100D01*
X518160Y281940D02*
X513080Y276860D01*
X513080Y262001D01*
X513461Y261620D01*
X71800Y278720D02*
X71800Y320300D01*
X71800Y278720D02*
X101600Y248920D01*
X513080Y248920D01*
X513461Y249301D01*
X513461Y261620D01*
X195400Y35240D02*
X185420Y45220D01*
X185420Y78320D02*
X198800Y91700D01*
X185420Y78320D02*
X185420Y45220D01*
X25019Y80624D02*
X25019Y116840D01*
X30527Y78418D02*
X37778Y71167D01*
X37778Y60913D01*
X27225Y78418D02*
X25019Y80624D01*
X27225Y78418D02*
X30527Y78418D01*
X37778Y60913D02*
X33020Y56155D01*
X33020Y30480D01*
X312840Y53340D02*
X325800Y66300D01*
X312840Y53340D02*
X264160Y53340D01*
X246200Y35380D01*
X246200Y35240D01*
M02*
