G04 EAGLE Gerber RS-274X export*
G75*
%MOMM*%
%FSLAX34Y34*%
%LPD*%
%IN*%
%IPPOS*%
%AMOC8*
5,1,8,0,0,1.08239X$1,22.5*%
G01*
%ADD10C,0.254000*%


D10*
X0Y25400D02*
X-89Y23357D01*
X0Y21313D01*
X267Y19285D01*
X710Y17288D01*
X1325Y15338D01*
X2107Y13448D01*
X3052Y11634D01*
X4151Y9909D01*
X5396Y8286D01*
X6778Y6778D01*
X8286Y5396D01*
X9909Y4151D01*
X11634Y3052D01*
X13448Y2107D01*
X15338Y1325D01*
X17288Y710D01*
X19285Y267D01*
X21313Y0D01*
X23357Y-89D01*
X25400Y0D01*
X609600Y0D01*
X609600Y200D01*
X611627Y111D01*
X613655Y200D01*
X615667Y465D01*
X617648Y904D01*
X619583Y1514D01*
X621458Y2291D01*
X623258Y3228D01*
X624969Y4318D01*
X626579Y5554D01*
X628075Y6925D01*
X629446Y8421D01*
X630682Y10031D01*
X631772Y11742D01*
X632709Y13542D01*
X633486Y15417D01*
X634096Y17352D01*
X634535Y19333D01*
X634800Y21345D01*
X634889Y23373D01*
X634800Y25400D01*
X635000Y393700D01*
X635089Y395727D01*
X635000Y397755D01*
X634735Y399767D01*
X634296Y401748D01*
X633686Y403683D01*
X632909Y405558D01*
X631972Y407358D01*
X630882Y409069D01*
X629646Y410679D01*
X628275Y412175D01*
X626779Y413546D01*
X625169Y414782D01*
X623458Y415872D01*
X621658Y416809D01*
X619783Y417586D01*
X617848Y418196D01*
X615867Y418635D01*
X613855Y418900D01*
X611827Y418989D01*
X609800Y418900D01*
X600200Y418900D01*
X25400Y419100D01*
X23357Y419189D01*
X21313Y419100D01*
X19285Y418833D01*
X17288Y418390D01*
X15338Y417775D01*
X13448Y416993D01*
X11634Y416048D01*
X9909Y414949D01*
X8286Y413704D01*
X6778Y412322D01*
X5396Y410814D01*
X4151Y409191D01*
X3052Y407466D01*
X2107Y405652D01*
X1325Y403762D01*
X710Y401812D01*
X267Y399815D01*
X0Y397787D01*
X-89Y395743D01*
X0Y393700D01*
X0Y25400D01*
X121400Y32209D02*
X121323Y31230D01*
X121169Y30260D01*
X120940Y29304D01*
X120636Y28370D01*
X120261Y27463D01*
X119815Y26588D01*
X119301Y25750D01*
X118724Y24955D01*
X118086Y24208D01*
X117392Y23514D01*
X116645Y22876D01*
X115850Y22299D01*
X115012Y21785D01*
X114137Y21339D01*
X113230Y20964D01*
X112296Y20660D01*
X111341Y20431D01*
X110370Y20277D01*
X109391Y20200D01*
X108409Y20200D01*
X107430Y20277D01*
X106460Y20431D01*
X105504Y20660D01*
X104570Y20964D01*
X103663Y21339D01*
X102788Y21785D01*
X101950Y22299D01*
X101155Y22876D01*
X100408Y23514D01*
X99714Y24208D01*
X99076Y24955D01*
X98499Y25750D01*
X97985Y26588D01*
X97539Y27463D01*
X97164Y28370D01*
X96860Y29304D01*
X96631Y30260D01*
X96477Y31230D01*
X96400Y32209D01*
X96400Y33191D01*
X96477Y34170D01*
X96631Y35141D01*
X96860Y36096D01*
X97164Y37030D01*
X97539Y37937D01*
X97985Y38812D01*
X98499Y39650D01*
X99076Y40445D01*
X99714Y41192D01*
X100408Y41886D01*
X101155Y42524D01*
X101950Y43101D01*
X102788Y43615D01*
X103663Y44061D01*
X104570Y44436D01*
X105504Y44740D01*
X106460Y44969D01*
X107430Y45123D01*
X108409Y45200D01*
X109391Y45200D01*
X110370Y45123D01*
X111341Y44969D01*
X112296Y44740D01*
X113230Y44436D01*
X114137Y44061D01*
X115012Y43615D01*
X115850Y43101D01*
X116645Y42524D01*
X117392Y41886D01*
X118086Y41192D01*
X118724Y40445D01*
X119301Y39650D01*
X119815Y38812D01*
X120261Y37937D01*
X120636Y37030D01*
X120940Y36096D01*
X121169Y35141D01*
X121323Y34170D01*
X121400Y33191D01*
X121400Y32209D01*
X121400Y197209D02*
X121323Y196230D01*
X121169Y195260D01*
X120940Y194304D01*
X120636Y193370D01*
X120261Y192463D01*
X119815Y191588D01*
X119301Y190750D01*
X118724Y189955D01*
X118086Y189208D01*
X117392Y188514D01*
X116645Y187876D01*
X115850Y187299D01*
X115012Y186785D01*
X114137Y186339D01*
X113230Y185964D01*
X112296Y185660D01*
X111341Y185431D01*
X110370Y185277D01*
X109391Y185200D01*
X108409Y185200D01*
X107430Y185277D01*
X106460Y185431D01*
X105504Y185660D01*
X104570Y185964D01*
X103663Y186339D01*
X102788Y186785D01*
X101950Y187299D01*
X101155Y187876D01*
X100408Y188514D01*
X99714Y189208D01*
X99076Y189955D01*
X98499Y190750D01*
X97985Y191588D01*
X97539Y192463D01*
X97164Y193370D01*
X96860Y194304D01*
X96631Y195260D01*
X96477Y196230D01*
X96400Y197209D01*
X96400Y198191D01*
X96477Y199170D01*
X96631Y200141D01*
X96860Y201096D01*
X97164Y202030D01*
X97539Y202937D01*
X97985Y203812D01*
X98499Y204650D01*
X99076Y205445D01*
X99714Y206192D01*
X100408Y206886D01*
X101155Y207524D01*
X101950Y208101D01*
X102788Y208615D01*
X103663Y209061D01*
X104570Y209436D01*
X105504Y209740D01*
X106460Y209969D01*
X107430Y210123D01*
X108409Y210200D01*
X109391Y210200D01*
X110370Y210123D01*
X111341Y209969D01*
X112296Y209740D01*
X113230Y209436D01*
X114137Y209061D01*
X115012Y208615D01*
X115850Y208101D01*
X116645Y207524D01*
X117392Y206886D01*
X118086Y206192D01*
X118724Y205445D01*
X119301Y204650D01*
X119815Y203812D01*
X120261Y202937D01*
X120636Y202030D01*
X120940Y201096D01*
X121169Y200141D01*
X121323Y199170D01*
X121400Y198191D01*
X121400Y197209D01*
X421400Y197209D02*
X421323Y196230D01*
X421169Y195260D01*
X420940Y194304D01*
X420636Y193370D01*
X420261Y192463D01*
X419815Y191588D01*
X419301Y190750D01*
X418724Y189955D01*
X418086Y189208D01*
X417392Y188514D01*
X416645Y187876D01*
X415850Y187299D01*
X415012Y186785D01*
X414137Y186339D01*
X413230Y185964D01*
X412296Y185660D01*
X411341Y185431D01*
X410370Y185277D01*
X409391Y185200D01*
X408409Y185200D01*
X407430Y185277D01*
X406460Y185431D01*
X405504Y185660D01*
X404570Y185964D01*
X403663Y186339D01*
X402788Y186785D01*
X401950Y187299D01*
X401155Y187876D01*
X400408Y188514D01*
X399714Y189208D01*
X399076Y189955D01*
X398499Y190750D01*
X397985Y191588D01*
X397539Y192463D01*
X397164Y193370D01*
X396860Y194304D01*
X396631Y195260D01*
X396477Y196230D01*
X396400Y197209D01*
X396400Y198191D01*
X396477Y199170D01*
X396631Y200141D01*
X396860Y201096D01*
X397164Y202030D01*
X397539Y202937D01*
X397985Y203812D01*
X398499Y204650D01*
X399076Y205445D01*
X399714Y206192D01*
X400408Y206886D01*
X401155Y207524D01*
X401950Y208101D01*
X402788Y208615D01*
X403663Y209061D01*
X404570Y209436D01*
X405504Y209740D01*
X406460Y209969D01*
X407430Y210123D01*
X408409Y210200D01*
X409391Y210200D01*
X410370Y210123D01*
X411341Y209969D01*
X412296Y209740D01*
X413230Y209436D01*
X414137Y209061D01*
X415012Y208615D01*
X415850Y208101D01*
X416645Y207524D01*
X417392Y206886D01*
X418086Y206192D01*
X418724Y205445D01*
X419301Y204650D01*
X419815Y203812D01*
X420261Y202937D01*
X420636Y202030D01*
X420940Y201096D01*
X421169Y200141D01*
X421323Y199170D01*
X421400Y198191D01*
X421400Y197209D01*
X421400Y32209D02*
X421323Y31230D01*
X421169Y30260D01*
X420940Y29304D01*
X420636Y28370D01*
X420261Y27463D01*
X419815Y26588D01*
X419301Y25750D01*
X418724Y24955D01*
X418086Y24208D01*
X417392Y23514D01*
X416645Y22876D01*
X415850Y22299D01*
X415012Y21785D01*
X414137Y21339D01*
X413230Y20964D01*
X412296Y20660D01*
X411341Y20431D01*
X410370Y20277D01*
X409391Y20200D01*
X408409Y20200D01*
X407430Y20277D01*
X406460Y20431D01*
X405504Y20660D01*
X404570Y20964D01*
X403663Y21339D01*
X402788Y21785D01*
X401950Y22299D01*
X401155Y22876D01*
X400408Y23514D01*
X399714Y24208D01*
X399076Y24955D01*
X398499Y25750D01*
X397985Y26588D01*
X397539Y27463D01*
X397164Y28370D01*
X396860Y29304D01*
X396631Y30260D01*
X396477Y31230D01*
X396400Y32209D01*
X396400Y33191D01*
X396477Y34170D01*
X396631Y35141D01*
X396860Y36096D01*
X397164Y37030D01*
X397539Y37937D01*
X397985Y38812D01*
X398499Y39650D01*
X399076Y40445D01*
X399714Y41192D01*
X400408Y41886D01*
X401155Y42524D01*
X401950Y43101D01*
X402788Y43615D01*
X403663Y44061D01*
X404570Y44436D01*
X405504Y44740D01*
X406460Y44969D01*
X407430Y45123D01*
X408409Y45200D01*
X409391Y45200D01*
X410370Y45123D01*
X411341Y44969D01*
X412296Y44740D01*
X413230Y44436D01*
X414137Y44061D01*
X415012Y43615D01*
X415850Y43101D01*
X416645Y42524D01*
X417392Y41886D01*
X418086Y41192D01*
X418724Y40445D01*
X419301Y39650D01*
X419815Y38812D01*
X420261Y37937D01*
X420636Y37030D01*
X420940Y36096D01*
X421169Y35141D01*
X421323Y34170D01*
X421400Y33191D01*
X421400Y32209D01*
M02*
