G04 EAGLE Gerber RS-274X export*
G75*
%MOMM*%
%FSLAX34Y34*%
%LPD*%
%INSilkscreen Top*%
%IPPOS*%
%AMOC8*
5,1,8,0,0,1.08239X$1,22.5*%
G01*
%ADD10C,0.101600*%
%ADD11C,0.127000*%
%ADD12C,0.152400*%
%ADD13C,0.254000*%


D10*
X466683Y140208D02*
X466782Y140210D01*
X466882Y140216D01*
X466981Y140225D01*
X467079Y140238D01*
X467177Y140255D01*
X467275Y140276D01*
X467371Y140301D01*
X467466Y140329D01*
X467560Y140361D01*
X467653Y140396D01*
X467745Y140435D01*
X467835Y140478D01*
X467923Y140523D01*
X468010Y140573D01*
X468094Y140625D01*
X468177Y140681D01*
X468257Y140739D01*
X468335Y140801D01*
X468410Y140866D01*
X468483Y140934D01*
X468553Y141004D01*
X468621Y141077D01*
X468686Y141152D01*
X468748Y141230D01*
X468806Y141310D01*
X468862Y141393D01*
X468914Y141477D01*
X468964Y141564D01*
X469009Y141652D01*
X469052Y141742D01*
X469091Y141834D01*
X469126Y141927D01*
X469158Y142021D01*
X469186Y142116D01*
X469211Y142212D01*
X469232Y142310D01*
X469249Y142408D01*
X469262Y142506D01*
X469271Y142605D01*
X469277Y142705D01*
X469279Y142804D01*
X466683Y140208D02*
X466539Y140210D01*
X466394Y140216D01*
X466250Y140225D01*
X466107Y140238D01*
X465963Y140255D01*
X465820Y140276D01*
X465678Y140301D01*
X465537Y140329D01*
X465396Y140361D01*
X465256Y140397D01*
X465117Y140436D01*
X464979Y140479D01*
X464843Y140526D01*
X464707Y140576D01*
X464573Y140630D01*
X464441Y140687D01*
X464310Y140748D01*
X464181Y140812D01*
X464053Y140880D01*
X463927Y140950D01*
X463803Y141025D01*
X463682Y141102D01*
X463562Y141183D01*
X463444Y141266D01*
X463329Y141353D01*
X463216Y141443D01*
X463105Y141536D01*
X462997Y141631D01*
X462891Y141730D01*
X462788Y141831D01*
X463113Y149296D02*
X463115Y149395D01*
X463121Y149495D01*
X463130Y149594D01*
X463143Y149692D01*
X463160Y149790D01*
X463181Y149888D01*
X463206Y149984D01*
X463234Y150079D01*
X463266Y150173D01*
X463301Y150266D01*
X463340Y150358D01*
X463383Y150448D01*
X463428Y150536D01*
X463478Y150623D01*
X463530Y150707D01*
X463586Y150790D01*
X463644Y150870D01*
X463706Y150948D01*
X463771Y151023D01*
X463839Y151096D01*
X463909Y151166D01*
X463982Y151234D01*
X464057Y151299D01*
X464135Y151361D01*
X464215Y151419D01*
X464298Y151475D01*
X464382Y151527D01*
X464469Y151577D01*
X464557Y151622D01*
X464647Y151665D01*
X464739Y151704D01*
X464832Y151739D01*
X464926Y151771D01*
X465021Y151799D01*
X465118Y151824D01*
X465215Y151845D01*
X465313Y151862D01*
X465411Y151875D01*
X465510Y151884D01*
X465610Y151890D01*
X465709Y151892D01*
X465845Y151890D01*
X465981Y151884D01*
X466117Y151875D01*
X466253Y151862D01*
X466388Y151844D01*
X466522Y151824D01*
X466656Y151799D01*
X466790Y151771D01*
X466922Y151738D01*
X467053Y151703D01*
X467184Y151663D01*
X467313Y151620D01*
X467441Y151574D01*
X467567Y151523D01*
X467693Y151470D01*
X467816Y151412D01*
X467938Y151352D01*
X468058Y151288D01*
X468177Y151220D01*
X468293Y151150D01*
X468407Y151076D01*
X468520Y150999D01*
X468630Y150918D01*
X464411Y147024D02*
X464325Y147077D01*
X464241Y147134D01*
X464159Y147193D01*
X464079Y147256D01*
X464002Y147322D01*
X463927Y147390D01*
X463855Y147462D01*
X463786Y147536D01*
X463720Y147613D01*
X463657Y147692D01*
X463597Y147774D01*
X463540Y147858D01*
X463486Y147944D01*
X463436Y148032D01*
X463389Y148122D01*
X463345Y148213D01*
X463306Y148307D01*
X463269Y148401D01*
X463237Y148497D01*
X463208Y148595D01*
X463183Y148693D01*
X463162Y148792D01*
X463144Y148892D01*
X463131Y148992D01*
X463121Y149093D01*
X463115Y149195D01*
X463113Y149296D01*
X467981Y145076D02*
X468067Y145023D01*
X468151Y144966D01*
X468233Y144907D01*
X468313Y144844D01*
X468390Y144778D01*
X468465Y144710D01*
X468537Y144638D01*
X468606Y144564D01*
X468672Y144487D01*
X468735Y144408D01*
X468795Y144326D01*
X468852Y144242D01*
X468906Y144156D01*
X468956Y144068D01*
X469003Y143978D01*
X469047Y143887D01*
X469086Y143793D01*
X469123Y143699D01*
X469155Y143603D01*
X469184Y143505D01*
X469209Y143407D01*
X469230Y143308D01*
X469248Y143208D01*
X469261Y143108D01*
X469271Y143007D01*
X469277Y142905D01*
X469279Y142804D01*
X467981Y145076D02*
X464411Y147024D01*
X473654Y147997D02*
X473654Y140208D01*
X473329Y151243D02*
X473329Y151892D01*
X473978Y151892D01*
X473978Y151243D01*
X473329Y151243D01*
X480184Y140208D02*
X483430Y140208D01*
X480184Y140208D02*
X480097Y140210D01*
X480009Y140216D01*
X479923Y140226D01*
X479836Y140239D01*
X479751Y140257D01*
X479666Y140278D01*
X479582Y140303D01*
X479500Y140332D01*
X479419Y140365D01*
X479339Y140401D01*
X479261Y140440D01*
X479185Y140484D01*
X479111Y140530D01*
X479040Y140580D01*
X478970Y140633D01*
X478903Y140689D01*
X478839Y140748D01*
X478777Y140810D01*
X478718Y140874D01*
X478662Y140941D01*
X478609Y141011D01*
X478559Y141082D01*
X478513Y141156D01*
X478469Y141232D01*
X478430Y141310D01*
X478394Y141390D01*
X478361Y141471D01*
X478332Y141553D01*
X478307Y141637D01*
X478286Y141722D01*
X478268Y141807D01*
X478255Y141894D01*
X478245Y141980D01*
X478239Y142068D01*
X478237Y142155D01*
X478237Y146050D01*
X478239Y146137D01*
X478245Y146225D01*
X478255Y146311D01*
X478268Y146398D01*
X478286Y146483D01*
X478307Y146568D01*
X478332Y146652D01*
X478361Y146734D01*
X478394Y146815D01*
X478430Y146895D01*
X478469Y146973D01*
X478513Y147049D01*
X478559Y147123D01*
X478609Y147194D01*
X478662Y147264D01*
X478718Y147331D01*
X478777Y147395D01*
X478839Y147457D01*
X478903Y147516D01*
X478970Y147572D01*
X479040Y147625D01*
X479111Y147675D01*
X479185Y147721D01*
X479261Y147765D01*
X479339Y147804D01*
X479419Y147840D01*
X479500Y147873D01*
X479582Y147902D01*
X479666Y147927D01*
X479751Y147948D01*
X479836Y147966D01*
X479923Y147979D01*
X480009Y147989D01*
X480097Y147995D01*
X480184Y147997D01*
X483430Y147997D01*
X483430Y138261D01*
X483428Y138174D01*
X483422Y138086D01*
X483412Y138000D01*
X483399Y137913D01*
X483381Y137828D01*
X483360Y137743D01*
X483335Y137659D01*
X483306Y137577D01*
X483273Y137496D01*
X483237Y137416D01*
X483198Y137338D01*
X483154Y137262D01*
X483108Y137188D01*
X483058Y137117D01*
X483005Y137047D01*
X482949Y136980D01*
X482890Y136916D01*
X482829Y136854D01*
X482764Y136795D01*
X482697Y136739D01*
X482627Y136686D01*
X482556Y136636D01*
X482482Y136590D01*
X482406Y136546D01*
X482328Y136507D01*
X482248Y136471D01*
X482167Y136438D01*
X482085Y136409D01*
X482001Y136384D01*
X481916Y136363D01*
X481831Y136345D01*
X481744Y136332D01*
X481658Y136322D01*
X481570Y136316D01*
X481483Y136314D01*
X481483Y136313D02*
X478886Y136313D01*
X488964Y140208D02*
X488964Y147997D01*
X492210Y147997D01*
X492297Y147995D01*
X492385Y147989D01*
X492471Y147979D01*
X492558Y147966D01*
X492643Y147948D01*
X492728Y147927D01*
X492812Y147902D01*
X492894Y147873D01*
X492975Y147840D01*
X493055Y147804D01*
X493133Y147765D01*
X493209Y147721D01*
X493283Y147675D01*
X493354Y147625D01*
X493424Y147572D01*
X493491Y147516D01*
X493555Y147457D01*
X493617Y147396D01*
X493676Y147331D01*
X493732Y147264D01*
X493785Y147194D01*
X493835Y147123D01*
X493881Y147049D01*
X493925Y146973D01*
X493964Y146895D01*
X494000Y146815D01*
X494033Y146734D01*
X494062Y146652D01*
X494087Y146568D01*
X494108Y146483D01*
X494126Y146398D01*
X494139Y146311D01*
X494149Y146225D01*
X494155Y146137D01*
X494157Y146050D01*
X494157Y140208D01*
X501847Y140208D02*
X501847Y151892D01*
X498602Y151892D02*
X505093Y151892D01*
X511370Y144752D02*
X514291Y144752D01*
X511370Y144752D02*
X511276Y144750D01*
X511182Y144744D01*
X511089Y144735D01*
X510996Y144721D01*
X510904Y144704D01*
X510812Y144682D01*
X510722Y144658D01*
X510632Y144629D01*
X510544Y144597D01*
X510457Y144561D01*
X510372Y144521D01*
X510289Y144478D01*
X510207Y144432D01*
X510127Y144382D01*
X510050Y144329D01*
X509975Y144273D01*
X509902Y144214D01*
X509831Y144152D01*
X509763Y144087D01*
X509698Y144019D01*
X509636Y143948D01*
X509577Y143875D01*
X509521Y143800D01*
X509468Y143723D01*
X509418Y143643D01*
X509372Y143561D01*
X509329Y143478D01*
X509289Y143393D01*
X509253Y143306D01*
X509221Y143218D01*
X509192Y143128D01*
X509168Y143038D01*
X509146Y142946D01*
X509129Y142854D01*
X509115Y142761D01*
X509106Y142668D01*
X509100Y142574D01*
X509098Y142480D01*
X509100Y142386D01*
X509106Y142292D01*
X509115Y142199D01*
X509129Y142106D01*
X509146Y142014D01*
X509168Y141922D01*
X509192Y141832D01*
X509221Y141742D01*
X509253Y141654D01*
X509289Y141567D01*
X509329Y141482D01*
X509372Y141399D01*
X509418Y141317D01*
X509468Y141237D01*
X509521Y141160D01*
X509577Y141085D01*
X509636Y141012D01*
X509698Y140941D01*
X509763Y140873D01*
X509831Y140808D01*
X509902Y140746D01*
X509975Y140687D01*
X510050Y140631D01*
X510127Y140578D01*
X510207Y140528D01*
X510289Y140482D01*
X510372Y140439D01*
X510457Y140399D01*
X510544Y140363D01*
X510632Y140331D01*
X510722Y140302D01*
X510812Y140278D01*
X510904Y140256D01*
X510996Y140239D01*
X511089Y140225D01*
X511182Y140216D01*
X511276Y140210D01*
X511370Y140208D01*
X514291Y140208D01*
X514291Y146050D01*
X514289Y146137D01*
X514283Y146225D01*
X514273Y146311D01*
X514260Y146398D01*
X514242Y146483D01*
X514221Y146568D01*
X514196Y146652D01*
X514167Y146734D01*
X514134Y146815D01*
X514098Y146895D01*
X514059Y146973D01*
X514015Y147049D01*
X513969Y147123D01*
X513919Y147194D01*
X513866Y147264D01*
X513810Y147331D01*
X513751Y147395D01*
X513689Y147457D01*
X513625Y147516D01*
X513558Y147572D01*
X513488Y147625D01*
X513417Y147675D01*
X513343Y147721D01*
X513267Y147765D01*
X513189Y147804D01*
X513109Y147840D01*
X513028Y147873D01*
X512946Y147902D01*
X512862Y147927D01*
X512777Y147948D01*
X512692Y147966D01*
X512605Y147979D01*
X512519Y147989D01*
X512431Y147995D01*
X512344Y147997D01*
X509747Y147997D01*
X519594Y151892D02*
X519594Y142155D01*
X519596Y142068D01*
X519602Y141980D01*
X519612Y141894D01*
X519625Y141807D01*
X519643Y141722D01*
X519664Y141637D01*
X519689Y141553D01*
X519718Y141471D01*
X519751Y141390D01*
X519787Y141310D01*
X519826Y141232D01*
X519870Y141156D01*
X519916Y141082D01*
X519966Y141011D01*
X520019Y140941D01*
X520075Y140874D01*
X520134Y140810D01*
X520196Y140748D01*
X520260Y140689D01*
X520327Y140633D01*
X520397Y140580D01*
X520468Y140530D01*
X520542Y140484D01*
X520618Y140440D01*
X520696Y140401D01*
X520776Y140365D01*
X520857Y140332D01*
X520939Y140303D01*
X521023Y140278D01*
X521108Y140257D01*
X521193Y140239D01*
X521280Y140226D01*
X521366Y140216D01*
X521454Y140210D01*
X521541Y140208D01*
X526056Y140208D02*
X526056Y151892D01*
X531249Y147997D02*
X526056Y144103D01*
X528328Y145725D02*
X531249Y140208D01*
X462788Y136652D02*
X462788Y124968D01*
X462788Y136652D02*
X466034Y136652D01*
X466147Y136650D01*
X466260Y136644D01*
X466373Y136634D01*
X466486Y136620D01*
X466598Y136603D01*
X466709Y136581D01*
X466819Y136556D01*
X466929Y136526D01*
X467037Y136493D01*
X467144Y136456D01*
X467250Y136416D01*
X467354Y136371D01*
X467457Y136323D01*
X467558Y136272D01*
X467657Y136217D01*
X467754Y136159D01*
X467849Y136097D01*
X467942Y136032D01*
X468032Y135964D01*
X468120Y135893D01*
X468206Y135818D01*
X468289Y135741D01*
X468369Y135661D01*
X468446Y135578D01*
X468521Y135492D01*
X468592Y135404D01*
X468660Y135314D01*
X468725Y135221D01*
X468787Y135126D01*
X468845Y135029D01*
X468900Y134930D01*
X468951Y134829D01*
X468999Y134726D01*
X469044Y134622D01*
X469084Y134516D01*
X469121Y134409D01*
X469154Y134301D01*
X469184Y134191D01*
X469209Y134081D01*
X469231Y133970D01*
X469248Y133858D01*
X469262Y133745D01*
X469272Y133632D01*
X469278Y133519D01*
X469280Y133406D01*
X469278Y133293D01*
X469272Y133180D01*
X469262Y133067D01*
X469248Y132954D01*
X469231Y132842D01*
X469209Y132731D01*
X469184Y132621D01*
X469154Y132511D01*
X469121Y132403D01*
X469084Y132296D01*
X469044Y132190D01*
X468999Y132086D01*
X468951Y131983D01*
X468900Y131882D01*
X468845Y131783D01*
X468787Y131686D01*
X468725Y131591D01*
X468660Y131498D01*
X468592Y131408D01*
X468521Y131320D01*
X468446Y131234D01*
X468369Y131151D01*
X468289Y131071D01*
X468206Y130994D01*
X468120Y130919D01*
X468032Y130848D01*
X467942Y130780D01*
X467849Y130715D01*
X467754Y130653D01*
X467657Y130595D01*
X467558Y130540D01*
X467457Y130489D01*
X467354Y130441D01*
X467250Y130396D01*
X467144Y130356D01*
X467037Y130319D01*
X466929Y130286D01*
X466819Y130256D01*
X466709Y130231D01*
X466598Y130209D01*
X466486Y130192D01*
X466373Y130178D01*
X466260Y130168D01*
X466147Y130162D01*
X466034Y130160D01*
X466034Y130161D02*
X462788Y130161D01*
X466683Y130161D02*
X469279Y124968D01*
X475979Y124968D02*
X479224Y124968D01*
X475979Y124968D02*
X475892Y124970D01*
X475804Y124976D01*
X475718Y124986D01*
X475631Y124999D01*
X475546Y125017D01*
X475461Y125038D01*
X475377Y125063D01*
X475295Y125092D01*
X475214Y125125D01*
X475134Y125161D01*
X475056Y125200D01*
X474980Y125244D01*
X474906Y125290D01*
X474835Y125340D01*
X474765Y125393D01*
X474698Y125449D01*
X474634Y125508D01*
X474572Y125570D01*
X474513Y125634D01*
X474457Y125701D01*
X474404Y125771D01*
X474354Y125842D01*
X474308Y125916D01*
X474264Y125992D01*
X474225Y126070D01*
X474189Y126150D01*
X474156Y126231D01*
X474127Y126313D01*
X474102Y126397D01*
X474081Y126482D01*
X474063Y126567D01*
X474050Y126654D01*
X474040Y126740D01*
X474034Y126828D01*
X474032Y126915D01*
X474031Y126915D02*
X474031Y130161D01*
X474032Y130161D02*
X474034Y130262D01*
X474040Y130362D01*
X474050Y130462D01*
X474063Y130562D01*
X474081Y130661D01*
X474102Y130760D01*
X474127Y130857D01*
X474156Y130954D01*
X474189Y131049D01*
X474225Y131143D01*
X474265Y131235D01*
X474308Y131326D01*
X474355Y131415D01*
X474405Y131502D01*
X474459Y131588D01*
X474516Y131671D01*
X474576Y131751D01*
X474639Y131830D01*
X474706Y131906D01*
X474775Y131979D01*
X474847Y132049D01*
X474921Y132117D01*
X474998Y132182D01*
X475078Y132243D01*
X475160Y132302D01*
X475244Y132357D01*
X475330Y132409D01*
X475418Y132458D01*
X475508Y132503D01*
X475600Y132545D01*
X475693Y132583D01*
X475788Y132617D01*
X475883Y132648D01*
X475980Y132675D01*
X476078Y132698D01*
X476177Y132718D01*
X476277Y132733D01*
X476377Y132745D01*
X476477Y132753D01*
X476578Y132757D01*
X476678Y132757D01*
X476779Y132753D01*
X476879Y132745D01*
X476979Y132733D01*
X477079Y132718D01*
X477178Y132698D01*
X477276Y132675D01*
X477373Y132648D01*
X477468Y132617D01*
X477563Y132583D01*
X477656Y132545D01*
X477748Y132503D01*
X477838Y132458D01*
X477926Y132409D01*
X478012Y132357D01*
X478096Y132302D01*
X478178Y132243D01*
X478258Y132182D01*
X478335Y132117D01*
X478409Y132049D01*
X478481Y131979D01*
X478550Y131906D01*
X478617Y131830D01*
X478680Y131751D01*
X478740Y131671D01*
X478797Y131588D01*
X478851Y131502D01*
X478901Y131415D01*
X478948Y131326D01*
X478991Y131235D01*
X479031Y131143D01*
X479067Y131049D01*
X479100Y130954D01*
X479129Y130857D01*
X479154Y130760D01*
X479175Y130661D01*
X479193Y130562D01*
X479206Y130462D01*
X479216Y130362D01*
X479222Y130262D01*
X479224Y130161D01*
X479224Y128863D01*
X474031Y128863D01*
X483556Y132757D02*
X486153Y124968D01*
X488749Y132757D01*
X499290Y134056D02*
X502536Y136652D01*
X502536Y124968D01*
X505781Y124968D02*
X499290Y124968D01*
X510212Y124968D02*
X510212Y125617D01*
X510861Y125617D01*
X510861Y124968D01*
X510212Y124968D01*
X515293Y130810D02*
X515296Y131040D01*
X515304Y131270D01*
X515318Y131499D01*
X515337Y131728D01*
X515362Y131957D01*
X515392Y132184D01*
X515427Y132412D01*
X515468Y132638D01*
X515514Y132863D01*
X515566Y133087D01*
X515623Y133309D01*
X515685Y133531D01*
X515753Y133750D01*
X515826Y133968D01*
X515904Y134185D01*
X515987Y134399D01*
X516075Y134611D01*
X516168Y134821D01*
X516267Y135029D01*
X516266Y135029D02*
X516299Y135119D01*
X516335Y135208D01*
X516375Y135296D01*
X516419Y135381D01*
X516466Y135465D01*
X516516Y135547D01*
X516570Y135627D01*
X516626Y135704D01*
X516686Y135780D01*
X516749Y135853D01*
X516814Y135923D01*
X516883Y135991D01*
X516954Y136055D01*
X517027Y136117D01*
X517103Y136176D01*
X517181Y136232D01*
X517262Y136285D01*
X517344Y136334D01*
X517428Y136380D01*
X517515Y136423D01*
X517602Y136462D01*
X517692Y136498D01*
X517782Y136530D01*
X517874Y136558D01*
X517967Y136583D01*
X518061Y136604D01*
X518155Y136621D01*
X518250Y136635D01*
X518346Y136644D01*
X518442Y136650D01*
X518538Y136652D01*
X518634Y136650D01*
X518730Y136644D01*
X518826Y136635D01*
X518921Y136621D01*
X519015Y136604D01*
X519109Y136583D01*
X519202Y136558D01*
X519294Y136530D01*
X519384Y136498D01*
X519474Y136462D01*
X519561Y136423D01*
X519648Y136380D01*
X519732Y136334D01*
X519814Y136285D01*
X519895Y136232D01*
X519973Y136176D01*
X520049Y136117D01*
X520122Y136055D01*
X520193Y135991D01*
X520262Y135923D01*
X520327Y135853D01*
X520390Y135780D01*
X520450Y135704D01*
X520506Y135627D01*
X520560Y135547D01*
X520610Y135465D01*
X520657Y135381D01*
X520701Y135296D01*
X520741Y135208D01*
X520777Y135119D01*
X520810Y135029D01*
X520909Y134822D01*
X521002Y134612D01*
X521090Y134399D01*
X521173Y134185D01*
X521251Y133969D01*
X521324Y133751D01*
X521392Y133531D01*
X521454Y133310D01*
X521511Y133087D01*
X521563Y132863D01*
X521609Y132638D01*
X521650Y132412D01*
X521685Y132185D01*
X521715Y131957D01*
X521740Y131728D01*
X521759Y131499D01*
X521773Y131270D01*
X521781Y131040D01*
X521784Y130810D01*
X515292Y130810D02*
X515295Y130580D01*
X515303Y130350D01*
X515317Y130121D01*
X515336Y129892D01*
X515361Y129663D01*
X515391Y129435D01*
X515426Y129208D01*
X515467Y128982D01*
X515513Y128757D01*
X515565Y128533D01*
X515622Y128310D01*
X515684Y128089D01*
X515752Y127869D01*
X515825Y127651D01*
X515903Y127435D01*
X515986Y127221D01*
X516074Y127009D01*
X516167Y126798D01*
X516266Y126591D01*
X516299Y126501D01*
X516335Y126412D01*
X516376Y126324D01*
X516419Y126239D01*
X516466Y126155D01*
X516516Y126073D01*
X516570Y125993D01*
X516626Y125916D01*
X516686Y125840D01*
X516749Y125767D01*
X516814Y125697D01*
X516883Y125629D01*
X516954Y125565D01*
X517027Y125503D01*
X517103Y125444D01*
X517181Y125388D01*
X517262Y125335D01*
X517344Y125286D01*
X517428Y125240D01*
X517515Y125197D01*
X517602Y125158D01*
X517692Y125122D01*
X517782Y125090D01*
X517874Y125062D01*
X517967Y125037D01*
X518061Y125016D01*
X518155Y124999D01*
X518250Y124985D01*
X518346Y124976D01*
X518442Y124970D01*
X518538Y124968D01*
X520810Y126591D02*
X520909Y126798D01*
X521002Y127009D01*
X521090Y127221D01*
X521173Y127435D01*
X521251Y127651D01*
X521324Y127869D01*
X521392Y128089D01*
X521454Y128310D01*
X521511Y128533D01*
X521563Y128757D01*
X521609Y128982D01*
X521650Y129208D01*
X521685Y129435D01*
X521715Y129663D01*
X521740Y129892D01*
X521759Y130121D01*
X521773Y130350D01*
X521781Y130580D01*
X521784Y130810D01*
X520810Y126591D02*
X520777Y126501D01*
X520741Y126412D01*
X520701Y126324D01*
X520657Y126239D01*
X520610Y126155D01*
X520560Y126073D01*
X520506Y125993D01*
X520450Y125916D01*
X520390Y125840D01*
X520327Y125767D01*
X520262Y125697D01*
X520193Y125629D01*
X520122Y125565D01*
X520049Y125503D01*
X519973Y125444D01*
X519895Y125388D01*
X519814Y125335D01*
X519732Y125286D01*
X519648Y125240D01*
X519561Y125197D01*
X519474Y125158D01*
X519384Y125122D01*
X519294Y125090D01*
X519202Y125062D01*
X519109Y125037D01*
X519015Y125016D01*
X518921Y124999D01*
X518826Y124985D01*
X518730Y124976D01*
X518634Y124970D01*
X518538Y124968D01*
X515941Y127564D02*
X521134Y134056D01*
X462788Y121412D02*
X462788Y109728D01*
X462788Y121412D02*
X466034Y121412D01*
X466147Y121410D01*
X466260Y121404D01*
X466373Y121394D01*
X466486Y121380D01*
X466598Y121363D01*
X466709Y121341D01*
X466819Y121316D01*
X466929Y121286D01*
X467037Y121253D01*
X467144Y121216D01*
X467250Y121176D01*
X467354Y121131D01*
X467457Y121083D01*
X467558Y121032D01*
X467657Y120977D01*
X467754Y120919D01*
X467849Y120857D01*
X467942Y120792D01*
X468032Y120724D01*
X468120Y120653D01*
X468206Y120578D01*
X468289Y120501D01*
X468369Y120421D01*
X468446Y120338D01*
X468521Y120252D01*
X468592Y120164D01*
X468660Y120074D01*
X468725Y119981D01*
X468787Y119886D01*
X468845Y119789D01*
X468900Y119690D01*
X468951Y119589D01*
X468999Y119486D01*
X469044Y119382D01*
X469084Y119276D01*
X469121Y119169D01*
X469154Y119061D01*
X469184Y118951D01*
X469209Y118841D01*
X469231Y118730D01*
X469248Y118618D01*
X469262Y118505D01*
X469272Y118392D01*
X469278Y118279D01*
X469280Y118166D01*
X469279Y118166D02*
X469279Y112974D01*
X469280Y112974D02*
X469278Y112861D01*
X469272Y112748D01*
X469262Y112635D01*
X469248Y112522D01*
X469231Y112410D01*
X469209Y112299D01*
X469184Y112189D01*
X469154Y112079D01*
X469121Y111971D01*
X469084Y111864D01*
X469044Y111758D01*
X468999Y111654D01*
X468951Y111551D01*
X468900Y111450D01*
X468845Y111351D01*
X468787Y111254D01*
X468725Y111159D01*
X468660Y111066D01*
X468592Y110976D01*
X468521Y110888D01*
X468446Y110802D01*
X468369Y110719D01*
X468289Y110639D01*
X468206Y110562D01*
X468120Y110487D01*
X468032Y110416D01*
X467942Y110348D01*
X467849Y110283D01*
X467754Y110221D01*
X467657Y110163D01*
X467558Y110108D01*
X467457Y110057D01*
X467354Y110009D01*
X467250Y109964D01*
X467144Y109924D01*
X467037Y109887D01*
X466929Y109854D01*
X466819Y109824D01*
X466709Y109799D01*
X466598Y109777D01*
X466486Y109760D01*
X466373Y109746D01*
X466260Y109736D01*
X466147Y109730D01*
X466034Y109728D01*
X462788Y109728D01*
X479524Y116219D02*
X481471Y116219D01*
X481471Y109728D01*
X477576Y109728D01*
X477477Y109730D01*
X477377Y109736D01*
X477278Y109745D01*
X477180Y109758D01*
X477082Y109775D01*
X476984Y109796D01*
X476888Y109821D01*
X476793Y109849D01*
X476699Y109881D01*
X476606Y109916D01*
X476514Y109955D01*
X476424Y109998D01*
X476336Y110043D01*
X476249Y110093D01*
X476165Y110145D01*
X476082Y110201D01*
X476002Y110259D01*
X475924Y110321D01*
X475849Y110386D01*
X475776Y110454D01*
X475706Y110524D01*
X475638Y110597D01*
X475573Y110672D01*
X475511Y110750D01*
X475453Y110830D01*
X475397Y110913D01*
X475345Y110997D01*
X475295Y111084D01*
X475250Y111172D01*
X475207Y111262D01*
X475168Y111354D01*
X475133Y111447D01*
X475101Y111541D01*
X475073Y111636D01*
X475048Y111732D01*
X475027Y111830D01*
X475010Y111928D01*
X474997Y112026D01*
X474988Y112125D01*
X474982Y112225D01*
X474980Y112324D01*
X474980Y118816D01*
X474982Y118915D01*
X474988Y119015D01*
X474997Y119114D01*
X475010Y119212D01*
X475027Y119310D01*
X475048Y119408D01*
X475073Y119504D01*
X475101Y119599D01*
X475133Y119693D01*
X475168Y119786D01*
X475207Y119878D01*
X475250Y119968D01*
X475295Y120056D01*
X475345Y120143D01*
X475397Y120227D01*
X475453Y120310D01*
X475511Y120390D01*
X475573Y120468D01*
X475638Y120543D01*
X475706Y120616D01*
X475776Y120686D01*
X475849Y120754D01*
X475924Y120819D01*
X476002Y120881D01*
X476082Y120939D01*
X476165Y120995D01*
X476249Y121047D01*
X476336Y121097D01*
X476424Y121142D01*
X476514Y121185D01*
X476606Y121224D01*
X476698Y121259D01*
X476793Y121291D01*
X476888Y121319D01*
X476984Y121344D01*
X477082Y121365D01*
X477180Y121382D01*
X477278Y121395D01*
X477377Y121404D01*
X477477Y121410D01*
X477576Y121412D01*
X481471Y121412D01*
D11*
X129540Y279400D02*
X129540Y304800D01*
X180340Y304800D01*
X180340Y279400D01*
X129540Y279400D01*
X135890Y266700D02*
X148590Y266700D01*
X142240Y260350D02*
X142240Y273050D01*
X167640Y273050D02*
X167640Y260350D01*
D12*
X119324Y281432D02*
X111252Y281432D01*
X119324Y281432D02*
X119435Y281434D01*
X119545Y281440D01*
X119656Y281450D01*
X119766Y281464D01*
X119875Y281481D01*
X119984Y281503D01*
X120092Y281528D01*
X120198Y281558D01*
X120304Y281591D01*
X120409Y281628D01*
X120512Y281668D01*
X120613Y281713D01*
X120713Y281760D01*
X120812Y281812D01*
X120908Y281867D01*
X121002Y281925D01*
X121094Y281986D01*
X121184Y282051D01*
X121272Y282119D01*
X121357Y282190D01*
X121439Y282264D01*
X121519Y282341D01*
X121596Y282421D01*
X121670Y282503D01*
X121741Y282588D01*
X121809Y282676D01*
X121874Y282766D01*
X121935Y282858D01*
X121993Y282952D01*
X122048Y283048D01*
X122100Y283147D01*
X122147Y283247D01*
X122192Y283348D01*
X122232Y283451D01*
X122269Y283556D01*
X122302Y283662D01*
X122332Y283768D01*
X122357Y283876D01*
X122379Y283985D01*
X122396Y284094D01*
X122410Y284204D01*
X122420Y284315D01*
X122426Y284425D01*
X122428Y284536D01*
X122426Y284647D01*
X122420Y284757D01*
X122410Y284868D01*
X122396Y284978D01*
X122379Y285087D01*
X122357Y285196D01*
X122332Y285304D01*
X122302Y285410D01*
X122269Y285516D01*
X122232Y285621D01*
X122192Y285724D01*
X122147Y285825D01*
X122100Y285925D01*
X122048Y286024D01*
X121993Y286120D01*
X121935Y286214D01*
X121874Y286306D01*
X121809Y286396D01*
X121741Y286484D01*
X121670Y286569D01*
X121596Y286651D01*
X121519Y286731D01*
X121439Y286808D01*
X121357Y286882D01*
X121272Y286953D01*
X121184Y287021D01*
X121094Y287086D01*
X121002Y287147D01*
X120908Y287205D01*
X120812Y287260D01*
X120713Y287312D01*
X120613Y287359D01*
X120512Y287404D01*
X120409Y287444D01*
X120304Y287481D01*
X120198Y287514D01*
X120092Y287544D01*
X119984Y287569D01*
X119875Y287591D01*
X119766Y287608D01*
X119656Y287622D01*
X119545Y287632D01*
X119435Y287638D01*
X119324Y287640D01*
X119324Y287641D02*
X111252Y287641D01*
X111252Y296658D02*
X111254Y296762D01*
X111260Y296867D01*
X111270Y296971D01*
X111283Y297074D01*
X111301Y297177D01*
X111322Y297280D01*
X111347Y297381D01*
X111376Y297482D01*
X111409Y297581D01*
X111445Y297679D01*
X111485Y297775D01*
X111529Y297870D01*
X111576Y297964D01*
X111626Y298055D01*
X111680Y298144D01*
X111737Y298232D01*
X111798Y298317D01*
X111862Y298400D01*
X111928Y298480D01*
X111998Y298558D01*
X112070Y298634D01*
X112146Y298706D01*
X112224Y298776D01*
X112304Y298842D01*
X112387Y298906D01*
X112472Y298967D01*
X112560Y299024D01*
X112649Y299078D01*
X112740Y299128D01*
X112834Y299175D01*
X112929Y299219D01*
X113025Y299259D01*
X113123Y299295D01*
X113222Y299328D01*
X113323Y299357D01*
X113424Y299382D01*
X113527Y299403D01*
X113630Y299421D01*
X113733Y299434D01*
X113837Y299444D01*
X113942Y299450D01*
X114046Y299452D01*
X111252Y296658D02*
X111254Y296539D01*
X111260Y296421D01*
X111270Y296302D01*
X111283Y296184D01*
X111301Y296067D01*
X111323Y295950D01*
X111348Y295834D01*
X111377Y295719D01*
X111410Y295604D01*
X111447Y295491D01*
X111487Y295380D01*
X111531Y295269D01*
X111579Y295161D01*
X111630Y295054D01*
X111685Y294948D01*
X111744Y294845D01*
X111805Y294743D01*
X111870Y294644D01*
X111939Y294546D01*
X112010Y294452D01*
X112085Y294359D01*
X112162Y294269D01*
X112243Y294182D01*
X112326Y294097D01*
X112412Y294015D01*
X112501Y293936D01*
X112592Y293860D01*
X112686Y293787D01*
X112782Y293718D01*
X112881Y293651D01*
X112981Y293588D01*
X113084Y293528D01*
X113188Y293471D01*
X113295Y293419D01*
X113403Y293369D01*
X113512Y293323D01*
X113624Y293281D01*
X113736Y293243D01*
X116219Y298521D02*
X116145Y298596D01*
X116068Y298668D01*
X115989Y298738D01*
X115907Y298805D01*
X115823Y298869D01*
X115737Y298930D01*
X115649Y298988D01*
X115558Y299043D01*
X115466Y299095D01*
X115372Y299143D01*
X115277Y299188D01*
X115179Y299230D01*
X115081Y299268D01*
X114981Y299303D01*
X114880Y299334D01*
X114778Y299361D01*
X114675Y299385D01*
X114572Y299406D01*
X114467Y299422D01*
X114362Y299435D01*
X114257Y299445D01*
X114152Y299450D01*
X114046Y299452D01*
X116219Y298521D02*
X122428Y293243D01*
X122428Y299452D01*
D11*
X154940Y266700D02*
X154940Y256540D01*
D12*
X107442Y259842D02*
X107442Y271018D01*
X110546Y271018D01*
X110657Y271016D01*
X110767Y271010D01*
X110878Y271000D01*
X110988Y270986D01*
X111097Y270969D01*
X111206Y270947D01*
X111314Y270922D01*
X111420Y270892D01*
X111526Y270859D01*
X111631Y270822D01*
X111734Y270782D01*
X111835Y270737D01*
X111935Y270690D01*
X112034Y270638D01*
X112130Y270583D01*
X112224Y270525D01*
X112316Y270464D01*
X112406Y270399D01*
X112494Y270331D01*
X112579Y270260D01*
X112661Y270186D01*
X112741Y270109D01*
X112818Y270029D01*
X112892Y269947D01*
X112963Y269862D01*
X113031Y269774D01*
X113096Y269684D01*
X113157Y269592D01*
X113215Y269498D01*
X113270Y269402D01*
X113322Y269303D01*
X113369Y269203D01*
X113414Y269102D01*
X113454Y268999D01*
X113491Y268894D01*
X113524Y268788D01*
X113554Y268682D01*
X113579Y268574D01*
X113601Y268465D01*
X113618Y268356D01*
X113632Y268246D01*
X113642Y268135D01*
X113648Y268025D01*
X113650Y267914D01*
X113648Y267803D01*
X113642Y267693D01*
X113632Y267582D01*
X113618Y267472D01*
X113601Y267363D01*
X113579Y267254D01*
X113554Y267146D01*
X113524Y267040D01*
X113491Y266934D01*
X113454Y266829D01*
X113414Y266726D01*
X113369Y266625D01*
X113322Y266525D01*
X113270Y266426D01*
X113215Y266330D01*
X113157Y266236D01*
X113096Y266144D01*
X113031Y266054D01*
X112963Y265966D01*
X112892Y265881D01*
X112818Y265799D01*
X112741Y265719D01*
X112661Y265642D01*
X112579Y265568D01*
X112494Y265497D01*
X112406Y265429D01*
X112316Y265364D01*
X112224Y265303D01*
X112130Y265245D01*
X112034Y265190D01*
X111935Y265138D01*
X111835Y265091D01*
X111734Y265046D01*
X111631Y265006D01*
X111526Y264969D01*
X111420Y264936D01*
X111314Y264906D01*
X111206Y264881D01*
X111097Y264859D01*
X110988Y264842D01*
X110878Y264828D01*
X110767Y264818D01*
X110657Y264812D01*
X110546Y264810D01*
X110546Y264809D02*
X107442Y264809D01*
X111167Y264809D02*
X113651Y259842D01*
X118780Y268534D02*
X121884Y271018D01*
X121884Y259842D01*
X118780Y259842D02*
X124989Y259842D01*
D11*
X106400Y172550D02*
X406400Y172550D01*
X406400Y59300D01*
X106400Y59300D01*
X106400Y172550D01*
D13*
X88900Y197700D02*
X88900Y32700D01*
X88900Y197700D02*
X88906Y198183D01*
X88923Y198666D01*
X88953Y199149D01*
X88993Y199630D01*
X89046Y200111D01*
X89110Y200590D01*
X89185Y201067D01*
X89273Y201543D01*
X89371Y202016D01*
X89481Y202486D01*
X89602Y202954D01*
X89735Y203419D01*
X89879Y203880D01*
X90034Y204338D01*
X90200Y204792D01*
X90377Y205242D01*
X90564Y205687D01*
X90763Y206128D01*
X90971Y206564D01*
X91191Y206994D01*
X91421Y207420D01*
X91661Y207839D01*
X91911Y208253D01*
X92171Y208660D01*
X92440Y209061D01*
X92720Y209456D01*
X93008Y209843D01*
X93307Y210224D01*
X93614Y210597D01*
X93930Y210962D01*
X94255Y211320D01*
X94588Y211670D01*
X94930Y212012D01*
X95280Y212345D01*
X95638Y212670D01*
X96003Y212986D01*
X96376Y213293D01*
X96757Y213592D01*
X97144Y213880D01*
X97539Y214160D01*
X97940Y214429D01*
X98347Y214689D01*
X98761Y214939D01*
X99180Y215179D01*
X99606Y215409D01*
X100036Y215629D01*
X100472Y215837D01*
X100913Y216036D01*
X101358Y216223D01*
X101808Y216400D01*
X102262Y216566D01*
X102720Y216721D01*
X103181Y216865D01*
X103646Y216998D01*
X104114Y217119D01*
X104584Y217229D01*
X105057Y217327D01*
X105533Y217415D01*
X106010Y217490D01*
X106489Y217554D01*
X106970Y217607D01*
X107451Y217647D01*
X107934Y217677D01*
X108417Y217694D01*
X108900Y217700D01*
X408900Y217700D01*
X409383Y217694D01*
X409866Y217677D01*
X410349Y217647D01*
X410830Y217607D01*
X411311Y217554D01*
X411790Y217490D01*
X412267Y217415D01*
X412743Y217327D01*
X413216Y217229D01*
X413686Y217119D01*
X414154Y216998D01*
X414619Y216865D01*
X415080Y216721D01*
X415538Y216566D01*
X415992Y216400D01*
X416442Y216223D01*
X416887Y216036D01*
X417328Y215837D01*
X417764Y215629D01*
X418194Y215409D01*
X418620Y215179D01*
X419039Y214939D01*
X419453Y214689D01*
X419860Y214429D01*
X420261Y214160D01*
X420656Y213880D01*
X421043Y213592D01*
X421424Y213293D01*
X421797Y212986D01*
X422162Y212670D01*
X422520Y212345D01*
X422870Y212012D01*
X423212Y211670D01*
X423545Y211320D01*
X423870Y210962D01*
X424186Y210597D01*
X424493Y210224D01*
X424792Y209843D01*
X425080Y209456D01*
X425360Y209061D01*
X425629Y208660D01*
X425889Y208253D01*
X426139Y207839D01*
X426379Y207420D01*
X426609Y206994D01*
X426829Y206564D01*
X427037Y206128D01*
X427236Y205687D01*
X427423Y205242D01*
X427600Y204792D01*
X427766Y204338D01*
X427921Y203880D01*
X428065Y203419D01*
X428198Y202954D01*
X428319Y202486D01*
X428429Y202016D01*
X428527Y201543D01*
X428615Y201067D01*
X428690Y200590D01*
X428754Y200111D01*
X428807Y199630D01*
X428847Y199149D01*
X428877Y198666D01*
X428894Y198183D01*
X428900Y197700D01*
X428900Y32700D01*
X428894Y32217D01*
X428877Y31734D01*
X428847Y31251D01*
X428807Y30770D01*
X428754Y30289D01*
X428690Y29810D01*
X428615Y29333D01*
X428527Y28857D01*
X428429Y28384D01*
X428319Y27914D01*
X428198Y27446D01*
X428065Y26981D01*
X427921Y26520D01*
X427766Y26062D01*
X427600Y25608D01*
X427423Y25158D01*
X427236Y24713D01*
X427037Y24272D01*
X426829Y23836D01*
X426609Y23406D01*
X426379Y22980D01*
X426139Y22561D01*
X425889Y22147D01*
X425629Y21740D01*
X425360Y21339D01*
X425080Y20944D01*
X424792Y20557D01*
X424493Y20176D01*
X424186Y19803D01*
X423870Y19438D01*
X423545Y19080D01*
X423212Y18730D01*
X422870Y18388D01*
X422520Y18055D01*
X422162Y17730D01*
X421797Y17414D01*
X421424Y17107D01*
X421043Y16808D01*
X420656Y16520D01*
X420261Y16240D01*
X419860Y15971D01*
X419453Y15711D01*
X419039Y15461D01*
X418620Y15221D01*
X418194Y14991D01*
X417764Y14771D01*
X417328Y14563D01*
X416887Y14364D01*
X416442Y14177D01*
X415992Y14000D01*
X415538Y13834D01*
X415080Y13679D01*
X414619Y13535D01*
X414154Y13402D01*
X413686Y13281D01*
X413216Y13171D01*
X412743Y13073D01*
X412267Y12985D01*
X411790Y12910D01*
X411311Y12846D01*
X410830Y12793D01*
X410349Y12753D01*
X409866Y12723D01*
X409383Y12706D01*
X408900Y12700D01*
X108900Y12700D01*
X108417Y12706D01*
X107934Y12723D01*
X107451Y12753D01*
X106970Y12793D01*
X106489Y12846D01*
X106010Y12910D01*
X105533Y12985D01*
X105057Y13073D01*
X104584Y13171D01*
X104114Y13281D01*
X103646Y13402D01*
X103181Y13535D01*
X102720Y13679D01*
X102262Y13834D01*
X101808Y14000D01*
X101358Y14177D01*
X100913Y14364D01*
X100472Y14563D01*
X100036Y14771D01*
X99606Y14991D01*
X99180Y15221D01*
X98761Y15461D01*
X98347Y15711D01*
X97940Y15971D01*
X97539Y16240D01*
X97144Y16520D01*
X96757Y16808D01*
X96376Y17107D01*
X96003Y17414D01*
X95638Y17730D01*
X95280Y18055D01*
X94930Y18388D01*
X94588Y18730D01*
X94255Y19080D01*
X93930Y19438D01*
X93614Y19803D01*
X93307Y20176D01*
X93008Y20557D01*
X92720Y20944D01*
X92440Y21339D01*
X92171Y21740D01*
X91911Y22147D01*
X91661Y22561D01*
X91421Y22980D01*
X91191Y23406D01*
X90971Y23836D01*
X90763Y24272D01*
X90564Y24713D01*
X90377Y25158D01*
X90200Y25608D01*
X90034Y26062D01*
X89879Y26520D01*
X89735Y26981D01*
X89602Y27446D01*
X89481Y27914D01*
X89371Y28384D01*
X89273Y28857D01*
X89185Y29333D01*
X89110Y29810D01*
X89046Y30289D01*
X88993Y30770D01*
X88953Y31251D01*
X88923Y31734D01*
X88906Y32217D01*
X88900Y32700D01*
D12*
X89662Y227386D02*
X89662Y235458D01*
X89662Y227386D02*
X89664Y227275D01*
X89670Y227165D01*
X89680Y227054D01*
X89694Y226944D01*
X89711Y226835D01*
X89733Y226726D01*
X89758Y226618D01*
X89788Y226512D01*
X89821Y226406D01*
X89858Y226301D01*
X89898Y226198D01*
X89943Y226097D01*
X89990Y225997D01*
X90042Y225898D01*
X90097Y225802D01*
X90155Y225708D01*
X90216Y225616D01*
X90281Y225526D01*
X90349Y225438D01*
X90420Y225353D01*
X90494Y225271D01*
X90571Y225191D01*
X90651Y225114D01*
X90733Y225040D01*
X90818Y224969D01*
X90906Y224901D01*
X90996Y224836D01*
X91088Y224775D01*
X91182Y224717D01*
X91278Y224662D01*
X91377Y224610D01*
X91477Y224563D01*
X91578Y224518D01*
X91681Y224478D01*
X91786Y224441D01*
X91892Y224408D01*
X91998Y224378D01*
X92106Y224353D01*
X92215Y224331D01*
X92324Y224314D01*
X92434Y224300D01*
X92545Y224290D01*
X92655Y224284D01*
X92766Y224282D01*
X92877Y224284D01*
X92987Y224290D01*
X93098Y224300D01*
X93208Y224314D01*
X93317Y224331D01*
X93426Y224353D01*
X93534Y224378D01*
X93640Y224408D01*
X93746Y224441D01*
X93851Y224478D01*
X93954Y224518D01*
X94055Y224563D01*
X94155Y224610D01*
X94254Y224662D01*
X94350Y224717D01*
X94444Y224775D01*
X94536Y224836D01*
X94626Y224901D01*
X94714Y224969D01*
X94799Y225040D01*
X94881Y225114D01*
X94961Y225191D01*
X95038Y225271D01*
X95112Y225353D01*
X95183Y225438D01*
X95251Y225526D01*
X95316Y225616D01*
X95377Y225708D01*
X95435Y225802D01*
X95490Y225898D01*
X95542Y225997D01*
X95589Y226097D01*
X95634Y226198D01*
X95674Y226301D01*
X95711Y226406D01*
X95744Y226512D01*
X95774Y226618D01*
X95799Y226726D01*
X95821Y226835D01*
X95838Y226944D01*
X95852Y227054D01*
X95862Y227165D01*
X95868Y227275D01*
X95870Y227386D01*
X95871Y227386D02*
X95871Y235458D01*
X101473Y224282D02*
X104577Y224282D01*
X104688Y224284D01*
X104798Y224290D01*
X104909Y224300D01*
X105019Y224314D01*
X105128Y224331D01*
X105237Y224353D01*
X105345Y224378D01*
X105451Y224408D01*
X105557Y224441D01*
X105662Y224478D01*
X105765Y224518D01*
X105866Y224563D01*
X105966Y224610D01*
X106065Y224662D01*
X106161Y224717D01*
X106255Y224775D01*
X106347Y224836D01*
X106437Y224901D01*
X106525Y224969D01*
X106610Y225040D01*
X106692Y225114D01*
X106772Y225191D01*
X106849Y225271D01*
X106923Y225353D01*
X106994Y225438D01*
X107062Y225526D01*
X107127Y225616D01*
X107188Y225708D01*
X107246Y225802D01*
X107301Y225898D01*
X107353Y225997D01*
X107400Y226097D01*
X107445Y226198D01*
X107485Y226301D01*
X107522Y226406D01*
X107555Y226512D01*
X107585Y226618D01*
X107610Y226726D01*
X107632Y226835D01*
X107649Y226944D01*
X107663Y227054D01*
X107673Y227165D01*
X107679Y227275D01*
X107681Y227386D01*
X107679Y227497D01*
X107673Y227607D01*
X107663Y227718D01*
X107649Y227828D01*
X107632Y227937D01*
X107610Y228046D01*
X107585Y228154D01*
X107555Y228260D01*
X107522Y228366D01*
X107485Y228471D01*
X107445Y228574D01*
X107400Y228675D01*
X107353Y228775D01*
X107301Y228874D01*
X107246Y228970D01*
X107188Y229064D01*
X107127Y229156D01*
X107062Y229246D01*
X106994Y229334D01*
X106923Y229419D01*
X106849Y229501D01*
X106772Y229581D01*
X106692Y229658D01*
X106610Y229732D01*
X106525Y229803D01*
X106437Y229871D01*
X106347Y229936D01*
X106255Y229997D01*
X106161Y230055D01*
X106065Y230110D01*
X105966Y230162D01*
X105866Y230209D01*
X105765Y230254D01*
X105662Y230294D01*
X105557Y230331D01*
X105451Y230364D01*
X105345Y230394D01*
X105237Y230419D01*
X105128Y230441D01*
X105019Y230458D01*
X104909Y230472D01*
X104798Y230482D01*
X104688Y230488D01*
X104577Y230490D01*
X105198Y235458D02*
X101473Y235458D01*
X105198Y235458D02*
X105297Y235456D01*
X105395Y235450D01*
X105494Y235440D01*
X105591Y235427D01*
X105689Y235409D01*
X105785Y235388D01*
X105881Y235362D01*
X105975Y235333D01*
X106068Y235301D01*
X106160Y235264D01*
X106250Y235224D01*
X106339Y235180D01*
X106426Y235133D01*
X106511Y235083D01*
X106593Y235029D01*
X106674Y234972D01*
X106752Y234912D01*
X106828Y234848D01*
X106901Y234782D01*
X106972Y234713D01*
X107040Y234641D01*
X107104Y234566D01*
X107166Y234489D01*
X107225Y234410D01*
X107280Y234328D01*
X107333Y234244D01*
X107381Y234159D01*
X107427Y234071D01*
X107469Y233981D01*
X107507Y233890D01*
X107541Y233798D01*
X107572Y233704D01*
X107599Y233609D01*
X107623Y233513D01*
X107642Y233416D01*
X107658Y233319D01*
X107670Y233221D01*
X107678Y233122D01*
X107682Y233023D01*
X107682Y232925D01*
X107678Y232826D01*
X107670Y232727D01*
X107658Y232629D01*
X107642Y232532D01*
X107623Y232435D01*
X107599Y232339D01*
X107572Y232244D01*
X107541Y232150D01*
X107507Y232058D01*
X107469Y231967D01*
X107427Y231877D01*
X107381Y231789D01*
X107333Y231704D01*
X107280Y231620D01*
X107225Y231538D01*
X107166Y231459D01*
X107104Y231382D01*
X107040Y231307D01*
X106972Y231235D01*
X106901Y231166D01*
X106828Y231100D01*
X106752Y231036D01*
X106674Y230976D01*
X106593Y230919D01*
X106511Y230865D01*
X106426Y230815D01*
X106339Y230768D01*
X106250Y230724D01*
X106160Y230684D01*
X106068Y230647D01*
X105975Y230615D01*
X105881Y230586D01*
X105785Y230560D01*
X105689Y230539D01*
X105591Y230521D01*
X105494Y230508D01*
X105395Y230498D01*
X105297Y230492D01*
X105198Y230490D01*
X105198Y230491D02*
X102715Y230491D01*
D11*
X215900Y279400D02*
X215900Y304800D01*
X266700Y304800D01*
X266700Y279400D01*
X215900Y279400D01*
X222250Y266700D02*
X234950Y266700D01*
X228600Y260350D02*
X228600Y273050D01*
X254000Y273050D02*
X254000Y260350D01*
D12*
X208224Y281432D02*
X200152Y281432D01*
X208224Y281432D02*
X208335Y281434D01*
X208445Y281440D01*
X208556Y281450D01*
X208666Y281464D01*
X208775Y281481D01*
X208884Y281503D01*
X208992Y281528D01*
X209098Y281558D01*
X209204Y281591D01*
X209309Y281628D01*
X209412Y281668D01*
X209513Y281713D01*
X209613Y281760D01*
X209712Y281812D01*
X209808Y281867D01*
X209902Y281925D01*
X209994Y281986D01*
X210084Y282051D01*
X210172Y282119D01*
X210257Y282190D01*
X210339Y282264D01*
X210419Y282341D01*
X210496Y282421D01*
X210570Y282503D01*
X210641Y282588D01*
X210709Y282676D01*
X210774Y282766D01*
X210835Y282858D01*
X210893Y282952D01*
X210948Y283048D01*
X211000Y283147D01*
X211047Y283247D01*
X211092Y283348D01*
X211132Y283451D01*
X211169Y283556D01*
X211202Y283662D01*
X211232Y283768D01*
X211257Y283876D01*
X211279Y283985D01*
X211296Y284094D01*
X211310Y284204D01*
X211320Y284315D01*
X211326Y284425D01*
X211328Y284536D01*
X211326Y284647D01*
X211320Y284757D01*
X211310Y284868D01*
X211296Y284978D01*
X211279Y285087D01*
X211257Y285196D01*
X211232Y285304D01*
X211202Y285410D01*
X211169Y285516D01*
X211132Y285621D01*
X211092Y285724D01*
X211047Y285825D01*
X211000Y285925D01*
X210948Y286024D01*
X210893Y286120D01*
X210835Y286214D01*
X210774Y286306D01*
X210709Y286396D01*
X210641Y286484D01*
X210570Y286569D01*
X210496Y286651D01*
X210419Y286731D01*
X210339Y286808D01*
X210257Y286882D01*
X210172Y286953D01*
X210084Y287021D01*
X209994Y287086D01*
X209902Y287147D01*
X209808Y287205D01*
X209712Y287260D01*
X209613Y287312D01*
X209513Y287359D01*
X209412Y287404D01*
X209309Y287444D01*
X209204Y287481D01*
X209098Y287514D01*
X208992Y287544D01*
X208884Y287569D01*
X208775Y287591D01*
X208666Y287608D01*
X208556Y287622D01*
X208445Y287632D01*
X208335Y287638D01*
X208224Y287640D01*
X208224Y287641D02*
X200152Y287641D01*
X200152Y295727D02*
X208844Y293243D01*
X208844Y299452D01*
X206361Y297589D02*
X211328Y297589D01*
D11*
X241300Y266700D02*
X241300Y256540D01*
D12*
X196342Y257302D02*
X196342Y268478D01*
X199446Y268478D01*
X199557Y268476D01*
X199667Y268470D01*
X199778Y268460D01*
X199888Y268446D01*
X199997Y268429D01*
X200106Y268407D01*
X200214Y268382D01*
X200320Y268352D01*
X200426Y268319D01*
X200531Y268282D01*
X200634Y268242D01*
X200735Y268197D01*
X200835Y268150D01*
X200934Y268098D01*
X201030Y268043D01*
X201124Y267985D01*
X201216Y267924D01*
X201306Y267859D01*
X201394Y267791D01*
X201479Y267720D01*
X201561Y267646D01*
X201641Y267569D01*
X201718Y267489D01*
X201792Y267407D01*
X201863Y267322D01*
X201931Y267234D01*
X201996Y267144D01*
X202057Y267052D01*
X202115Y266958D01*
X202170Y266862D01*
X202222Y266763D01*
X202269Y266663D01*
X202314Y266562D01*
X202354Y266459D01*
X202391Y266354D01*
X202424Y266248D01*
X202454Y266142D01*
X202479Y266034D01*
X202501Y265925D01*
X202518Y265816D01*
X202532Y265706D01*
X202542Y265595D01*
X202548Y265485D01*
X202550Y265374D01*
X202548Y265263D01*
X202542Y265153D01*
X202532Y265042D01*
X202518Y264932D01*
X202501Y264823D01*
X202479Y264714D01*
X202454Y264606D01*
X202424Y264500D01*
X202391Y264394D01*
X202354Y264289D01*
X202314Y264186D01*
X202269Y264085D01*
X202222Y263985D01*
X202170Y263886D01*
X202115Y263790D01*
X202057Y263696D01*
X201996Y263604D01*
X201931Y263514D01*
X201863Y263426D01*
X201792Y263341D01*
X201718Y263259D01*
X201641Y263179D01*
X201561Y263102D01*
X201479Y263028D01*
X201394Y262957D01*
X201306Y262889D01*
X201216Y262824D01*
X201124Y262763D01*
X201030Y262705D01*
X200934Y262650D01*
X200835Y262598D01*
X200735Y262551D01*
X200634Y262506D01*
X200531Y262466D01*
X200426Y262429D01*
X200320Y262396D01*
X200214Y262366D01*
X200106Y262341D01*
X199997Y262319D01*
X199888Y262302D01*
X199778Y262288D01*
X199667Y262278D01*
X199557Y262272D01*
X199446Y262270D01*
X199446Y262269D02*
X196342Y262269D01*
X200067Y262269D02*
X202551Y257302D01*
X211095Y268478D02*
X211199Y268476D01*
X211304Y268470D01*
X211408Y268460D01*
X211511Y268447D01*
X211614Y268429D01*
X211717Y268408D01*
X211818Y268383D01*
X211919Y268354D01*
X212018Y268321D01*
X212116Y268285D01*
X212212Y268245D01*
X212307Y268201D01*
X212401Y268154D01*
X212492Y268104D01*
X212581Y268050D01*
X212669Y267993D01*
X212754Y267932D01*
X212837Y267868D01*
X212917Y267802D01*
X212995Y267732D01*
X213071Y267660D01*
X213143Y267584D01*
X213213Y267506D01*
X213279Y267426D01*
X213343Y267343D01*
X213404Y267258D01*
X213461Y267170D01*
X213515Y267081D01*
X213565Y266990D01*
X213612Y266896D01*
X213656Y266801D01*
X213696Y266705D01*
X213732Y266607D01*
X213765Y266508D01*
X213794Y266407D01*
X213819Y266306D01*
X213840Y266203D01*
X213858Y266100D01*
X213871Y265997D01*
X213881Y265893D01*
X213887Y265788D01*
X213889Y265684D01*
X211095Y268479D02*
X210976Y268477D01*
X210858Y268471D01*
X210739Y268461D01*
X210621Y268448D01*
X210504Y268430D01*
X210387Y268408D01*
X210271Y268383D01*
X210156Y268354D01*
X210041Y268321D01*
X209928Y268284D01*
X209817Y268244D01*
X209706Y268200D01*
X209598Y268152D01*
X209491Y268101D01*
X209385Y268046D01*
X209282Y267987D01*
X209180Y267926D01*
X209081Y267861D01*
X208983Y267792D01*
X208889Y267721D01*
X208796Y267646D01*
X208706Y267569D01*
X208619Y267488D01*
X208534Y267405D01*
X208452Y267319D01*
X208373Y267230D01*
X208297Y267139D01*
X208224Y267045D01*
X208155Y266949D01*
X208088Y266850D01*
X208025Y266750D01*
X207965Y266647D01*
X207908Y266543D01*
X207856Y266436D01*
X207806Y266328D01*
X207760Y266219D01*
X207718Y266107D01*
X207680Y265995D01*
X212958Y263511D02*
X213033Y263585D01*
X213105Y263662D01*
X213175Y263741D01*
X213242Y263823D01*
X213306Y263907D01*
X213367Y263993D01*
X213425Y264081D01*
X213480Y264172D01*
X213532Y264264D01*
X213580Y264358D01*
X213625Y264453D01*
X213667Y264551D01*
X213705Y264649D01*
X213740Y264749D01*
X213771Y264850D01*
X213798Y264952D01*
X213822Y265055D01*
X213843Y265158D01*
X213859Y265263D01*
X213872Y265368D01*
X213882Y265473D01*
X213887Y265578D01*
X213889Y265684D01*
X212958Y263511D02*
X207680Y257302D01*
X213889Y257302D01*
D11*
X302260Y279400D02*
X302260Y304800D01*
X353060Y304800D01*
X353060Y279400D01*
X302260Y279400D01*
X308610Y266700D02*
X321310Y266700D01*
X314960Y260350D02*
X314960Y273050D01*
X340360Y273050D02*
X340360Y260350D01*
D12*
X292044Y281432D02*
X283972Y281432D01*
X292044Y281432D02*
X292155Y281434D01*
X292265Y281440D01*
X292376Y281450D01*
X292486Y281464D01*
X292595Y281481D01*
X292704Y281503D01*
X292812Y281528D01*
X292918Y281558D01*
X293024Y281591D01*
X293129Y281628D01*
X293232Y281668D01*
X293333Y281713D01*
X293433Y281760D01*
X293532Y281812D01*
X293628Y281867D01*
X293722Y281925D01*
X293814Y281986D01*
X293904Y282051D01*
X293992Y282119D01*
X294077Y282190D01*
X294159Y282264D01*
X294239Y282341D01*
X294316Y282421D01*
X294390Y282503D01*
X294461Y282588D01*
X294529Y282676D01*
X294594Y282766D01*
X294655Y282858D01*
X294713Y282952D01*
X294768Y283048D01*
X294820Y283147D01*
X294867Y283247D01*
X294912Y283348D01*
X294952Y283451D01*
X294989Y283556D01*
X295022Y283662D01*
X295052Y283768D01*
X295077Y283876D01*
X295099Y283985D01*
X295116Y284094D01*
X295130Y284204D01*
X295140Y284315D01*
X295146Y284425D01*
X295148Y284536D01*
X295146Y284647D01*
X295140Y284757D01*
X295130Y284868D01*
X295116Y284978D01*
X295099Y285087D01*
X295077Y285196D01*
X295052Y285304D01*
X295022Y285410D01*
X294989Y285516D01*
X294952Y285621D01*
X294912Y285724D01*
X294867Y285825D01*
X294820Y285925D01*
X294768Y286024D01*
X294713Y286120D01*
X294655Y286214D01*
X294594Y286306D01*
X294529Y286396D01*
X294461Y286484D01*
X294390Y286569D01*
X294316Y286651D01*
X294239Y286731D01*
X294159Y286808D01*
X294077Y286882D01*
X293992Y286953D01*
X293904Y287021D01*
X293814Y287086D01*
X293722Y287147D01*
X293628Y287205D01*
X293532Y287260D01*
X293433Y287312D01*
X293333Y287359D01*
X293232Y287404D01*
X293129Y287444D01*
X293024Y287481D01*
X292918Y287514D01*
X292812Y287544D01*
X292704Y287569D01*
X292595Y287591D01*
X292486Y287608D01*
X292376Y287622D01*
X292265Y287632D01*
X292155Y287638D01*
X292044Y287640D01*
X292044Y287641D02*
X283972Y287641D01*
X295148Y293243D02*
X295148Y296968D01*
X295146Y297066D01*
X295140Y297163D01*
X295131Y297260D01*
X295117Y297357D01*
X295100Y297453D01*
X295079Y297548D01*
X295055Y297642D01*
X295026Y297736D01*
X294994Y297828D01*
X294959Y297919D01*
X294920Y298008D01*
X294877Y298096D01*
X294831Y298182D01*
X294782Y298266D01*
X294729Y298348D01*
X294674Y298428D01*
X294615Y298506D01*
X294553Y298581D01*
X294488Y298654D01*
X294420Y298724D01*
X294350Y298792D01*
X294277Y298857D01*
X294202Y298919D01*
X294124Y298978D01*
X294044Y299033D01*
X293962Y299086D01*
X293878Y299135D01*
X293792Y299181D01*
X293704Y299224D01*
X293615Y299263D01*
X293524Y299298D01*
X293432Y299330D01*
X293338Y299359D01*
X293244Y299383D01*
X293149Y299404D01*
X293053Y299421D01*
X292956Y299435D01*
X292859Y299444D01*
X292762Y299450D01*
X292664Y299452D01*
X291423Y299452D01*
X291325Y299450D01*
X291228Y299444D01*
X291131Y299435D01*
X291034Y299421D01*
X290938Y299404D01*
X290843Y299383D01*
X290749Y299359D01*
X290655Y299330D01*
X290563Y299298D01*
X290472Y299263D01*
X290383Y299224D01*
X290295Y299181D01*
X290209Y299135D01*
X290125Y299086D01*
X290043Y299033D01*
X289963Y298978D01*
X289885Y298919D01*
X289810Y298857D01*
X289737Y298792D01*
X289667Y298724D01*
X289599Y298654D01*
X289534Y298581D01*
X289472Y298506D01*
X289413Y298428D01*
X289358Y298348D01*
X289305Y298266D01*
X289256Y298182D01*
X289210Y298096D01*
X289167Y298008D01*
X289128Y297919D01*
X289093Y297828D01*
X289061Y297736D01*
X289032Y297642D01*
X289008Y297548D01*
X288987Y297453D01*
X288970Y297357D01*
X288956Y297260D01*
X288947Y297163D01*
X288941Y297066D01*
X288939Y296968D01*
X288939Y293243D01*
X283972Y293243D01*
X283972Y299452D01*
D11*
X327660Y266700D02*
X327660Y256540D01*
D12*
X280162Y257302D02*
X280162Y268478D01*
X283266Y268478D01*
X283377Y268476D01*
X283487Y268470D01*
X283598Y268460D01*
X283708Y268446D01*
X283817Y268429D01*
X283926Y268407D01*
X284034Y268382D01*
X284140Y268352D01*
X284246Y268319D01*
X284351Y268282D01*
X284454Y268242D01*
X284555Y268197D01*
X284655Y268150D01*
X284754Y268098D01*
X284850Y268043D01*
X284944Y267985D01*
X285036Y267924D01*
X285126Y267859D01*
X285214Y267791D01*
X285299Y267720D01*
X285381Y267646D01*
X285461Y267569D01*
X285538Y267489D01*
X285612Y267407D01*
X285683Y267322D01*
X285751Y267234D01*
X285816Y267144D01*
X285877Y267052D01*
X285935Y266958D01*
X285990Y266862D01*
X286042Y266763D01*
X286089Y266663D01*
X286134Y266562D01*
X286174Y266459D01*
X286211Y266354D01*
X286244Y266248D01*
X286274Y266142D01*
X286299Y266034D01*
X286321Y265925D01*
X286338Y265816D01*
X286352Y265706D01*
X286362Y265595D01*
X286368Y265485D01*
X286370Y265374D01*
X286368Y265263D01*
X286362Y265153D01*
X286352Y265042D01*
X286338Y264932D01*
X286321Y264823D01*
X286299Y264714D01*
X286274Y264606D01*
X286244Y264500D01*
X286211Y264394D01*
X286174Y264289D01*
X286134Y264186D01*
X286089Y264085D01*
X286042Y263985D01*
X285990Y263886D01*
X285935Y263790D01*
X285877Y263696D01*
X285816Y263604D01*
X285751Y263514D01*
X285683Y263426D01*
X285612Y263341D01*
X285538Y263259D01*
X285461Y263179D01*
X285381Y263102D01*
X285299Y263028D01*
X285214Y262957D01*
X285126Y262889D01*
X285036Y262824D01*
X284944Y262763D01*
X284850Y262705D01*
X284754Y262650D01*
X284655Y262598D01*
X284555Y262551D01*
X284454Y262506D01*
X284351Y262466D01*
X284246Y262429D01*
X284140Y262396D01*
X284034Y262366D01*
X283926Y262341D01*
X283817Y262319D01*
X283708Y262302D01*
X283598Y262288D01*
X283487Y262278D01*
X283377Y262272D01*
X283266Y262270D01*
X283266Y262269D02*
X280162Y262269D01*
X283887Y262269D02*
X286371Y257302D01*
X291500Y257302D02*
X294604Y257302D01*
X294715Y257304D01*
X294825Y257310D01*
X294936Y257320D01*
X295046Y257334D01*
X295155Y257351D01*
X295264Y257373D01*
X295372Y257398D01*
X295478Y257428D01*
X295584Y257461D01*
X295689Y257498D01*
X295792Y257538D01*
X295893Y257583D01*
X295993Y257630D01*
X296092Y257682D01*
X296188Y257737D01*
X296282Y257795D01*
X296374Y257856D01*
X296464Y257921D01*
X296552Y257989D01*
X296637Y258060D01*
X296719Y258134D01*
X296799Y258211D01*
X296876Y258291D01*
X296950Y258373D01*
X297021Y258458D01*
X297089Y258546D01*
X297154Y258636D01*
X297215Y258728D01*
X297273Y258822D01*
X297328Y258918D01*
X297380Y259017D01*
X297427Y259117D01*
X297472Y259218D01*
X297512Y259321D01*
X297549Y259426D01*
X297582Y259532D01*
X297612Y259638D01*
X297637Y259746D01*
X297659Y259855D01*
X297676Y259964D01*
X297690Y260074D01*
X297700Y260185D01*
X297706Y260295D01*
X297708Y260406D01*
X297706Y260517D01*
X297700Y260627D01*
X297690Y260738D01*
X297676Y260848D01*
X297659Y260957D01*
X297637Y261066D01*
X297612Y261174D01*
X297582Y261280D01*
X297549Y261386D01*
X297512Y261491D01*
X297472Y261594D01*
X297427Y261695D01*
X297380Y261795D01*
X297328Y261894D01*
X297273Y261990D01*
X297215Y262084D01*
X297154Y262176D01*
X297089Y262266D01*
X297021Y262354D01*
X296950Y262439D01*
X296876Y262521D01*
X296799Y262601D01*
X296719Y262678D01*
X296637Y262752D01*
X296552Y262823D01*
X296464Y262891D01*
X296374Y262956D01*
X296282Y263017D01*
X296188Y263075D01*
X296092Y263130D01*
X295993Y263182D01*
X295893Y263229D01*
X295792Y263274D01*
X295689Y263314D01*
X295584Y263351D01*
X295478Y263384D01*
X295372Y263414D01*
X295264Y263439D01*
X295155Y263461D01*
X295046Y263478D01*
X294936Y263492D01*
X294825Y263502D01*
X294715Y263508D01*
X294604Y263510D01*
X295225Y268478D02*
X291500Y268478D01*
X295225Y268478D02*
X295324Y268476D01*
X295422Y268470D01*
X295521Y268460D01*
X295618Y268447D01*
X295716Y268429D01*
X295812Y268408D01*
X295908Y268382D01*
X296002Y268353D01*
X296095Y268321D01*
X296187Y268284D01*
X296277Y268244D01*
X296366Y268200D01*
X296453Y268153D01*
X296538Y268103D01*
X296620Y268049D01*
X296701Y267992D01*
X296779Y267932D01*
X296855Y267868D01*
X296928Y267802D01*
X296999Y267733D01*
X297067Y267661D01*
X297131Y267586D01*
X297193Y267509D01*
X297252Y267430D01*
X297307Y267348D01*
X297360Y267264D01*
X297408Y267179D01*
X297454Y267091D01*
X297496Y267001D01*
X297534Y266910D01*
X297568Y266818D01*
X297599Y266724D01*
X297626Y266629D01*
X297650Y266533D01*
X297669Y266436D01*
X297685Y266339D01*
X297697Y266241D01*
X297705Y266142D01*
X297709Y266043D01*
X297709Y265945D01*
X297705Y265846D01*
X297697Y265747D01*
X297685Y265649D01*
X297669Y265552D01*
X297650Y265455D01*
X297626Y265359D01*
X297599Y265264D01*
X297568Y265170D01*
X297534Y265078D01*
X297496Y264987D01*
X297454Y264897D01*
X297408Y264809D01*
X297360Y264724D01*
X297307Y264640D01*
X297252Y264558D01*
X297193Y264479D01*
X297131Y264402D01*
X297067Y264327D01*
X296999Y264255D01*
X296928Y264186D01*
X296855Y264120D01*
X296779Y264056D01*
X296701Y263996D01*
X296620Y263939D01*
X296538Y263885D01*
X296453Y263835D01*
X296366Y263788D01*
X296277Y263744D01*
X296187Y263704D01*
X296095Y263667D01*
X296002Y263635D01*
X295908Y263606D01*
X295812Y263580D01*
X295716Y263559D01*
X295618Y263541D01*
X295521Y263528D01*
X295422Y263518D01*
X295324Y263512D01*
X295225Y263510D01*
X295225Y263511D02*
X292742Y263511D01*
D11*
X393700Y279400D02*
X393700Y304800D01*
X444500Y304800D01*
X444500Y279400D01*
X393700Y279400D01*
X400050Y266700D02*
X412750Y266700D01*
X406400Y260350D02*
X406400Y273050D01*
X431800Y273050D02*
X431800Y260350D01*
D12*
X383484Y283972D02*
X375412Y283972D01*
X383484Y283972D02*
X383595Y283974D01*
X383705Y283980D01*
X383816Y283990D01*
X383926Y284004D01*
X384035Y284021D01*
X384144Y284043D01*
X384252Y284068D01*
X384358Y284098D01*
X384464Y284131D01*
X384569Y284168D01*
X384672Y284208D01*
X384773Y284253D01*
X384873Y284300D01*
X384972Y284352D01*
X385068Y284407D01*
X385162Y284465D01*
X385254Y284526D01*
X385344Y284591D01*
X385432Y284659D01*
X385517Y284730D01*
X385599Y284804D01*
X385679Y284881D01*
X385756Y284961D01*
X385830Y285043D01*
X385901Y285128D01*
X385969Y285216D01*
X386034Y285306D01*
X386095Y285398D01*
X386153Y285492D01*
X386208Y285588D01*
X386260Y285687D01*
X386307Y285787D01*
X386352Y285888D01*
X386392Y285991D01*
X386429Y286096D01*
X386462Y286202D01*
X386492Y286308D01*
X386517Y286416D01*
X386539Y286525D01*
X386556Y286634D01*
X386570Y286744D01*
X386580Y286855D01*
X386586Y286965D01*
X386588Y287076D01*
X386586Y287187D01*
X386580Y287297D01*
X386570Y287408D01*
X386556Y287518D01*
X386539Y287627D01*
X386517Y287736D01*
X386492Y287844D01*
X386462Y287950D01*
X386429Y288056D01*
X386392Y288161D01*
X386352Y288264D01*
X386307Y288365D01*
X386260Y288465D01*
X386208Y288564D01*
X386153Y288660D01*
X386095Y288754D01*
X386034Y288846D01*
X385969Y288936D01*
X385901Y289024D01*
X385830Y289109D01*
X385756Y289191D01*
X385679Y289271D01*
X385599Y289348D01*
X385517Y289422D01*
X385432Y289493D01*
X385344Y289561D01*
X385254Y289626D01*
X385162Y289687D01*
X385068Y289745D01*
X384972Y289800D01*
X384873Y289852D01*
X384773Y289899D01*
X384672Y289944D01*
X384569Y289984D01*
X384464Y290021D01*
X384358Y290054D01*
X384252Y290084D01*
X384144Y290109D01*
X384035Y290131D01*
X383926Y290148D01*
X383816Y290162D01*
X383705Y290172D01*
X383595Y290178D01*
X383484Y290180D01*
X383484Y290181D02*
X375412Y290181D01*
X380379Y295783D02*
X380379Y299508D01*
X380381Y299606D01*
X380387Y299703D01*
X380396Y299800D01*
X380410Y299897D01*
X380427Y299993D01*
X380448Y300088D01*
X380472Y300182D01*
X380501Y300276D01*
X380533Y300368D01*
X380568Y300459D01*
X380607Y300548D01*
X380650Y300636D01*
X380696Y300722D01*
X380745Y300806D01*
X380798Y300888D01*
X380853Y300968D01*
X380912Y301046D01*
X380974Y301121D01*
X381039Y301194D01*
X381107Y301264D01*
X381177Y301332D01*
X381250Y301397D01*
X381325Y301459D01*
X381403Y301518D01*
X381483Y301573D01*
X381565Y301626D01*
X381649Y301675D01*
X381735Y301721D01*
X381823Y301764D01*
X381912Y301803D01*
X382003Y301838D01*
X382095Y301870D01*
X382189Y301899D01*
X382283Y301923D01*
X382378Y301944D01*
X382474Y301961D01*
X382571Y301975D01*
X382668Y301984D01*
X382765Y301990D01*
X382863Y301992D01*
X383484Y301992D01*
X383484Y301991D02*
X383595Y301989D01*
X383705Y301983D01*
X383816Y301973D01*
X383926Y301959D01*
X384035Y301942D01*
X384144Y301920D01*
X384252Y301895D01*
X384358Y301865D01*
X384464Y301832D01*
X384569Y301795D01*
X384672Y301755D01*
X384773Y301710D01*
X384873Y301663D01*
X384972Y301611D01*
X385068Y301556D01*
X385162Y301498D01*
X385254Y301437D01*
X385344Y301372D01*
X385432Y301304D01*
X385517Y301233D01*
X385599Y301159D01*
X385679Y301082D01*
X385756Y301002D01*
X385830Y300920D01*
X385901Y300835D01*
X385969Y300747D01*
X386034Y300657D01*
X386095Y300565D01*
X386153Y300471D01*
X386208Y300375D01*
X386260Y300276D01*
X386307Y300176D01*
X386352Y300075D01*
X386392Y299972D01*
X386429Y299867D01*
X386462Y299761D01*
X386492Y299655D01*
X386517Y299547D01*
X386539Y299438D01*
X386556Y299329D01*
X386570Y299219D01*
X386580Y299108D01*
X386586Y298998D01*
X386588Y298887D01*
X386586Y298776D01*
X386580Y298666D01*
X386570Y298555D01*
X386556Y298445D01*
X386539Y298336D01*
X386517Y298227D01*
X386492Y298119D01*
X386462Y298013D01*
X386429Y297907D01*
X386392Y297802D01*
X386352Y297699D01*
X386307Y297598D01*
X386260Y297498D01*
X386208Y297399D01*
X386153Y297303D01*
X386095Y297209D01*
X386034Y297117D01*
X385969Y297027D01*
X385901Y296939D01*
X385830Y296854D01*
X385756Y296772D01*
X385679Y296692D01*
X385599Y296615D01*
X385517Y296541D01*
X385432Y296470D01*
X385344Y296402D01*
X385254Y296337D01*
X385162Y296276D01*
X385068Y296218D01*
X384972Y296163D01*
X384873Y296111D01*
X384773Y296064D01*
X384672Y296019D01*
X384569Y295979D01*
X384464Y295942D01*
X384358Y295909D01*
X384252Y295879D01*
X384144Y295854D01*
X384035Y295832D01*
X383926Y295815D01*
X383816Y295801D01*
X383705Y295791D01*
X383595Y295785D01*
X383484Y295783D01*
X380379Y295783D01*
X380240Y295785D01*
X380100Y295791D01*
X379962Y295801D01*
X379823Y295814D01*
X379685Y295832D01*
X379547Y295853D01*
X379410Y295878D01*
X379274Y295908D01*
X379138Y295940D01*
X379004Y295977D01*
X378871Y296018D01*
X378739Y296062D01*
X378608Y296110D01*
X378478Y296161D01*
X378350Y296216D01*
X378224Y296275D01*
X378099Y296337D01*
X377976Y296403D01*
X377855Y296472D01*
X377736Y296544D01*
X377619Y296620D01*
X377505Y296699D01*
X377392Y296781D01*
X377282Y296867D01*
X377174Y296955D01*
X377069Y297046D01*
X376967Y297141D01*
X376867Y297238D01*
X376770Y297338D01*
X376675Y297440D01*
X376584Y297545D01*
X376496Y297653D01*
X376410Y297763D01*
X376328Y297876D01*
X376249Y297990D01*
X376173Y298107D01*
X376101Y298226D01*
X376032Y298347D01*
X375966Y298470D01*
X375904Y298595D01*
X375845Y298721D01*
X375790Y298849D01*
X375739Y298979D01*
X375691Y299109D01*
X375647Y299242D01*
X375606Y299375D01*
X375569Y299509D01*
X375537Y299645D01*
X375507Y299781D01*
X375482Y299918D01*
X375461Y300056D01*
X375443Y300194D01*
X375430Y300332D01*
X375420Y300471D01*
X375414Y300611D01*
X375412Y300750D01*
D11*
X419100Y266700D02*
X419100Y256540D01*
D12*
X374142Y257302D02*
X374142Y268478D01*
X377246Y268478D01*
X377357Y268476D01*
X377467Y268470D01*
X377578Y268460D01*
X377688Y268446D01*
X377797Y268429D01*
X377906Y268407D01*
X378014Y268382D01*
X378120Y268352D01*
X378226Y268319D01*
X378331Y268282D01*
X378434Y268242D01*
X378535Y268197D01*
X378635Y268150D01*
X378734Y268098D01*
X378830Y268043D01*
X378924Y267985D01*
X379016Y267924D01*
X379106Y267859D01*
X379194Y267791D01*
X379279Y267720D01*
X379361Y267646D01*
X379441Y267569D01*
X379518Y267489D01*
X379592Y267407D01*
X379663Y267322D01*
X379731Y267234D01*
X379796Y267144D01*
X379857Y267052D01*
X379915Y266958D01*
X379970Y266862D01*
X380022Y266763D01*
X380069Y266663D01*
X380114Y266562D01*
X380154Y266459D01*
X380191Y266354D01*
X380224Y266248D01*
X380254Y266142D01*
X380279Y266034D01*
X380301Y265925D01*
X380318Y265816D01*
X380332Y265706D01*
X380342Y265595D01*
X380348Y265485D01*
X380350Y265374D01*
X380348Y265263D01*
X380342Y265153D01*
X380332Y265042D01*
X380318Y264932D01*
X380301Y264823D01*
X380279Y264714D01*
X380254Y264606D01*
X380224Y264500D01*
X380191Y264394D01*
X380154Y264289D01*
X380114Y264186D01*
X380069Y264085D01*
X380022Y263985D01*
X379970Y263886D01*
X379915Y263790D01*
X379857Y263696D01*
X379796Y263604D01*
X379731Y263514D01*
X379663Y263426D01*
X379592Y263341D01*
X379518Y263259D01*
X379441Y263179D01*
X379361Y263102D01*
X379279Y263028D01*
X379194Y262957D01*
X379106Y262889D01*
X379016Y262824D01*
X378924Y262763D01*
X378830Y262705D01*
X378734Y262650D01*
X378635Y262598D01*
X378535Y262551D01*
X378434Y262506D01*
X378331Y262466D01*
X378226Y262429D01*
X378120Y262396D01*
X378014Y262366D01*
X377906Y262341D01*
X377797Y262319D01*
X377688Y262302D01*
X377578Y262288D01*
X377467Y262278D01*
X377357Y262272D01*
X377246Y262270D01*
X377246Y262269D02*
X374142Y262269D01*
X377867Y262269D02*
X380351Y257302D01*
X385480Y259786D02*
X387964Y268478D01*
X385480Y259786D02*
X391689Y259786D01*
X389826Y262269D02*
X389826Y257302D01*
D11*
X480060Y279400D02*
X480060Y304800D01*
X530860Y304800D01*
X530860Y279400D01*
X480060Y279400D01*
X486410Y266700D02*
X499110Y266700D01*
X492760Y260350D02*
X492760Y273050D01*
X518160Y273050D02*
X518160Y260350D01*
D12*
X469844Y283972D02*
X461772Y283972D01*
X469844Y283972D02*
X469955Y283974D01*
X470065Y283980D01*
X470176Y283990D01*
X470286Y284004D01*
X470395Y284021D01*
X470504Y284043D01*
X470612Y284068D01*
X470718Y284098D01*
X470824Y284131D01*
X470929Y284168D01*
X471032Y284208D01*
X471133Y284253D01*
X471233Y284300D01*
X471332Y284352D01*
X471428Y284407D01*
X471522Y284465D01*
X471614Y284526D01*
X471704Y284591D01*
X471792Y284659D01*
X471877Y284730D01*
X471959Y284804D01*
X472039Y284881D01*
X472116Y284961D01*
X472190Y285043D01*
X472261Y285128D01*
X472329Y285216D01*
X472394Y285306D01*
X472455Y285398D01*
X472513Y285492D01*
X472568Y285588D01*
X472620Y285687D01*
X472667Y285787D01*
X472712Y285888D01*
X472752Y285991D01*
X472789Y286096D01*
X472822Y286202D01*
X472852Y286308D01*
X472877Y286416D01*
X472899Y286525D01*
X472916Y286634D01*
X472930Y286744D01*
X472940Y286855D01*
X472946Y286965D01*
X472948Y287076D01*
X472946Y287187D01*
X472940Y287297D01*
X472930Y287408D01*
X472916Y287518D01*
X472899Y287627D01*
X472877Y287736D01*
X472852Y287844D01*
X472822Y287950D01*
X472789Y288056D01*
X472752Y288161D01*
X472712Y288264D01*
X472667Y288365D01*
X472620Y288465D01*
X472568Y288564D01*
X472513Y288660D01*
X472455Y288754D01*
X472394Y288846D01*
X472329Y288936D01*
X472261Y289024D01*
X472190Y289109D01*
X472116Y289191D01*
X472039Y289271D01*
X471959Y289348D01*
X471877Y289422D01*
X471792Y289493D01*
X471704Y289561D01*
X471614Y289626D01*
X471522Y289687D01*
X471428Y289745D01*
X471332Y289800D01*
X471233Y289852D01*
X471133Y289899D01*
X471032Y289944D01*
X470929Y289984D01*
X470824Y290021D01*
X470718Y290054D01*
X470612Y290084D01*
X470504Y290109D01*
X470395Y290131D01*
X470286Y290148D01*
X470176Y290162D01*
X470065Y290172D01*
X469955Y290178D01*
X469844Y290180D01*
X469844Y290181D02*
X461772Y290181D01*
X461772Y295783D02*
X463014Y295783D01*
X461772Y295783D02*
X461772Y301992D01*
X472948Y298887D01*
D11*
X505460Y266700D02*
X505460Y256540D01*
D12*
X457962Y257302D02*
X457962Y268478D01*
X461066Y268478D01*
X461177Y268476D01*
X461287Y268470D01*
X461398Y268460D01*
X461508Y268446D01*
X461617Y268429D01*
X461726Y268407D01*
X461834Y268382D01*
X461940Y268352D01*
X462046Y268319D01*
X462151Y268282D01*
X462254Y268242D01*
X462355Y268197D01*
X462455Y268150D01*
X462554Y268098D01*
X462650Y268043D01*
X462744Y267985D01*
X462836Y267924D01*
X462926Y267859D01*
X463014Y267791D01*
X463099Y267720D01*
X463181Y267646D01*
X463261Y267569D01*
X463338Y267489D01*
X463412Y267407D01*
X463483Y267322D01*
X463551Y267234D01*
X463616Y267144D01*
X463677Y267052D01*
X463735Y266958D01*
X463790Y266862D01*
X463842Y266763D01*
X463889Y266663D01*
X463934Y266562D01*
X463974Y266459D01*
X464011Y266354D01*
X464044Y266248D01*
X464074Y266142D01*
X464099Y266034D01*
X464121Y265925D01*
X464138Y265816D01*
X464152Y265706D01*
X464162Y265595D01*
X464168Y265485D01*
X464170Y265374D01*
X464168Y265263D01*
X464162Y265153D01*
X464152Y265042D01*
X464138Y264932D01*
X464121Y264823D01*
X464099Y264714D01*
X464074Y264606D01*
X464044Y264500D01*
X464011Y264394D01*
X463974Y264289D01*
X463934Y264186D01*
X463889Y264085D01*
X463842Y263985D01*
X463790Y263886D01*
X463735Y263790D01*
X463677Y263696D01*
X463616Y263604D01*
X463551Y263514D01*
X463483Y263426D01*
X463412Y263341D01*
X463338Y263259D01*
X463261Y263179D01*
X463181Y263102D01*
X463099Y263028D01*
X463014Y262957D01*
X462926Y262889D01*
X462836Y262824D01*
X462744Y262763D01*
X462650Y262705D01*
X462554Y262650D01*
X462455Y262598D01*
X462355Y262551D01*
X462254Y262506D01*
X462151Y262466D01*
X462046Y262429D01*
X461940Y262396D01*
X461834Y262366D01*
X461726Y262341D01*
X461617Y262319D01*
X461508Y262302D01*
X461398Y262288D01*
X461287Y262278D01*
X461177Y262272D01*
X461066Y262270D01*
X461066Y262269D02*
X457962Y262269D01*
X461687Y262269D02*
X464171Y257302D01*
X469300Y257302D02*
X473025Y257302D01*
X473123Y257304D01*
X473220Y257310D01*
X473317Y257319D01*
X473414Y257333D01*
X473510Y257350D01*
X473605Y257371D01*
X473699Y257395D01*
X473793Y257424D01*
X473885Y257456D01*
X473976Y257491D01*
X474065Y257530D01*
X474153Y257573D01*
X474239Y257619D01*
X474323Y257668D01*
X474405Y257721D01*
X474485Y257776D01*
X474563Y257835D01*
X474638Y257897D01*
X474711Y257962D01*
X474781Y258030D01*
X474849Y258100D01*
X474914Y258173D01*
X474976Y258248D01*
X475035Y258326D01*
X475090Y258406D01*
X475143Y258488D01*
X475192Y258572D01*
X475238Y258658D01*
X475281Y258746D01*
X475320Y258835D01*
X475355Y258926D01*
X475387Y259018D01*
X475416Y259112D01*
X475440Y259206D01*
X475461Y259301D01*
X475478Y259397D01*
X475492Y259494D01*
X475501Y259591D01*
X475507Y259688D01*
X475509Y259786D01*
X475509Y261027D01*
X475507Y261125D01*
X475501Y261222D01*
X475492Y261319D01*
X475478Y261416D01*
X475461Y261512D01*
X475440Y261607D01*
X475416Y261701D01*
X475387Y261795D01*
X475355Y261887D01*
X475320Y261978D01*
X475281Y262067D01*
X475238Y262155D01*
X475192Y262241D01*
X475143Y262325D01*
X475090Y262407D01*
X475035Y262487D01*
X474976Y262565D01*
X474914Y262640D01*
X474849Y262713D01*
X474781Y262783D01*
X474711Y262851D01*
X474638Y262916D01*
X474563Y262978D01*
X474485Y263037D01*
X474405Y263092D01*
X474323Y263145D01*
X474239Y263194D01*
X474153Y263240D01*
X474065Y263283D01*
X473976Y263322D01*
X473885Y263357D01*
X473793Y263389D01*
X473699Y263418D01*
X473605Y263442D01*
X473510Y263463D01*
X473414Y263480D01*
X473317Y263494D01*
X473220Y263503D01*
X473123Y263509D01*
X473025Y263511D01*
X469300Y263511D01*
X469300Y268478D01*
X475509Y268478D01*
D11*
X33020Y121920D02*
X33020Y111760D01*
D12*
X22331Y127762D02*
X22331Y138938D01*
X25436Y138938D01*
X25547Y138936D01*
X25657Y138930D01*
X25768Y138920D01*
X25878Y138906D01*
X25987Y138889D01*
X26096Y138867D01*
X26204Y138842D01*
X26310Y138812D01*
X26416Y138779D01*
X26521Y138742D01*
X26624Y138702D01*
X26725Y138657D01*
X26825Y138610D01*
X26924Y138558D01*
X27020Y138503D01*
X27114Y138445D01*
X27206Y138384D01*
X27296Y138319D01*
X27384Y138251D01*
X27469Y138180D01*
X27551Y138106D01*
X27631Y138029D01*
X27708Y137949D01*
X27782Y137867D01*
X27853Y137782D01*
X27921Y137694D01*
X27986Y137604D01*
X28047Y137512D01*
X28105Y137418D01*
X28160Y137322D01*
X28212Y137223D01*
X28259Y137123D01*
X28304Y137022D01*
X28344Y136919D01*
X28381Y136814D01*
X28414Y136708D01*
X28444Y136602D01*
X28469Y136494D01*
X28491Y136385D01*
X28508Y136276D01*
X28522Y136166D01*
X28532Y136055D01*
X28538Y135945D01*
X28540Y135834D01*
X28538Y135723D01*
X28532Y135613D01*
X28522Y135502D01*
X28508Y135392D01*
X28491Y135283D01*
X28469Y135174D01*
X28444Y135066D01*
X28414Y134960D01*
X28381Y134854D01*
X28344Y134749D01*
X28304Y134646D01*
X28259Y134545D01*
X28212Y134445D01*
X28160Y134346D01*
X28105Y134250D01*
X28047Y134156D01*
X27986Y134064D01*
X27921Y133974D01*
X27853Y133886D01*
X27782Y133801D01*
X27708Y133719D01*
X27631Y133639D01*
X27551Y133562D01*
X27469Y133488D01*
X27384Y133417D01*
X27296Y133349D01*
X27206Y133284D01*
X27114Y133223D01*
X27020Y133165D01*
X26924Y133110D01*
X26825Y133058D01*
X26725Y133011D01*
X26624Y132966D01*
X26521Y132926D01*
X26416Y132889D01*
X26310Y132856D01*
X26204Y132826D01*
X26096Y132801D01*
X25987Y132779D01*
X25878Y132762D01*
X25768Y132748D01*
X25657Y132738D01*
X25547Y132732D01*
X25436Y132730D01*
X25436Y132729D02*
X22331Y132729D01*
X26056Y132729D02*
X28540Y127762D01*
X33669Y133971D02*
X37394Y133971D01*
X37492Y133969D01*
X37589Y133963D01*
X37686Y133954D01*
X37783Y133940D01*
X37879Y133923D01*
X37974Y133902D01*
X38068Y133878D01*
X38162Y133849D01*
X38254Y133817D01*
X38345Y133782D01*
X38434Y133743D01*
X38522Y133700D01*
X38608Y133654D01*
X38692Y133605D01*
X38774Y133552D01*
X38854Y133497D01*
X38932Y133438D01*
X39007Y133376D01*
X39080Y133311D01*
X39150Y133243D01*
X39218Y133173D01*
X39283Y133100D01*
X39345Y133025D01*
X39404Y132947D01*
X39459Y132867D01*
X39512Y132785D01*
X39561Y132701D01*
X39607Y132615D01*
X39650Y132527D01*
X39689Y132438D01*
X39724Y132347D01*
X39756Y132255D01*
X39785Y132161D01*
X39809Y132067D01*
X39830Y131972D01*
X39847Y131876D01*
X39861Y131779D01*
X39870Y131682D01*
X39876Y131585D01*
X39878Y131487D01*
X39878Y130866D01*
X39876Y130755D01*
X39870Y130645D01*
X39860Y130534D01*
X39846Y130424D01*
X39829Y130315D01*
X39807Y130206D01*
X39782Y130098D01*
X39752Y129992D01*
X39719Y129886D01*
X39682Y129781D01*
X39642Y129678D01*
X39597Y129577D01*
X39550Y129477D01*
X39498Y129378D01*
X39443Y129282D01*
X39385Y129188D01*
X39324Y129096D01*
X39259Y129006D01*
X39191Y128918D01*
X39120Y128833D01*
X39046Y128751D01*
X38969Y128671D01*
X38889Y128594D01*
X38807Y128520D01*
X38722Y128449D01*
X38634Y128381D01*
X38544Y128316D01*
X38452Y128255D01*
X38358Y128197D01*
X38262Y128142D01*
X38163Y128090D01*
X38063Y128043D01*
X37962Y127998D01*
X37859Y127958D01*
X37754Y127921D01*
X37648Y127888D01*
X37542Y127858D01*
X37434Y127833D01*
X37325Y127811D01*
X37216Y127794D01*
X37106Y127780D01*
X36995Y127770D01*
X36885Y127764D01*
X36774Y127762D01*
X36663Y127764D01*
X36553Y127770D01*
X36442Y127780D01*
X36332Y127794D01*
X36223Y127811D01*
X36114Y127833D01*
X36006Y127858D01*
X35900Y127888D01*
X35794Y127921D01*
X35689Y127958D01*
X35586Y127998D01*
X35485Y128043D01*
X35385Y128090D01*
X35286Y128142D01*
X35190Y128197D01*
X35096Y128255D01*
X35004Y128316D01*
X34914Y128381D01*
X34826Y128449D01*
X34741Y128520D01*
X34659Y128594D01*
X34579Y128671D01*
X34502Y128751D01*
X34428Y128833D01*
X34357Y128918D01*
X34289Y129006D01*
X34224Y129096D01*
X34163Y129188D01*
X34105Y129282D01*
X34050Y129378D01*
X33998Y129477D01*
X33951Y129577D01*
X33906Y129678D01*
X33866Y129781D01*
X33829Y129886D01*
X33796Y129992D01*
X33766Y130098D01*
X33741Y130206D01*
X33719Y130315D01*
X33702Y130424D01*
X33688Y130534D01*
X33678Y130645D01*
X33672Y130755D01*
X33670Y130866D01*
X33669Y130866D02*
X33669Y133971D01*
X33671Y134110D01*
X33677Y134250D01*
X33687Y134388D01*
X33700Y134527D01*
X33718Y134665D01*
X33739Y134803D01*
X33764Y134940D01*
X33794Y135076D01*
X33826Y135212D01*
X33863Y135346D01*
X33904Y135479D01*
X33948Y135611D01*
X33996Y135742D01*
X34047Y135872D01*
X34102Y136000D01*
X34161Y136126D01*
X34223Y136251D01*
X34289Y136374D01*
X34358Y136495D01*
X34430Y136614D01*
X34506Y136731D01*
X34585Y136845D01*
X34667Y136958D01*
X34753Y137068D01*
X34841Y137176D01*
X34932Y137281D01*
X35027Y137383D01*
X35124Y137483D01*
X35224Y137580D01*
X35326Y137675D01*
X35431Y137766D01*
X35539Y137854D01*
X35649Y137940D01*
X35762Y138022D01*
X35876Y138101D01*
X35993Y138177D01*
X36112Y138249D01*
X36233Y138318D01*
X36356Y138384D01*
X36481Y138446D01*
X36607Y138505D01*
X36735Y138560D01*
X36865Y138611D01*
X36995Y138659D01*
X37128Y138703D01*
X37261Y138744D01*
X37395Y138781D01*
X37531Y138813D01*
X37667Y138843D01*
X37804Y138868D01*
X37942Y138889D01*
X38080Y138907D01*
X38218Y138920D01*
X38357Y138930D01*
X38497Y138936D01*
X38636Y138938D01*
M02*
