G04 EAGLE Gerber RS-274X export*
G75*
%MOMM*%
%FSLAX34Y34*%
%LPD*%
%INSoldermask Top*%
%IPPOS*%
%AMOC8*
5,1,8,0,0,1.08239X$1,22.5*%
G01*
%ADD10R,1.676400X1.676400*%
%ADD11P,1.814519X8X22.500000*%
%ADD12R,1.803400X1.803400*%
%ADD13C,1.803400*%
%ADD14R,1.102359X1.183641*%
%ADD15C,4.597400*%
%ADD16C,0.609600*%
%ADD17C,1.168400*%
%ADD18C,1.930400*%
%ADD19C,2.652400*%


D10*
X71800Y345700D03*
D11*
X71800Y320300D03*
X97200Y345700D03*
X97200Y320300D03*
X122600Y345700D03*
X122600Y320300D03*
X148000Y345700D03*
X148000Y320300D03*
X173400Y345700D03*
X173400Y320300D03*
X198800Y345700D03*
X198800Y320300D03*
X224200Y345700D03*
X224200Y320300D03*
X249600Y345700D03*
X249600Y320300D03*
X275000Y345700D03*
X275000Y320300D03*
X300400Y345700D03*
X300400Y320300D03*
X325800Y345700D03*
X325800Y320300D03*
X351200Y345700D03*
X351200Y320300D03*
X376600Y345700D03*
X376600Y320300D03*
X402000Y345700D03*
X402000Y320300D03*
X427400Y345700D03*
X427400Y320300D03*
X452800Y345700D03*
X452800Y320300D03*
X478200Y345700D03*
X478200Y320300D03*
X503600Y345700D03*
X503600Y320300D03*
D10*
X71800Y91700D03*
D11*
X71800Y66300D03*
X97200Y91700D03*
X97200Y66300D03*
X122600Y91700D03*
X122600Y66300D03*
X148000Y91700D03*
X148000Y66300D03*
X173400Y91700D03*
X173400Y66300D03*
X198800Y91700D03*
X198800Y66300D03*
X224200Y91700D03*
X224200Y66300D03*
X249600Y91700D03*
X249600Y66300D03*
X275000Y91700D03*
X275000Y66300D03*
X300400Y91700D03*
X300400Y66300D03*
X325800Y91700D03*
X325800Y66300D03*
X351200Y91700D03*
X351200Y66300D03*
X376600Y91700D03*
X376600Y66300D03*
X402000Y91700D03*
X402000Y66300D03*
X427400Y91700D03*
X427400Y66300D03*
X452800Y91700D03*
X452800Y66300D03*
X478200Y91700D03*
X478200Y66300D03*
X503600Y91700D03*
X503600Y66300D03*
D12*
X142240Y292100D03*
D13*
X167640Y292100D03*
D14*
X146939Y261620D03*
X162941Y261620D03*
D15*
X33020Y388620D03*
D16*
X17780Y347980D02*
X17782Y348167D01*
X17789Y348354D01*
X17801Y348541D01*
X17817Y348727D01*
X17837Y348913D01*
X17862Y349098D01*
X17892Y349283D01*
X17926Y349467D01*
X17965Y349650D01*
X18008Y349832D01*
X18056Y350012D01*
X18108Y350192D01*
X18165Y350370D01*
X18225Y350547D01*
X18291Y350722D01*
X18360Y350896D01*
X18434Y351068D01*
X18512Y351238D01*
X18594Y351406D01*
X18680Y351572D01*
X18770Y351736D01*
X18864Y351897D01*
X18962Y352057D01*
X19064Y352213D01*
X19170Y352368D01*
X19280Y352519D01*
X19393Y352668D01*
X19510Y352814D01*
X19630Y352957D01*
X19754Y353097D01*
X19881Y353234D01*
X20012Y353368D01*
X20146Y353499D01*
X20283Y353626D01*
X20423Y353750D01*
X20566Y353870D01*
X20712Y353987D01*
X20861Y354100D01*
X21012Y354210D01*
X21167Y354316D01*
X21323Y354418D01*
X21483Y354516D01*
X21644Y354610D01*
X21808Y354700D01*
X21974Y354786D01*
X22142Y354868D01*
X22312Y354946D01*
X22484Y355020D01*
X22658Y355089D01*
X22833Y355155D01*
X23010Y355215D01*
X23188Y355272D01*
X23368Y355324D01*
X23548Y355372D01*
X23730Y355415D01*
X23913Y355454D01*
X24097Y355488D01*
X24282Y355518D01*
X24467Y355543D01*
X24653Y355563D01*
X24839Y355579D01*
X25026Y355591D01*
X25213Y355598D01*
X25400Y355600D01*
X25587Y355598D01*
X25774Y355591D01*
X25961Y355579D01*
X26147Y355563D01*
X26333Y355543D01*
X26518Y355518D01*
X26703Y355488D01*
X26887Y355454D01*
X27070Y355415D01*
X27252Y355372D01*
X27432Y355324D01*
X27612Y355272D01*
X27790Y355215D01*
X27967Y355155D01*
X28142Y355089D01*
X28316Y355020D01*
X28488Y354946D01*
X28658Y354868D01*
X28826Y354786D01*
X28992Y354700D01*
X29156Y354610D01*
X29317Y354516D01*
X29477Y354418D01*
X29633Y354316D01*
X29788Y354210D01*
X29939Y354100D01*
X30088Y353987D01*
X30234Y353870D01*
X30377Y353750D01*
X30517Y353626D01*
X30654Y353499D01*
X30788Y353368D01*
X30919Y353234D01*
X31046Y353097D01*
X31170Y352957D01*
X31290Y352814D01*
X31407Y352668D01*
X31520Y352519D01*
X31630Y352368D01*
X31736Y352213D01*
X31838Y352057D01*
X31936Y351897D01*
X32030Y351736D01*
X32120Y351572D01*
X32206Y351406D01*
X32288Y351238D01*
X32366Y351068D01*
X32440Y350896D01*
X32509Y350722D01*
X32575Y350547D01*
X32635Y350370D01*
X32692Y350192D01*
X32744Y350012D01*
X32792Y349832D01*
X32835Y349650D01*
X32874Y349467D01*
X32908Y349283D01*
X32938Y349098D01*
X32963Y348913D01*
X32983Y348727D01*
X32999Y348541D01*
X33011Y348354D01*
X33018Y348167D01*
X33020Y347980D01*
X33018Y347793D01*
X33011Y347606D01*
X32999Y347419D01*
X32983Y347233D01*
X32963Y347047D01*
X32938Y346862D01*
X32908Y346677D01*
X32874Y346493D01*
X32835Y346310D01*
X32792Y346128D01*
X32744Y345948D01*
X32692Y345768D01*
X32635Y345590D01*
X32575Y345413D01*
X32509Y345238D01*
X32440Y345064D01*
X32366Y344892D01*
X32288Y344722D01*
X32206Y344554D01*
X32120Y344388D01*
X32030Y344224D01*
X31936Y344063D01*
X31838Y343903D01*
X31736Y343747D01*
X31630Y343592D01*
X31520Y343441D01*
X31407Y343292D01*
X31290Y343146D01*
X31170Y343003D01*
X31046Y342863D01*
X30919Y342726D01*
X30788Y342592D01*
X30654Y342461D01*
X30517Y342334D01*
X30377Y342210D01*
X30234Y342090D01*
X30088Y341973D01*
X29939Y341860D01*
X29788Y341750D01*
X29633Y341644D01*
X29477Y341542D01*
X29317Y341444D01*
X29156Y341350D01*
X28992Y341260D01*
X28826Y341174D01*
X28658Y341092D01*
X28488Y341014D01*
X28316Y340940D01*
X28142Y340871D01*
X27967Y340805D01*
X27790Y340745D01*
X27612Y340688D01*
X27432Y340636D01*
X27252Y340588D01*
X27070Y340545D01*
X26887Y340506D01*
X26703Y340472D01*
X26518Y340442D01*
X26333Y340417D01*
X26147Y340397D01*
X25961Y340381D01*
X25774Y340369D01*
X25587Y340362D01*
X25400Y340360D01*
X25213Y340362D01*
X25026Y340369D01*
X24839Y340381D01*
X24653Y340397D01*
X24467Y340417D01*
X24282Y340442D01*
X24097Y340472D01*
X23913Y340506D01*
X23730Y340545D01*
X23548Y340588D01*
X23368Y340636D01*
X23188Y340688D01*
X23010Y340745D01*
X22833Y340805D01*
X22658Y340871D01*
X22484Y340940D01*
X22312Y341014D01*
X22142Y341092D01*
X21974Y341174D01*
X21808Y341260D01*
X21644Y341350D01*
X21483Y341444D01*
X21323Y341542D01*
X21167Y341644D01*
X21012Y341750D01*
X20861Y341860D01*
X20712Y341973D01*
X20566Y342090D01*
X20423Y342210D01*
X20283Y342334D01*
X20146Y342461D01*
X20012Y342592D01*
X19881Y342726D01*
X19754Y342863D01*
X19630Y343003D01*
X19510Y343146D01*
X19393Y343292D01*
X19280Y343441D01*
X19170Y343592D01*
X19064Y343747D01*
X18962Y343903D01*
X18864Y344063D01*
X18770Y344224D01*
X18680Y344388D01*
X18594Y344554D01*
X18512Y344722D01*
X18434Y344892D01*
X18360Y345064D01*
X18291Y345238D01*
X18225Y345413D01*
X18165Y345590D01*
X18108Y345768D01*
X18056Y345948D01*
X18008Y346128D01*
X17965Y346310D01*
X17926Y346493D01*
X17892Y346677D01*
X17862Y346862D01*
X17837Y347047D01*
X17817Y347233D01*
X17801Y347419D01*
X17789Y347606D01*
X17782Y347793D01*
X17780Y347980D01*
D17*
X25400Y347980D03*
D18*
X322400Y35240D03*
X297000Y35240D03*
X271600Y35240D03*
X246200Y35240D03*
X220800Y35240D03*
X195400Y35240D03*
D19*
X108900Y32700D03*
X108900Y197700D03*
X408900Y197700D03*
X408900Y32700D03*
D12*
X228600Y292100D03*
D13*
X254000Y292100D03*
D14*
X233299Y261620D03*
X249301Y261620D03*
D12*
X314960Y292100D03*
D13*
X340360Y292100D03*
D14*
X319659Y261620D03*
X335661Y261620D03*
D12*
X406400Y292100D03*
D13*
X431800Y292100D03*
D14*
X411099Y261620D03*
X427101Y261620D03*
D12*
X492760Y292100D03*
D13*
X518160Y292100D03*
D14*
X497459Y261620D03*
X513461Y261620D03*
D15*
X33020Y30480D03*
X599440Y30480D03*
X601980Y386080D03*
D16*
X17780Y66040D02*
X17782Y66227D01*
X17789Y66414D01*
X17801Y66601D01*
X17817Y66787D01*
X17837Y66973D01*
X17862Y67158D01*
X17892Y67343D01*
X17926Y67527D01*
X17965Y67710D01*
X18008Y67892D01*
X18056Y68072D01*
X18108Y68252D01*
X18165Y68430D01*
X18225Y68607D01*
X18291Y68782D01*
X18360Y68956D01*
X18434Y69128D01*
X18512Y69298D01*
X18594Y69466D01*
X18680Y69632D01*
X18770Y69796D01*
X18864Y69957D01*
X18962Y70117D01*
X19064Y70273D01*
X19170Y70428D01*
X19280Y70579D01*
X19393Y70728D01*
X19510Y70874D01*
X19630Y71017D01*
X19754Y71157D01*
X19881Y71294D01*
X20012Y71428D01*
X20146Y71559D01*
X20283Y71686D01*
X20423Y71810D01*
X20566Y71930D01*
X20712Y72047D01*
X20861Y72160D01*
X21012Y72270D01*
X21167Y72376D01*
X21323Y72478D01*
X21483Y72576D01*
X21644Y72670D01*
X21808Y72760D01*
X21974Y72846D01*
X22142Y72928D01*
X22312Y73006D01*
X22484Y73080D01*
X22658Y73149D01*
X22833Y73215D01*
X23010Y73275D01*
X23188Y73332D01*
X23368Y73384D01*
X23548Y73432D01*
X23730Y73475D01*
X23913Y73514D01*
X24097Y73548D01*
X24282Y73578D01*
X24467Y73603D01*
X24653Y73623D01*
X24839Y73639D01*
X25026Y73651D01*
X25213Y73658D01*
X25400Y73660D01*
X25587Y73658D01*
X25774Y73651D01*
X25961Y73639D01*
X26147Y73623D01*
X26333Y73603D01*
X26518Y73578D01*
X26703Y73548D01*
X26887Y73514D01*
X27070Y73475D01*
X27252Y73432D01*
X27432Y73384D01*
X27612Y73332D01*
X27790Y73275D01*
X27967Y73215D01*
X28142Y73149D01*
X28316Y73080D01*
X28488Y73006D01*
X28658Y72928D01*
X28826Y72846D01*
X28992Y72760D01*
X29156Y72670D01*
X29317Y72576D01*
X29477Y72478D01*
X29633Y72376D01*
X29788Y72270D01*
X29939Y72160D01*
X30088Y72047D01*
X30234Y71930D01*
X30377Y71810D01*
X30517Y71686D01*
X30654Y71559D01*
X30788Y71428D01*
X30919Y71294D01*
X31046Y71157D01*
X31170Y71017D01*
X31290Y70874D01*
X31407Y70728D01*
X31520Y70579D01*
X31630Y70428D01*
X31736Y70273D01*
X31838Y70117D01*
X31936Y69957D01*
X32030Y69796D01*
X32120Y69632D01*
X32206Y69466D01*
X32288Y69298D01*
X32366Y69128D01*
X32440Y68956D01*
X32509Y68782D01*
X32575Y68607D01*
X32635Y68430D01*
X32692Y68252D01*
X32744Y68072D01*
X32792Y67892D01*
X32835Y67710D01*
X32874Y67527D01*
X32908Y67343D01*
X32938Y67158D01*
X32963Y66973D01*
X32983Y66787D01*
X32999Y66601D01*
X33011Y66414D01*
X33018Y66227D01*
X33020Y66040D01*
X33018Y65853D01*
X33011Y65666D01*
X32999Y65479D01*
X32983Y65293D01*
X32963Y65107D01*
X32938Y64922D01*
X32908Y64737D01*
X32874Y64553D01*
X32835Y64370D01*
X32792Y64188D01*
X32744Y64008D01*
X32692Y63828D01*
X32635Y63650D01*
X32575Y63473D01*
X32509Y63298D01*
X32440Y63124D01*
X32366Y62952D01*
X32288Y62782D01*
X32206Y62614D01*
X32120Y62448D01*
X32030Y62284D01*
X31936Y62123D01*
X31838Y61963D01*
X31736Y61807D01*
X31630Y61652D01*
X31520Y61501D01*
X31407Y61352D01*
X31290Y61206D01*
X31170Y61063D01*
X31046Y60923D01*
X30919Y60786D01*
X30788Y60652D01*
X30654Y60521D01*
X30517Y60394D01*
X30377Y60270D01*
X30234Y60150D01*
X30088Y60033D01*
X29939Y59920D01*
X29788Y59810D01*
X29633Y59704D01*
X29477Y59602D01*
X29317Y59504D01*
X29156Y59410D01*
X28992Y59320D01*
X28826Y59234D01*
X28658Y59152D01*
X28488Y59074D01*
X28316Y59000D01*
X28142Y58931D01*
X27967Y58865D01*
X27790Y58805D01*
X27612Y58748D01*
X27432Y58696D01*
X27252Y58648D01*
X27070Y58605D01*
X26887Y58566D01*
X26703Y58532D01*
X26518Y58502D01*
X26333Y58477D01*
X26147Y58457D01*
X25961Y58441D01*
X25774Y58429D01*
X25587Y58422D01*
X25400Y58420D01*
X25213Y58422D01*
X25026Y58429D01*
X24839Y58441D01*
X24653Y58457D01*
X24467Y58477D01*
X24282Y58502D01*
X24097Y58532D01*
X23913Y58566D01*
X23730Y58605D01*
X23548Y58648D01*
X23368Y58696D01*
X23188Y58748D01*
X23010Y58805D01*
X22833Y58865D01*
X22658Y58931D01*
X22484Y59000D01*
X22312Y59074D01*
X22142Y59152D01*
X21974Y59234D01*
X21808Y59320D01*
X21644Y59410D01*
X21483Y59504D01*
X21323Y59602D01*
X21167Y59704D01*
X21012Y59810D01*
X20861Y59920D01*
X20712Y60033D01*
X20566Y60150D01*
X20423Y60270D01*
X20283Y60394D01*
X20146Y60521D01*
X20012Y60652D01*
X19881Y60786D01*
X19754Y60923D01*
X19630Y61063D01*
X19510Y61206D01*
X19393Y61352D01*
X19280Y61501D01*
X19170Y61652D01*
X19064Y61807D01*
X18962Y61963D01*
X18864Y62123D01*
X18770Y62284D01*
X18680Y62448D01*
X18594Y62614D01*
X18512Y62782D01*
X18434Y62952D01*
X18360Y63124D01*
X18291Y63298D01*
X18225Y63473D01*
X18165Y63650D01*
X18108Y63828D01*
X18056Y64008D01*
X18008Y64188D01*
X17965Y64370D01*
X17926Y64553D01*
X17892Y64737D01*
X17862Y64922D01*
X17837Y65107D01*
X17817Y65293D01*
X17801Y65479D01*
X17789Y65666D01*
X17782Y65853D01*
X17780Y66040D01*
D17*
X25400Y66040D03*
D16*
X601980Y71120D02*
X601982Y71307D01*
X601989Y71494D01*
X602001Y71681D01*
X602017Y71867D01*
X602037Y72053D01*
X602062Y72238D01*
X602092Y72423D01*
X602126Y72607D01*
X602165Y72790D01*
X602208Y72972D01*
X602256Y73152D01*
X602308Y73332D01*
X602365Y73510D01*
X602425Y73687D01*
X602491Y73862D01*
X602560Y74036D01*
X602634Y74208D01*
X602712Y74378D01*
X602794Y74546D01*
X602880Y74712D01*
X602970Y74876D01*
X603064Y75037D01*
X603162Y75197D01*
X603264Y75353D01*
X603370Y75508D01*
X603480Y75659D01*
X603593Y75808D01*
X603710Y75954D01*
X603830Y76097D01*
X603954Y76237D01*
X604081Y76374D01*
X604212Y76508D01*
X604346Y76639D01*
X604483Y76766D01*
X604623Y76890D01*
X604766Y77010D01*
X604912Y77127D01*
X605061Y77240D01*
X605212Y77350D01*
X605367Y77456D01*
X605523Y77558D01*
X605683Y77656D01*
X605844Y77750D01*
X606008Y77840D01*
X606174Y77926D01*
X606342Y78008D01*
X606512Y78086D01*
X606684Y78160D01*
X606858Y78229D01*
X607033Y78295D01*
X607210Y78355D01*
X607388Y78412D01*
X607568Y78464D01*
X607748Y78512D01*
X607930Y78555D01*
X608113Y78594D01*
X608297Y78628D01*
X608482Y78658D01*
X608667Y78683D01*
X608853Y78703D01*
X609039Y78719D01*
X609226Y78731D01*
X609413Y78738D01*
X609600Y78740D01*
X609787Y78738D01*
X609974Y78731D01*
X610161Y78719D01*
X610347Y78703D01*
X610533Y78683D01*
X610718Y78658D01*
X610903Y78628D01*
X611087Y78594D01*
X611270Y78555D01*
X611452Y78512D01*
X611632Y78464D01*
X611812Y78412D01*
X611990Y78355D01*
X612167Y78295D01*
X612342Y78229D01*
X612516Y78160D01*
X612688Y78086D01*
X612858Y78008D01*
X613026Y77926D01*
X613192Y77840D01*
X613356Y77750D01*
X613517Y77656D01*
X613677Y77558D01*
X613833Y77456D01*
X613988Y77350D01*
X614139Y77240D01*
X614288Y77127D01*
X614434Y77010D01*
X614577Y76890D01*
X614717Y76766D01*
X614854Y76639D01*
X614988Y76508D01*
X615119Y76374D01*
X615246Y76237D01*
X615370Y76097D01*
X615490Y75954D01*
X615607Y75808D01*
X615720Y75659D01*
X615830Y75508D01*
X615936Y75353D01*
X616038Y75197D01*
X616136Y75037D01*
X616230Y74876D01*
X616320Y74712D01*
X616406Y74546D01*
X616488Y74378D01*
X616566Y74208D01*
X616640Y74036D01*
X616709Y73862D01*
X616775Y73687D01*
X616835Y73510D01*
X616892Y73332D01*
X616944Y73152D01*
X616992Y72972D01*
X617035Y72790D01*
X617074Y72607D01*
X617108Y72423D01*
X617138Y72238D01*
X617163Y72053D01*
X617183Y71867D01*
X617199Y71681D01*
X617211Y71494D01*
X617218Y71307D01*
X617220Y71120D01*
X617218Y70933D01*
X617211Y70746D01*
X617199Y70559D01*
X617183Y70373D01*
X617163Y70187D01*
X617138Y70002D01*
X617108Y69817D01*
X617074Y69633D01*
X617035Y69450D01*
X616992Y69268D01*
X616944Y69088D01*
X616892Y68908D01*
X616835Y68730D01*
X616775Y68553D01*
X616709Y68378D01*
X616640Y68204D01*
X616566Y68032D01*
X616488Y67862D01*
X616406Y67694D01*
X616320Y67528D01*
X616230Y67364D01*
X616136Y67203D01*
X616038Y67043D01*
X615936Y66887D01*
X615830Y66732D01*
X615720Y66581D01*
X615607Y66432D01*
X615490Y66286D01*
X615370Y66143D01*
X615246Y66003D01*
X615119Y65866D01*
X614988Y65732D01*
X614854Y65601D01*
X614717Y65474D01*
X614577Y65350D01*
X614434Y65230D01*
X614288Y65113D01*
X614139Y65000D01*
X613988Y64890D01*
X613833Y64784D01*
X613677Y64682D01*
X613517Y64584D01*
X613356Y64490D01*
X613192Y64400D01*
X613026Y64314D01*
X612858Y64232D01*
X612688Y64154D01*
X612516Y64080D01*
X612342Y64011D01*
X612167Y63945D01*
X611990Y63885D01*
X611812Y63828D01*
X611632Y63776D01*
X611452Y63728D01*
X611270Y63685D01*
X611087Y63646D01*
X610903Y63612D01*
X610718Y63582D01*
X610533Y63557D01*
X610347Y63537D01*
X610161Y63521D01*
X609974Y63509D01*
X609787Y63502D01*
X609600Y63500D01*
X609413Y63502D01*
X609226Y63509D01*
X609039Y63521D01*
X608853Y63537D01*
X608667Y63557D01*
X608482Y63582D01*
X608297Y63612D01*
X608113Y63646D01*
X607930Y63685D01*
X607748Y63728D01*
X607568Y63776D01*
X607388Y63828D01*
X607210Y63885D01*
X607033Y63945D01*
X606858Y64011D01*
X606684Y64080D01*
X606512Y64154D01*
X606342Y64232D01*
X606174Y64314D01*
X606008Y64400D01*
X605844Y64490D01*
X605683Y64584D01*
X605523Y64682D01*
X605367Y64784D01*
X605212Y64890D01*
X605061Y65000D01*
X604912Y65113D01*
X604766Y65230D01*
X604623Y65350D01*
X604483Y65474D01*
X604346Y65601D01*
X604212Y65732D01*
X604081Y65866D01*
X603954Y66003D01*
X603830Y66143D01*
X603710Y66286D01*
X603593Y66432D01*
X603480Y66581D01*
X603370Y66732D01*
X603264Y66887D01*
X603162Y67043D01*
X603064Y67203D01*
X602970Y67364D01*
X602880Y67528D01*
X602794Y67694D01*
X602712Y67862D01*
X602634Y68032D01*
X602560Y68204D01*
X602491Y68378D01*
X602425Y68553D01*
X602365Y68730D01*
X602308Y68908D01*
X602256Y69088D01*
X602208Y69268D01*
X602165Y69450D01*
X602126Y69633D01*
X602092Y69817D01*
X602062Y70002D01*
X602037Y70187D01*
X602017Y70373D01*
X602001Y70559D01*
X601989Y70746D01*
X601982Y70933D01*
X601980Y71120D01*
D17*
X609600Y71120D03*
D14*
X41021Y116840D03*
X25019Y116840D03*
M02*
